<?xml version="1.0" encoding="utf-8"?>
<!-- Generator: Adobe Illustrator 21.0.2, SVG Export Plug-In . SVG Version: 6.00 Build 0)  -->
<svg version="1.1" id="Layer_1" xmlns="http://www.w3.org/2000/svg" xmlns:xlink="http://www.w3.org/1999/xlink" x="0px" y="0px"
	 viewBox="0 0 216.1 18.2" style="enable-background:new 0 0 216.1 18.2;" xml:space="preserve">
<style type="text/css">
	.st0{fill:#4E4E4E;}
</style>
<g>
	<g>
		<path class="st0" d="M21.1,5.2H5.2l2.6,2.6h17C24.3,6.3,22.8,5.2,21.1,5.2z"/>
		<path class="st0" d="M24.8,10.4H10.4L13,13h8.1C22.8,13,24.3,11.8,24.8,10.4z"/>
		<path class="st0" d="M21.1,0H0l2.6,2.6h18.6c3.5,0,6.5,2.9,6.5,6.5s-2.9,6.5-6.5,6.5h-5.6l2.6,2.6h3c5,0,9.1-4.1,9.1-9.1
			S26.1,0,21.1,0z"/>
		<path class="st0" d="M33.5,5.2h-1.3c0.3,0.9,0.5,1.7,0.6,2.6h4.4C36.6,6.3,35.2,5.2,33.5,5.2z"/>
		<path class="st0" d="M37.1,10.4h-4.4c-0.1,0.9-0.3,1.7-0.6,2.6h1.3C35.2,13,36.6,11.8,37.1,10.4z"/>
		<path class="st0" d="M33.5,0h-5c1,0.8,1.7,1.6,2.3,2.6h2.6c3.5,0,6.5,2.9,6.5,6.5s-2.9,6.5-6.5,6.5h-2.6c-0.7,1-1.5,1.8-2.3,2.6h5
			c5,0,9.1-4.1,9.1-9.1S38.5,0,33.5,0z"/>
	</g>
	<path class="st0" d="M61.5,2.2h5.8c4.8,0,8.1,3.2,8.1,7.8s-3.3,7.8-8.1,7.8h-5.8V2.2z M67.3,15.4c3.4,0,5.3-2.4,5.3-5.4
		c0-3-1.9-5.4-5.3-5.4h-3.1v10.7H67.3z"/>
	<path class="st0" d="M89.3,2c4.7,0,7.9,3.4,7.9,8s-3.3,8-7.9,8s-7.9-3.4-7.9-8S84.7,2,89.3,2z M89.3,4.4c-3.1,0-5.1,2.4-5.1,5.6
		c0,3.2,2,5.6,5.1,5.6c3.1,0,5.1-2.4,5.1-5.6C94.5,6.8,92.4,4.4,89.3,4.4z"/>
	<path class="st0" d="M112.2,2c4.7,0,7.9,3.4,7.9,8s-3.3,8-7.9,8s-7.9-3.4-7.9-8S107.5,2,112.2,2z M112.2,4.4
		c-3.1,0-5.1,2.4-5.1,5.6c0,3.2,2,5.6,5.1,5.6c3.1,0,5.1-2.4,5.1-5.6C117.3,6.8,115.3,4.4,112.2,4.4z"/>
	<path class="st0" d="M132.3,12h-2.7v5.8h-2.7V2.2h6.8c3.1,0,5.1,2,5.1,4.9c0,2.8-1.8,4.3-3.7,4.6l3.8,6.1h-3.1L132.3,12z
		 M133.3,4.6h-3.7v4.9h3.7c1.5,0,2.7-1,2.7-2.5S134.8,4.6,133.3,4.6z"/>
	<path class="st0" d="M145.6,2.2h5.8c4.8,0,8.1,3.2,8.1,7.8s-3.3,7.8-8.1,7.8h-5.8V2.2z M151.4,15.4c3.4,0,5.3-2.4,5.3-5.4
		c0-3-1.9-5.4-5.3-5.4h-3.1v10.7H151.4z"/>
	<path class="st0" d="M176.4,14.8h-7.4l-1.1,3h-3L171,2.2h3.4l6.1,15.5h-3L176.4,14.8z M169.8,12.4h5.8l-2.9-7.9L169.8,12.4z"/>
	<path class="st0" d="M186,13.5c1.1,1.1,2.7,2.1,4.9,2.1c2.2,0,3.1-1.1,3.1-2.1c0-1.4-1.7-1.8-3.5-2.3c-2.5-0.6-5.5-1.4-5.5-4.7
		c0-2.6,2.3-4.5,5.7-4.5c2.4,0,4.4,0.8,5.8,2.2l-1.6,2c-1.2-1.2-2.9-1.8-4.5-1.8c-1.6,0-2.6,0.8-2.6,1.9c0,1.2,1.6,1.6,3.4,2.1
		c2.6,0.7,5.6,1.4,5.6,4.8c0,2.6-1.8,4.8-6,4.8c-2.9,0-4.9-1-6.3-2.5L186,13.5z"/>
	<path class="st0" d="M213.4,11h-8.1v6.8h-2.7V2.2h2.7v6.4h8.1V2.2h2.7v15.5h-2.7V11z"/>
</g>
</svg>
