<?xml version="1.0" encoding="utf-8"?>
<!-- Generator: Adobe Illustrator 21.0.2, SVG Export Plug-In . SVG Version: 6.00 Build 0)  -->
<svg version="1.1" id="Layer_1" xmlns="http://www.w3.org/2000/svg" xmlns:xlink="http://www.w3.org/1999/xlink" x="0px" y="0px"
	 viewBox="0 0 314 98.9" style="enable-background:new 0 0 314 98.9;" xml:space="preserve">
<style type="text/css">
	.st0{fill:#FFFFFF;}
</style>
<g>
	<path class="st0" d="M32.6,74.8c-0.4,1.2-0.4,2.1-1.3,2.7c0.4,0.8-0.1,1.7-0.8,2.2c0,0.2,0.1,0.4,0.4,0.3c-0.4,1.1-1.4,1.8-1.3,2.7
		c-0.4,0.4-0.5,0.6-0.5,1.2c-0.4,0-0.2-0.4-0.2-0.7c-0.5,0.4,0,1.1-0.3,1.7c-0.1,0.2-0.3,0-0.4-0.1c0,1.1-0.7,1.3-0.7,2.4
		c-0.4,0.2-0.1-0.4-0.3-0.3c-0.2,0.2,0,0.4-0.1,0.6c-0.2,0-0.3,0-0.4,0c0.4,0.4-0.1,0.6-0.4,0.9c0,0.3,0.4,0.2,0.2,0.5
		c-0.1,0.2-0.4,0.2-0.5,0.1c0.1,0.4-0.4,1.5-1.2,1.5c0.2,0.5-0.1,0.5,0,1.1c-0.4-0.1-0.5,0.1-0.6,0.2c0,0.2,0.2,0.3,0,0.4
		c-0.4,0.3-0.6,0.2-1,0.3c0,0.3,0.5,0,0.4,0.4c-0.5-0.3-0.6,0.2-0.9-0.2c-0.2,0.1,0,0.5-0.2,0.6c0.2,0.4,0.3-0.3,0.5-0.3
		c-0.4,1.1-1.4,2-2.2,2.2c-0.4,0.9-1.3,1.6-2.2,1.6c-0.4,0.6-1.2,1.2-1.9,1c-1.7,1.3-5.6,1.1-7.2-0.2c-0.3,0-0.3,0.2-0.4,0.1
		c-4.7-2.7-7.9-6.8-9-13c-0.2-0.3,0.1-0.3,0.2-0.4c-0.2-1-0.2-1.7,0-2.7c0.1-0.2-0.1-0.2,0-0.4C0.7,78.5,1.3,76,2,73.2
		c0.6-1.3,1.2-3,1.8-4.6c1.5-3,3.1-5.9,5.2-8.5c0.1,0,0.2,0,0.2,0c0-0.1,0-0.3,0-0.4c2.6-2.6,5.2-5.2,9.4-6.3c0,0.2,0,0.4,0.2,0.4
		c-1.5,1.2-3.1,2.4-4.5,3.8c0.4,0.1,0.2-0.4,0.5-0.3c-0.2,0.3-0.4,0.4-0.5,0.7c0.2-0.1,0.9-0.4,1-0.9c0.6,0.1-0.3,1.3-0.4,0.9
		c-0.2,0.1-0.1,0.4-0.2,0.5C11.8,61.2,10,64.8,8,68c-0.7,2-1.4,4-2.3,5.8c-0.6,2.9-2.2,6.8-1.6,10.7c-0.3,0.7,0,1.9,0,2.8
		c0,0.2-0.1,0.2-0.1,0.4c0.5,2.6,1.4,4.8,3,6.6c1,0.4,2.2,0.6,3.2,0.7c2.3,0.3,4.8-0.4,6.5-1.6c1.4-1,2.9-2.4,4-3.7
		c0.3-0.4,0.4-0.9,0.8-1.3c0.2-0.4,0.7-0.5,0.9-1c1.2-1.9,2.1-4,3.3-5.8c1.4-3.9,3.7-8.4,4.8-12.8c0.6-1.5,0.8-3,1.4-4.7
		c0.1-1.3,0.9-2.7,1-4c0.2-0.2,0.2-0.4,0.4-0.5c1.4-6.7,3.3-13.4,4-20.3c0.4-1.6,0.8-3.9,0.8-5.4c0.4-2.2,0.5-4.4,0.8-6.6
		c-7.8,1-15.5,3.3-22.2,6.6c-0.3-0.1-0.4-0.6-1.2-0.5c-0.9-0.8-1-3.1,0.6-3.1c0.2-0.1,0.2-0.3,0.2-0.4c0.6-0.2,1.3-0.4,1.9-0.6
		c0.5-0.3,0.4-0.2,0.6-0.3c0.8,0,2-0.9,3.1-1.2c2.4-0.8,4.9-1.6,7.5-2.2c0.4-0.1,0.6,0.1,1,0c1.3-0.2,2.3-0.8,3.7-1
		c1.9-0.3,3.2-0.5,4.9-0.8c0.4-1.4-0.2-3.3,0.3-4.6c1.3-0.1,2.6,0.6,3.4,1.5c-0.1,0.9,0.4,1.6,0,2.5c4.5-0.2,8.5-0.6,12.9,0.3
		c2.4,0,4.4,1,6.4,1.6c1.6,1.3,3.9,2.2,4.2,4.7c-0.1,0.8-0.1,0.9-0.4,1.4c-0.3-0.3-0.5-0.5-0.6-1.1c-5.9-4.8-14.5-4.5-22.5-3.5
		c-0.5,2.8-0.8,5.7-1,8.4c-0.3,0.1-0.2,0.4-0.4,0.5c0.1,1.3-0.1,2.2-0.4,3.4c0.2,0.6,0.2,1.1-0.2,1.3c0.1,1.1-0.1,2.2-0.5,3.1
		c0.2,0.4,0.3,1.4-0.4,1.8c-0.1,0.3,0.2,0.2,0.3,0.3c-0.4,0.4-0.1,1.6-0.6,1.9c0,0.4,0,0.1,0.3,0.2c-0.2,0.1-0.2,0.5-0.2,0.7
		c-0.3-0.1-0.4-0.1-0.7,0c0,0.3,0.2,0.4,0.3,0.5c0.4,0-0.2-0.3,0.2-0.4c0.3,0.1,0.2,0.4,0.2,0.7c-0.3,0.1-0.6,0.1-0.8,0.2
		c0.2,0.3,0.2,0.7,0.6,0.5c-0.2,0.4-0.2,0.8-0.4,0.8c0,0.2,0,0.2,0.2,0.1c-0.2,0.4-0.4,0.1-0.6,0.3c0.1,0.3,0.4,0.3,0.5,0.4
		c-0.7,1-0.3,2.5-1,3.4c0,0.2,0.2,0.3,0.2,0.4c-0.5,0.5-0.9,1.2-1.2,1.8c0.4,0.1,0.1-0.3,0.4-0.2c0.2,0.2-0.1,0.5-0.2,0.8
		c-0.3,0-0.2-0.2-0.3-0.2c-0.1,0.4-0.2,0.5,0.1,0.7c0.4-0.2,0-0.1,0-0.4c0.7,0.1,0.2,0.6,0.2,1.2c-0.2,0-0.3-0.2-0.2-0.4
		c-0.3,0.6,0.2,1.3-0.4,1.7c0.3,0.5,0.3,1.5-0.4,1.7c0.2,0.4,0,0.9-0.1,1.3c-0.3,0-0.1-0.4-0.1-0.4c-0.4-0.1-0.3,0.1-0.4,0.1
		c0.2,0.4,0.2,0.5,0.1,1.2c-0.1,0-0.3,0-0.5,0c0,0.3,0.4,0.2,0.4,0.3c-0.4,0.4-0.3,0.6-0.4,1.1c-0.2,0.2-0.3-0.1-0.4,0.1
		c0.1,0.4,0.4-0.1,0.7,0.2c0,0.4-0.4,0.2-0.5,0.4c0,0.1,0.2,0.2,0.3,0.4c0.1,0.4-0.5,0.1-0.4,0.5c0,0.4,0.3-0.3,0.3,0.1
		c0,0.4-0.3,0.7-0.4,0.9c-0.4,0-0.3-0.2-0.3-0.5c-0.2,0.1-0.1,0.5-0.2,0.6c0,0.3,0.2-0.1,0.4,0.1C34.4,69.6,34,71,33,71.7
		c0.2,0.1,0.3,0.2,0.4,0.3c-0.4,0.7-0.4,1.2-0.4,1.9c-0.4,0.4-0.9,0.5-1.1,1c0.3,0.1,0.3-0.2,0.4-0.2C32.4,74.8,32.4,74.9,32.6,74.8
		z M1.1,82.4c0,0,0-0.1,0-0.2c-0.1,0-0.2,0-0.2,0c0,0.1,0,0.2,0,0.2S1,82.4,1.1,82.4z M1.7,78.5c0-0.1,0.1-0.1,0.1-0.2
		c-0.1,0-0.1,0-0.2,0c0,0-0.1,0-0.1,0.1C1.6,78.4,1.6,78.5,1.7,78.5z M1.8,77.7c0.3-1.2,0.9-2.8,1.1-4c-0.3,0.4-0.4,1-0.7,1.4
		C2.4,75.8,1.5,77,1.8,77.7z M4.5,69.4c-0.1,0-0.2-0.1-0.3-0.1c-0.5,1.3-0.9,2.5-1.3,3.9C3.7,72.2,3.9,70.6,4.5,69.4z M4.6,72.8
		c0-0.1,0-0.2,0-0.2s-0.1,0-0.2,0c0,0,0,0.1,0,0.2C4.5,72.8,4.6,72.8,4.6,72.8z M4.5,68.9 M4.7,71.9 M5.4,66.8
		c0.1,0.1,0.2,0.2,0.2,0.3c-0.4,0.4-0.7,0.6-0.6,1.2c0.5-0.3,0.7-1,1-1.6c0.4-0.3,0.4-0.6,0.5-1.2c-0.3,0.2-0.4,0.5-0.5,1.2
		C5.6,66.6,5.5,66.8,5.4,66.8z M5.1,72.6c0-0.1,0-0.2-0.2-0.2C4.9,72.5,4.9,72.7,5.1,72.6C5,72.6,5,72.5,5.1,72.6z M5.4,71.7
		 M5.5,70.5c0.2,0.4-0.4,0.6,0,0.7C5.6,71.2,6,70.6,5.5,70.5z M5.5,69.6 M5.9,69.4c0-0.1,0-0.1,0-0.2c-0.1,0-0.2,0-0.2,0
		c0,0.1,0,0.1,0,0.2C5.7,69.4,5.8,69.4,5.9,69.4z M6,69.8C6,69.9,5.9,70,6,70C6,70,6.2,69.9,6,69.8z M6.8,68.1
		c-0.2,0.4-0.5,0.7-0.6,1.3C6.6,69.3,6.9,68.5,6.8,68.1z M6.7,64.8 M6.9,67.3c0,0,0-0.1,0-0.2c-0.1,0-0.1,0-0.2,0c0,0.1,0,0.2,0,0.2
		C6.8,67.3,6.8,67.3,6.9,67.3z M7.2,63.9c-0.4,0-0.4,0.3-0.4,0.4C7.2,64.4,7,64.1,7.2,63.9z M7.4,63.8c-0.2-0.1-0.4,0.4-0.1,0.4
		C7.3,64.1,7.4,64,7.4,63.8z M7.3,66.1 M7.6,65.5 M7.8,66.2 M8.1,62.4c0,0.3-0.3,0.2-0.2,0.4C8.1,62.9,8.4,62.5,8.1,62.4z M8.6,64.8
		C8.4,65.2,7.9,65.6,8,66C8.1,65.6,8.7,65.2,8.6,64.8z M8.9,61.8c0.1-0.3-0.4-0.4-0.4-0.1C8.6,61.7,8.7,62,8.9,61.8z M9,60.9
		c-0.1,0.2-0.2,0.2-0.2,0.4C9.2,61.5,9.2,60.9,9,60.9z M8.9,64.2c0.2,0,0.2,0,0.3,0C9.1,64,8.9,64,8.9,64.2z M9,62.9 M9.3,60.4
		c0.1,0.4-0.3,0.2-0.2,0.4C9.2,61,9.8,60.5,9.3,60.4z M9.7,62.4c-0.2-0.2-0.4,0-0.4,0.4C9.5,62.7,9.7,62.6,9.7,62.4z M9.3,63.3
		c0,0.1,0,0.2,0,0.3C9.7,63.7,9.7,63.2,9.3,63.3z M9.9,59.9c-0.3-0.1-0.4,0.4-0.2,0.4C9.8,60.2,9.8,60.1,9.9,59.9z M9.8,63
		C9.8,63,9.8,62.9,9.8,63C9.6,63.1,9.8,63.2,9.8,63z M10,61.5 M10.5,62.4c0-0.2,0-0.2,0-0.4c-0.2,0-0.3,0.2-0.4,0.3
		C10.3,62.3,10.4,62.3,10.5,62.4z M10.5,59.4c0-0.1,0-0.2,0-0.3c0,0-0.1,0-0.2,0c0,0.1,0,0.2,0,0.3C10.4,59.4,10.5,59.4,10.5,59.4z
		 M10.7,61.3c-0.3-0.1-0.4,0.4-0.3,0.5C10.5,61.5,10.8,61.5,10.7,61.3z M10.7,60.8c0-0.1,0-0.2,0-0.3c-0.1,0-0.1,0-0.2,0
		c0,0.1,0,0.2,0,0.3C10.6,60.8,10.6,60.8,10.7,60.8z M10.9,58.6 M11.2,60.8c0.1-0.3,0.4-0.3,0.4-0.2c0.1-0.2,0.3-0.4,0-0.4
		c-0.1,0.3-0.2,0.1-0.4,0.1C11.2,60.3,11,60.7,11.2,60.8z M12.6,56.8c-0.3,0.4-0.8,0.7-1.1,1.3C12,57.7,12.6,57.2,12.6,56.8z
		 M12.1,60.2c0-0.1,0-0.3-0.1-0.3c0,0.2-0.2,0.2-0.2,0.3C11.9,60.2,12,60.2,12.1,60.2z M12.5,59.1 M13.3,58.3
		c-0.1,0.3-0.7,0.4-0.4,0.7C13.1,58.9,13.7,58.6,13.3,58.3z M13,56.7 M13.1,57.7 M13.3,56.5 M14.1,56.9 M15,57.1 M15.4,55.8
		C15.4,55.8,15.4,55.8,15.4,55.8c-0.1-0.1-0.1-0.1-0.2-0.1c0,0.1,0,0.1,0,0.1C15.3,55.8,15.3,55.8,15.4,55.8z M15.8,56.6
		c-0.1-0.3,0.3-0.2,0.4-0.4C16.3,56.3,16,56.6,15.8,56.6z M16.3,95.9c-0.2,0.1-0.3,0.2-0.4,0.4C16.2,96.4,16.3,96.2,16.3,95.9z
		 M16.1,94.7c-0.1,0.2-0.3,0.3,0,0.4C16.1,94.9,16.3,94.8,16.1,94.7z M16.2,55.3 M16.9,95.7c-0.4,0-0.4,0.1-0.5,0.4
		C16.8,96.1,16.9,95.9,16.9,95.7z M16.6,96.6 M17.3,94c-0.3,0-0.4,0.3-0.4,0.4C17,94.3,17.3,94.3,17.3,94z M17.6,95.3
		c-0.3,0-0.6,0-0.5,0.4C17.2,95.6,17.6,95.6,17.6,95.3z M17.4,96.3c0-0.2,0-0.3-0.2-0.3C17.2,96.2,17.2,96.4,17.4,96.3
		C17.3,96.3,17.3,96.2,17.4,96.3z M17.4,94 M18.6,92.8c-0.4,0.4-0.8,0.4-1,0.9C18.1,93.5,18.5,93.2,18.6,92.8z M17.8,96.9
		 M18.9,94.1c-0.5,0-1.3,0.9-0.7,0.8C18.1,94.6,18.9,94.6,18.9,94.1z M18.7,96.6c0-0.2-0.1-0.2-0.3-0.2c0,0.1,0,0.2,0,0.2
		C18.6,96.6,18.6,96.6,18.7,96.6z M19.2,94.4c-0.3,0-0.3,0.2-0.3,0.4C19.2,94.9,19.2,94.6,19.2,94.4z M19.3,93.9
		c0.3-0.1,1-0.7,0.6-0.8c-0.2,0.3-0.4,0.4-0.6,0.2C19.3,93.5,19.3,93.7,19.3,93.9z M19.5,91.6 M19.5,96.3 M19.9,93.9 M20,91.2
		c0.2,0,0.4-0.1,0.4-0.4c0.4,0-0.1-0.4,0,0C20.2,90.8,20,91,20,91.2z M20.9,92.2c0.1,0,0.1,0,0.2,0c0-0.2,0.2-0.2,0.1-0.4
		c-0.4,0.1-0.9,0.3-1,0.7c0.3,0,0.4-0.3,0.5-0.4C20.8,92.3,20.9,92.2,20.9,92.2z M20.2,95.5 M21.3,92.2c-0.2,0.5-1.4,0.7-0.9,1.3
		C20.4,93,21.5,92.9,21.3,92.2z M20.9,92.1L20.9,92.1c-0.1,0.1-0.1,0.1-0.2,0.1C20.8,92.1,20.8,92.1,20.9,92.1z M21.1,93.7
		 M21.3,91.6 M21.5,91.4c0,0,0-0.1,0-0.2c-0.1,0-0.1,0-0.1,0C21.4,91.3,21.4,91.4,21.5,91.4C21.4,91.4,21.4,91.4,21.5,91.4z
		 M22,91.4c0,0.2-0.2,0.3-0.1,0.4C22.1,91.8,22.1,91.4,22,91.4z M21.9,90.5c0,0.1,0,0.2,0,0.3C22.1,90.9,22.1,90.4,21.9,90.5z
		 M22.1,93.4 M22.2,91.2 M22.3,89.9 M22.8,90.1c-0.2,0.3-0.2,0.5-0.4,0.8C22.8,91,23,90.4,22.8,90.1z M22.6,89.3
		c0.1,0.2-0.1,0.3-0.1,0.4C22.8,89.8,22.9,89.3,22.6,89.3z M34.5,57.1c-0.9,1.9-0.8,4.5-1.9,6.3c-0.7,4-2.5,7.9-3.5,11.8
		c-0.7,0.6-0.6,1.9-1.3,2.6c0,0.3,0,0.5,0,0.7c-0.5,0.5-0.7,1.2-0.8,2c-0.3,0.1-0.4,0.3-0.4,0.4c-0.1,1.4-1.3,2.3-1.3,3.5
		c-1,0.6-1.1,2-1.8,2.8c0.3,0.1,0.3,0.2,0.2,0.3c-0.4-0.1-0.8,1.3-0.6,1.4c1.1-1.4,1.7-3.3,2.9-4.5c-0.2-0.2,0-0.4,0-0.8
		c0.2-0.1,0.4,0.3,0.4-0.1c0.4-1.5,1-2.9,1.7-4c-0.1,0-0.2-0.2-0.2-0.4c0.3,0,0.1-0.4,0.4-0.4c1-2.7,1.9-5,2.9-7.6
		c0.1-1.2,0.4-2.3,1-3.3c0.4-2.4,1.3-4.8,2.1-7.5c-0.3-0.5,0.1-1.3,0.3-1.7c0.6-3.6,1.3-5.7,2.1-9.2c-0.1-1.4,0.8-2.6,0.5-3.8
		c-0.1,0.6-0.2,0.7-0.4,1.1C36.1,50.3,35,53.4,34.5,57.1z M23.4,90.1c0-0.2,0-0.3,0-0.4c-0.1,0-0.2,0-0.2,0c0,0.1,0,0.2,0,0.4
		C23.2,90.1,23.3,90.1,23.4,90.1z M23.5,88.9c0,0.4-0.2,0.4-0.2,0.5C23.6,89.9,24,89,23.5,88.9z M24.2,88.2
		c-0.3-0.2-0.4,0.4-0.2,0.4C24,88.5,24.3,88.6,24.2,88.2z M24.2,89c0,0.2,0,0.3,0,0.3C24.5,89.5,24.5,88.9,24.2,89z M25.1,87.3
		c-0.5-0.3,0.2-0.5,0.1-0.9c-0.4,0.4-1.2,1.3-0.9,1.6C24.7,87.8,24.6,87.3,25.1,87.3z M24.7,89.7c0.1,0.3-0.4,0.4,0,0.5
		C24.7,90,25.3,89.7,24.7,89.7z M24.8,88.3 M25.7,85.6c-0.3,0.1-0.5,0.4-0.4,0.4C25.6,86.1,25.7,86,25.7,85.6z M25.6,89.3
		c0-0.1,0-0.2,0-0.3c-0.1,0-0.2,0-0.3,0c0,0.1,0,0.2,0,0.3C25.5,89.3,25.6,89.3,25.6,89.3z M27.1,82.3c-0.4,1.2-1,2.2-1.4,3.2
		c0.4,0,0.3-0.4,0.6-0.4c0-0.8,0.5-1.7,1-2.3C27.2,82.8,27.3,82.4,27.1,82.3h0.2c0.2-0.1,0.6-0.7,0.4-1.1C27.6,81.7,27,82,27.1,82.3
		L27.1,82.3z M26.3,86c-0.3,0-0.4,0.4-0.3,0.5C26,86.2,26.3,86.1,26.3,86z M26.3,85.4c-0.2,0.3,0.4,0.3,0.4,0.1
		C26.5,85.5,26.5,85.4,26.3,85.4z M26.7,84.9c0.1-0.1,0.4-0.1,0.3-0.4c0.2-0.1,0.4-0.4,0.1-0.4c0,0.2-0.2,0.2-0.1,0.4
		C26.7,84.4,26.6,84.8,26.7,84.9z M27,85.7c0.3,0.1,0.2-0.3,0.3-0.4c0.4-0.3,0.4-0.7,0.6-1.2c-0.4,0.2-0.5,0.7-0.6,1.2
		C27.1,85.4,26.9,85.4,27,85.7z M27.9,26.9c0,0.4-0.5-0.1-0.4,0.4C27.7,27.4,28.2,27.2,27.9,26.9z M28.2,83.4
		c-0.3,0-0.3,0.2-0.3,0.4C28.2,83.8,28.2,83.6,28.2,83.4z M28.5,78.9c0,0.7-0.9,1.3-0.5,1.9C28.2,80.2,29,79.3,28.5,78.9z
		 M28.4,81.5c-0.4,0.1-0.4,0.3-0.4,0.6C28.3,82.1,28.2,81.6,28.4,81.5z M28.2,83.1c0.4,0,0.6-0.8,0.4-0.9c0,0.2-0.1,0.3-0.3,0.2
		C28.4,82.7,28.3,82.8,28.2,83.1z M28.5,80.8c-0.1,0.2-0.3,0.4,0,0.4C28.5,81,28.7,80.9,28.5,80.8z M28.4,26.8L28.4,26.8L28.4,26.8z
		 M28.4,84.3 M28.7,78.6c0.4,0.1,0.4-0.4,0.4-0.7c0.3-0.4,0.7-1.2,0.8-1.6c-0.5,0.4-0.7,0.9-0.8,1.6C28.9,78.1,28.8,78.3,28.7,78.6z
		 M29.1,80.5c-0.1,0.4-0.3,0.6-0.3,1.1C29.1,81.5,29.3,80.8,29.1,80.5z M29.1,26.6 M29.9,79.3c-0.2,0.4-0.5,0.6-0.5,1.1
		C29.9,80.3,30,79.5,29.9,79.3z M29.4,26.5c0.1,0,0.2,0,0.2-0.1C29.5,26.4,29.4,26.4,29.4,26.5z M29.9,77.5c0,0.2-0.3,0.3-0.3,0.5
		C29.9,78.2,30,77.6,29.9,77.5z M29.9,78.4C29.9,78.3,29.9,78.3,29.9,78.4c-0.1-0.1-0.2-0.1-0.3-0.1c0,0,0,0,0,0.1
		C29.7,78.4,29.8,78.4,29.9,78.4z M30.3,75.3c-0.4,0-0.4,0.5-0.6,0.8C30.2,76.2,30,75.5,30.3,75.3z M30.3,26.4
		c-0.2-0.2-0.5-0.2-0.4,0.2C30,26.5,30.1,26.5,30.3,26.4z M30.4,78.3c-0.4,0-0.4,0.6-0.5,0.7C30.2,79.1,30.2,78.6,30.4,78.3z
		 M30,74.3 M30.3,79.8 M30.5,73.7c0,0.2-0.2,0.4-0.1,0.7C30.6,74.5,30.7,73.8,30.5,73.7z M30.4,74.7C30.5,74.7,30.5,74.7,30.4,74.7
		C30.5,74.6,30.4,74.6,30.4,74.7z M30.4,75.2C30.5,75.2,30.5,75.2,30.4,75.2C30.5,75.1,30.4,75.1,30.4,75.2z M30.5,77.3
		c0,0.2-0.1,0.4-0.1,0.5C30.7,78,30.9,77.4,30.5,77.3z M30.6,75.7C30.6,75.7,30.6,75.7,30.6,75.7L30.6,75.7
		C30.5,75.7,30.5,75.7,30.6,75.7L30.6,75.7z M31.2,72.4c-0.1,0-0.1-0.1-0.3-0.1c-0.2,0.3-0.2,0.6-0.4,0.9C31,73.1,31,72.6,31.2,72.4
		z M31.3,76.1c-0.6,0-0.5,0.7-0.7,1.1C31,77,31.1,76.4,31.3,76.1z M30.9,75.1c-0.1,0.1-0.4,0.4,0,0.5C30.9,75.5,31.1,75.1,30.9,75.1
		z M30.9,79 M31.2,72.2c-0.1-0.2,0-0.4-0.2-0.4c0,0.1,0,0.2,0,0.3C31.1,72.1,31.1,72.2,31.2,72.2z M31.3,73.8c0-0.2,0-0.4-0.2-0.3
		c0,0,0,0.1,0,0.2C31.2,73.8,31.2,73.8,31.3,73.8z M32,26.2c0-0.1,0-0.3,0-0.4c-0.3,0.1-0.6,0.2-0.7,0.4
		C31.7,26.2,31.7,26.3,32,26.2z M31.5,75c-0.1,0.1-0.3,0.4,0,0.5C31.6,75.3,31.7,75,31.5,75z M31.4,70.6c0.1,0.2-0.2,0.6,0.1,0.7
		C31.7,71.2,31.8,70.6,31.4,70.6z M31.4,72.9 M31.9,76.4c0.1-0.4-0.5-0.2-0.4,0.1C31.7,76.5,31.7,76.4,31.9,76.4z M31.7,74.7
		c0-0.2,0-0.3-0.2-0.3c0,0.1,0,0.2-0.1,0.3C31.6,74.7,31.7,74.7,31.7,74.7z M31.8,70.5c0-0.1,0-0.2,0-0.3c-0.1,0-0.1,0-0.3,0
		C31.6,70.3,31.7,70.4,31.8,70.5C31.7,70.5,31.7,70.5,31.8,70.5z M31.7,72.1 M31.9,74.2c0-0.2,0-0.3,0-0.4c-0.1,0-0.1,0-0.2,0
		c0,0.1,0,0.2,0,0.4C31.8,74.2,31.8,74.2,31.9,74.2z M31.8,69.5c0,0.2,0,0.4,0.2,0.4C32,69.7,31.9,69.6,31.8,69.5z M32,68.9
		c0.1,0.2-0.1,0.3-0.1,0.4C32.3,69.4,32.4,68.9,32,68.9z M31.9,71.3 M32,75.6c-0.1,0.1-0.1,0.3,0.2,0.4C32.3,75.7,32.3,75.6,32,75.6
		z M32.4,72.3c-0.3,0.2-0.4,0.9-0.4,1.1C32.4,73.3,32.4,72.5,32.4,72.3z M32.2,68.5c0,0.1,0,0.2,0,0.2
		C32.4,68.8,32.4,68.3,32.2,68.5z M32.2,70.9c0,0,0.2,0,0.2-0.1C32.3,70.8,32.2,70.8,32.2,70.9z M33.7,25.6c0.2,0.5,0.6,0.1,1-0.2
		c0.3,0,0.7,0.4,1,0c-0.2,0-0.1-0.4-0.4-0.4c-0.8,0.4-2.2,0.6-3.1,0.8C32.5,26.1,33.5,26,33.7,25.6z M32.4,67.6
		c0.1,0.4-0.1,0.4-0.1,0.6C32.5,68.6,32.8,67.7,32.4,67.6z M32.3,75.2 M33.5,65c-0.1,0-0.2,0-0.3,0c-0.2,1-0.5,1.4-0.8,2.4
		C33.2,66.9,33,65.9,33.5,65z M32.6,70.1c0-0.1-0.1-0.2-0.3-0.2c0,0.1,0,0.1,0,0.2C32.4,70.1,32.5,70.1,32.6,70.1z M32.7,72.1
		c0-0.2,0-0.4-0.1-0.4c-0.1,0.1-0.3,0.1-0.3,0.4C32.5,72.1,32.6,72.1,32.7,72.1z M32.4,73.8C32.4,73.8,32.5,73.9,32.4,73.8
		C32.5,73.8,32.4,73.8,32.4,73.8z M32.9,74.4c-0.2,0.1-0.3,0.4-0.5,0.3C32.5,74.5,32.7,74.2,32.9,74.4z M32.6,72.7
		c0,0.2-0.2,0.4,0.2,0.4C32.8,72.9,32.8,72.7,32.6,72.7z M32.8,71.2c0-0.1,0-0.3-0.2-0.3c0,0.1,0,0.2,0,0.3
		C32.7,71.2,32.7,71.2,32.8,71.2z M33.1,68.2c-0.2,0-0.3,0.2-0.4,0.4C32.9,68.6,33,68.5,33.1,68.2z M32.7,72.6
		c0.3,0.2,0.3-0.3,0.1-0.3c0,0.1,0,0.2-0.1,0.1C32.7,72.5,32.7,72.5,32.7,72.6z M33.2,70.4c-0.2,0-0.2-0.3-0.4-0.2
		c0,0.2,0,0.4,0,0.4C33,70.7,33.1,70.6,33.2,70.4z M33,67.7c0.2,0.2,0.3-0.3,0.1-0.3c-0.1,0-0.1,0.1-0.1,0.1
		C33,67.6,33,67.6,33,67.7z M33.1,69.3C33,69.6,33,69.6,33,70c0.1,0,0.2,0,0.3,0c0.1-0.1,0.1-0.5,0-0.7c0.2-0.1,0.4-0.4,0.4-0.6
		c-0.4,0-0.4,0.4-0.4,0.6C33.2,69.3,33.1,69.3,33.1,69.3z M33.4,71.1c0,0,0-0.1,0-0.2c-0.1,0-0.1,0-0.2,0c0,0.1,0,0.2,0,0.2
		C33.3,71.1,33.3,71.1,33.4,71.1z M33.3,67.2c0.1,0,0.2,0,0.2-0.1C33.4,67.1,33.3,67.1,33.3,67.2z M33.8,63.5
		c-0.4,0-0.6,1.1-0.4,1.3C33.6,64.3,33.7,64,33.8,63.5z M33.5,66.8 M33.8,68.5c-0.1-0.5,0.1-0.6,0.3-1c-0.6-0.1-0.4,0.7-0.6,1
		C33.6,68.5,33.7,68.5,33.8,68.5z M33.6,65.8c-0.2,0.3,0.3,0.4,0.2,0.1C33.7,65.9,33.7,65.8,33.6,65.8z M33.6,66.3 M33.9,63.2
		c0-0.2,0-0.3-0.2-0.3C33.7,63.1,33.7,63.3,33.9,63.2C33.8,63.2,33.8,63.1,33.9,63.2z M33.8,62.4c0.4,0.1,0.4-0.2,0.4-0.4
		c0.1,0.1,0.2,0.2,0.2,0.1c0-0.2,0-0.4-0.3-0.5c-0.1,0.3,0.1,0.3,0.1,0.4C33.9,62,34,62.4,33.8,62.4z M34.2,66.9
		c-0.3-0.1-0.4,0.1-0.4,0.4C34.1,67.3,34.4,67.1,34.2,66.9z M33.9,64.8c0,0-0.2,0.4,0,0.4C33.8,65,34.3,64.8,33.9,64.8z M34.4,63.9
		c-0.4,0-0.4,0.3-0.3,0.4C34.4,64.4,34.2,64,34.4,63.9z M34.4,66.3c0,0,0-0.1-0.2-0.1c-0.2,0.2-0.1,0.4,0.1,0.5
		C34.3,66.6,34.4,66.7,34.4,66.3z M34.7,60.7c-0.2,0-0.2-0.1-0.4-0.1c0.1,0.4-0.3,0.7,0,0.9C34.4,61.3,34.6,60.9,34.7,60.7z
		 M34.3,65.9c0,0.2,0,0.3,0,0.3C34.4,66.3,34.4,65.8,34.3,65.9z M34.5,65.7c0-0.2-0.2-0.2-0.2-0.3c0.4,0,0.5-0.5,0.4-0.6
		c-0.4,0-0.6,0.4-0.4,0.6C34.4,65.6,34.4,65.7,34.5,65.7z M34.7,59.8c-0.1,0.1-0.4,0.4-0.1,0.5C34.5,60.2,35,60,34.7,59.8z
		 M34.6,64.3c0,0.1,0.1,0.2,0.2,0.3c0.1-0.2,0.4-0.5,0.1-0.7C34.9,64.2,34.7,64.2,34.6,64.3C34.5,64.2,34.4,64.3,34.6,64.3z
		 M34.5,62.8 M34.8,66c0,0.1-0.2,0.2-0.2,0.4C35,66.7,35,66,34.8,66z M34.7,59.6 M34.7,63.8 M35.1,58.8c-0.4-0.1-0.4,0.4-0.1,0.4
		C35,59,35.1,59,35.1,58.8z M35.1,63.5c0.1-0.1,0.1-0.3,0.1-0.5h0.1c0.1-0.1,0.1-0.3,0.3-0.4c-0.2-0.1-0.5,0-0.5-0.3
		c0.1-0.1,0-0.1-0.1-0.1c0,0.2,0,0.4,0,0.7c0.1,0,0.2,0,0.3,0.1C35,63.1,34.7,63.5,35.1,63.5z M35.3,57.1c0.2,0,0.3,0,0.3,0
		c-0.2-0.4,0.4-1,0-1.3c-0.3,1-0.6,2-0.6,2.9C35.4,58.3,35.4,57.6,35.3,57.1z M35,61.5 M35,65c0.2,0.2,0.3-0.3,0.1-0.3
		c0,0,0,0.1-0.1,0C35,64.9,35,65,35,65z M35.2,59.7c0.1,0.4,0.2,0.6,0.4,0.6C35.6,59.9,35.6,59.7,35.2,59.7z M35.3,59 M35.7,61.3
		c0.1-0.3,0.1-0.4,0.3-0.7c-0.4-0.1-0.4,0.2-0.6,0.1C35.4,60.9,35.6,61,35.7,61.3z M35.6,55.4c0.1,0,0.2,0,0.2-0.1
		C35.7,55.3,35.6,55.3,35.6,55.4z M36.2,25.5c0.3,0,0.1-0.4,0.4-0.4c0.3,0.5,0.5-0.3,1,0c0-0.1,0-0.3,0-0.4
		c-0.6,0.4-1.6-0.1-1.9,0.6C36.1,25.2,36.1,25.4,36.2,25.5z M35.7,58.6 M36.2,58.2c0,0.4-0.6,1.3-0.1,1.4c0.2-0.4,0.1-1.3,0.4-1.9
		c-0.4,0-0.5,0.1-0.8,0.2C35.7,58.3,36.2,58,36.2,58.2z M35.8,55c0.3,0.2,0.4-0.4,0.2-0.3c-0.1,0.1-0.1,0.1-0.2,0.1
		C35.8,54.9,35.8,55,35.8,55z M35.8,59.9 M36.1,57.1c0.1,0.4-0.2,0.4-0.1,0.6C36.2,57.8,36.3,57.1,36.1,57.1z M36.1,53.7
		c0.1-0.1,0.1,0,0.1-0.2C36.2,53.6,36.1,53.6,36.1,53.7z M36.2,56.3c0.1,0.2-0.1,0.2,0,0.4C36.4,56.8,36.7,56.2,36.2,56.3z
		 M36.6,52.6c-0.1,0-0.2,0-0.4,0c0,0.3,0,0.4,0,0.6C36.6,53.2,36.4,52.8,36.6,52.6z M36.5,57.1c-0.2,0.2-0.2,0.5,0.1,0.5
		C36.8,57.6,36.8,57.1,36.5,57.1z M36.5,59.5c0,0.1-0.2,0.2,0,0.2C36.5,59.7,36.7,59.6,36.5,59.5z M36.6,51.9
		c0.2-0.1,0.2-0.3,0.2-0.5C36.4,51.3,36.6,51.8,36.6,51.9C36.2,51.9,36.7,52.3,36.6,51.9z M37,55.6c-0.1,0.4-0.7,1.1-0.3,1.4
		C36.9,56.9,37.1,56.2,37,55.6z M36.7,58.6 M36.8,50.6c-0.1,0.2-0.1,0.4,0.2,0.5C37,51,37.1,50.5,36.8,50.6z M37,49.1
		c0,0.2-0.1,0.6,0.1,0.6C37.1,49.4,37.4,49.1,37,49.1z M37,54.5c0.1,0.4-0.3,0.7,0,0.8C37.1,55.1,37.6,54.5,37,54.5z M37,44.4
		c0,0.3-0.1,0.4-0.1,0.4C37.1,44.9,37.5,44.4,37,44.4z M37,50.1C37,50.1,37,50.2,37,50.1C37,50,37,50,37,50.1z M37,53.8 M37,54.4
		c0.4,0.1,0.4-0.7,0.4-0.9c0.2,0-0.2-0.4,0,0C37,53.6,37,53.9,37,54.4z M37.4,55.8c-0.1,0.1-0.4,0.1-0.3,0.4
		C37.4,56.3,37.6,55.8,37.4,55.8z M37.2,53.1c0.4-0.1,0.5-0.5,0.6-1.1c-0.3,0-0.3,0.2-0.4,0.1C37.6,52.6,37.4,52.8,37.2,53.1z
		 M37.5,55.6c0.1-0.2,0.1-0.3-0.1-0.4c0,0.2-0.1,0.3-0.2,0.4C37.3,55.6,37.4,55.6,37.5,55.6z M37.7,54.6c-0.3-0.1-0.3,0.4-0.1,0.4
		C37.6,54.9,37.8,54.8,37.7,54.6z M37.6,41.6 M37.6,50.7 M37.9,51.2c-0.1,0-0.3,0-0.4,0c0,0.3,0,0.5,0.4,0.4
		C37.9,51.5,37.9,51.3,37.9,51.2z M37.7,53.4c0.1,0.4-0.2,0.9,0.2,1.1C37.7,54,38.2,53.6,37.7,53.4z M38.9,24.9
		c-0.1-0.1,0.3-0.4,0-0.4c-0.3,0.3-1.1-0.1-1.1,0.4C38.2,24.9,38.7,24.6,38.9,24.9z M37.9,45.4c0,0,0.2,0,0.2-0.1
		C37.9,45.3,37.9,45.3,37.9,45.4z M37.9,50.1c0,0.4,0.2,0.4,0.4,0.4C38.3,50.2,38.1,50.2,37.9,50.1z M38,50.9 M38.2,52.8
		c0-0.2,0-0.2-0.2-0.2C38,52.7,38,52.8,38.2,52.8C38.1,52.8,38.1,52.7,38.2,52.8z M38.4,51.9c0-0.1,0-0.2,0-0.3c-0.1,0-0.2,0-0.2,0
		c0,0.1,0,0.2,0,0.3C38.2,51.9,38.3,51.9,38.4,51.9z M38.3,52.4 M38.7,48.7C38.7,48.7,38.7,48.7,38.7,48.7c0-0.1-0.1-0.1-0.2-0.1
		c0,0.1,0,0.1,0,0.1C38.6,48.7,38.7,48.7,38.7,48.7z M38.6,46.7c-0.2,0.1-0.1,0.4,0.3,0.4C38.8,46.8,38.8,46.7,38.6,46.7z
		 M38.6,47.5 M38.9,50c-0.1,0-0.1-0.1-0.3,0c0,0-0.1,0.1-0.1,0.3C38.8,50.3,38.9,50.2,38.9,50z M39,47.5 M39.5,48.1
		c0-0.1,0-0.2,0-0.3c0,0,0,0-0.1,0C39.4,47.9,39.4,48,39.5,48.1C39.5,48.1,39.5,48.1,39.5,48.1z M39.5,41.6 M40,44.4
		c-0.2,0.1-0.4,0.1-0.4,0.4C39.8,44.8,40,44.7,40,44.4z M44.1,23.9c-0.2-0.4-0.4,0.3,0,0.2C44.1,24,44.1,23.9,44.1,23.9z M44.7,24
		c-0.1,0.2,0.1,0.2,0.3,0.2c0-0.4,0.5,0,0.6-0.4c-0.2-0.1-0.4,0.1-0.6-0.1C44.9,23.8,44.9,24.1,44.7,24C44.8,24,44.7,24,44.7,24z
		 M46.1,24.1c0.1-0.3,0.6-0.4,0.5,0.1c0.4,0,0.5-0.2,0.9-0.1c0-0.4-0.4-0.4-0.4-0.5c-0.3,0.2,0.1,0.4-0.1,0.4
		c-0.3-0.4-1.1-0.5-1.3-0.1C45.9,23.8,45.9,24.1,46.1,24.1z M47.3,25c0.1,0,0.3,0,0.3-0.1C47.5,24.9,47.3,24.9,47.3,25z M48.1,23.9
		c0.1-0.3-0.1-0.3-0.1-0.4c-0.1,0-0.5-0.2-0.5,0c0.2,0.2,0.4,0.3,0.4,0.5c0.3-0.1,0.5-0.1,0.8,0.1c-0.1-0.3,0-0.4,0.3-0.4
		c0.1,0.4,0.8-0.2,0.8,0.4c0.2-0.2,0.4-0.4,0.5-0.6c-0.7,0.1-1.3,0.2-2.1,0.1C48.3,23.8,48.4,23.8,48.1,23.9z M47.9,25.1
		C47.9,25.1,48,25.1,47.9,25.1C47.9,25,47.9,25,47.9,25.1z M48.8,25 M50.8,23.8c-0.3,0-0.4,0-0.4,0.3C50.4,24.2,50.9,24.2,50.8,23.8
		z M50.7,23.6c0,0-0.1-0.2-0.3-0.1C50.4,23.6,50.4,23.7,50.7,23.6C50.6,23.7,50.6,23.6,50.7,23.6z M50.4,25c0.1,0,0.1,0.2,0.4,0.1
		C51,24.8,50.4,24.8,50.4,25z M51.4,23.6c-0.2,0-0.4,0-0.5,0c0.2,0.2,0.4,0.4,0.8,0.5C51.8,23.8,51.4,23.8,51.4,23.6z M51,24.9
		c0.1,0.4,1.1,0.4,1.2,0C51.8,24.9,51.3,24.9,51,24.9z M51.8,23.7c0,0.5,0.4,0.4,0.5,0.1C52.2,23.7,51.9,23.7,51.8,23.7z M52.6,24.9
		c-0.1,0-0.2,0-0.2,0c0,0.1-0.1,0.1-0.1,0.2C52.4,25.1,52.6,25.1,52.6,24.9z M54,24.2c-0.1-0.4,0.3,0,0.4,0c0.2-0.1,0-0.3,0-0.5
		c-0.5,0.2-1.1,0-1.7-0.1c-0.1,0.1-0.2,0.3-0.2,0.5C53,24,53.4,24.1,54,24.2z M54.9,25.1c-0.6,0.2-1.4-0.4-1.7,0.1
		C54.1,24.8,54.4,25.8,54.9,25.1z M55.9,24.5c0.1-0.3-0.2-0.3-0.1-0.5c-0.4,0-0.6-0.3-0.9,0C54.9,24.7,55.4,24.2,55.9,24.5z
		 M55,25.2 M55.4,25.4c0.2-0.1,0.2,0.1,0.4,0.1C55.9,25.2,55.4,25.2,55.4,25.4z M56,23.8c-0.2,0.3,0.1,0.4,0,0.6
		C56.3,24.5,56.3,23.8,56,23.8z M57.5,24.7c0.1-0.2,0.5,0.1,0.4-0.3c-0.8-0.1-1.2-0.6-1.6-0.2C56.9,24.5,57.2,24.3,57.5,24.7z
		 M56.3,25.5c0.3,0,0.8,0.5,0.9,0c-0.4,0.2-0.4-0.1-0.6-0.4c0,0.1,0,0.2,0,0.3C56.5,25.4,56.3,25.3,56.3,25.5z M57.7,25.6
		c0.1-0.2-0.4-0.2-0.3-0.1c0.1,0,0.1,0,0.1,0.1C57.5,25.6,57.6,25.6,57.7,25.6z M58.2,25.9c0-0.2,0-0.4-0.2-0.4c0,0.1,0,0.2,0,0.3
		C58.1,25.8,58.1,25.9,58.2,25.9z M58.1,24.6 M58.8,24.7c-0.1,0-0.1-0.1-0.4-0.1c0,0.1,0,0.2,0,0.3C58.7,24.8,58.8,24.8,58.8,24.7z
		 M58.4,25.8c0.2,0.4,0.6,0.3,1,0.2C59.1,25.8,58.8,25.7,58.4,25.8z M58.9,24.5c0,0.2,0,0.4,0.3,0.3C59.1,24.6,59,24.5,58.9,24.5z
		 M59.2,24.8 M59.6,26.1c0.2,0.4,1.1,0.6,1.4,0.5C60.9,26.2,60,26.4,59.6,26.1z M60.1,25c-0.3-0.1-0.4-0.3-0.4,0
		C59.7,25,60,25.3,60.1,25z M60.1,25.2c0.2,0,0.2,0.2,0.4,0.2C60.7,25,60.1,25,60.1,25.2z M60.7,25.5 M61.1,26.8 M61.2,25.5
		c-0.1,0.2,0.2,0.5,0.4,0.2C61.4,25.6,61.4,25.5,61.2,25.5z M61.8,26.8c-0.2,0-0.2-0.3-0.4,0C61.4,27,61.9,27,61.8,26.8z"/>
	<path class="st0" d="M69.4,59c0.4,0.1,0.8-0.1,1.1,0.2c-0.2,0.6,0.1,0.9,0.3,1.3c-1.3,0.7-2.4,1.5-3.8,2.2c-0.1-0.3,0-0.3-0.1-0.6
		c-0.2,0.3-0.4,0.4-0.6,0c-0.3,0.1-0.3,0.4-0.4,0.6c0,0.1,0.2,0.1,0.2,0.2c0.4,0.2,0.3-0.2,0.3-0.4c0.9,0.4-0.4,0.5-0.5,1.1
		c-0.4,0-0.2-0.4-0.5-0.3c-0.5,0.1,0,0.8-0.3,0.9c-0.4,0.1-0.2-0.6-0.1-0.6c-0.5,0.2-0.7,0.6-1.2,0.9c-0.4,0.1-0.2-0.3-0.4-0.3
		c-0.2,0-0.2,0.3-0.2,0.5c-0.4,0.1-0.2-0.4-0.4-0.4c-0.3,0-0.4,0.4-0.7,0.1c-0.4,0.2,0.3,0.3,0.2,0.5c-0.4-0.3-0.6,0.2-1.2-0.2
		c-0.1,0.4,0.6,0.1,0.5,0.5c-0.4,0-0.4,0.1-0.7,0c0-0.2,0-0.3,0-0.4c-0.5,0.1-0.5,0.1-1,0.1c-0.1,0.4-0.1,0.4-0.4,0.1
		c-0.3,0.3,0.3,0.3,0.1,0.7c-1.5,0.4-5.4,0.3-5.5,2.4c-2.1,2.8-3.3,6.7-7.6,6.8c-6-1.3-5.1-10.7-1.4-13.7c0-0.4,0.1-0.8-0.1-1.2
		c0.6-6.5,8.6-5.7,11.4-1.7c0.8,1.7,0.7,3.6-0.2,5.2C60.7,62.6,65.5,60.9,69.4,59z M44.9,72.2c3.2-0.5,4.4-3.1,5.8-5.4
		c-2-0.3-3.2-1.3-4.6-2.2C45.3,66.7,43.7,69.4,44.9,72.2z M48.7,61.7c-0.5,0.4-1.2,1.1-1.2,1.8c1.2,0.6,3.2,0.8,4.7,0.6
		c0.8-2.2,2.3-5.2,0.2-6.9C50.8,58.4,48,59,48.7,61.7z M54.5,63.8 M54.9,60 M56.1,65.8c-0.2,0.3,0.4,0.3,0.3,0.1
		C56.3,65.9,56.3,65.7,56.1,65.8z M57.1,64.8 M57.1,65.7 M57.2,65.5c0.2,0.2,0.4,0.4,0.5,0C57.7,65.5,57.2,65.3,57.2,65.5z
		 M57.3,64.3c-0.2,0.4,0.5,0.6,0.5,0.3C57.7,64.5,57.7,64.2,57.3,64.3z M57.9,65.5 M58.4,65.5C58.4,65.4,58.3,65.6,58.4,65.5
		C58.5,65.7,58.6,65.5,58.4,65.5z M58.9,64.4c0.1,0,0.3,0,0.4,0c0-0.3-0.2-0.4-0.4-0.3C58.9,64.2,58.9,64.2,58.9,64.4
		C58.3,64.2,58.9,64.9,58.9,64.4z M58.8,65.3 M58.9,64.4C58.9,64.4,58.9,64.4,58.9,64.4C58.9,64.3,58.9,64.3,58.9,64.4z M61,64.1
		c-0.6-0.4-1,0-1.6-0.2C59.4,64.7,60.7,64.3,61,64.1z M64.3,63.3c-0.6-0.1-1.3,0-1.8-0.3c0.1,0.5-0.8,0.2-0.9,0.6
		C62.5,63.4,63.4,63.7,64.3,63.3z M64.6,63c0-0.3-0.2-0.3-0.4-0.3c0,0.1,0,0.2,0,0.3C64.3,63,64.4,63,64.6,63z M65.3,62.8
		c-0.2,0-0.2-0.2-0.4-0.2c0,0.2-0.1,0.2-0.1,0.4C65.1,63.1,65.3,63.1,65.3,62.8z M65.7,62.2c-0.6-0.1-0.5,0.5-0.2,0.5
		C65.4,62.4,65.7,62.4,65.7,62.2z M67.1,62 M68.4,61.4"/>
	<path class="st0" d="M78.8,69.6c-0.5,0.3-1.1,0.5-1.5,0.9C77.7,70.6,78.5,70.2,78.8,69.6c1.6-0.3,2.7-1.3,3.9-2.2
		c1.3-0.4,2.2-1.6,3.7-2.1c1.6-1.4,3.3-2.2,5.3-3.4c-0.1,0.4-0.4,0.4-0.3,0.9c-1.3,0.2-2.3,1.1-2.8,1.8c-3.4,1.6-6.8,4.2-10.2,6.3
		c-0.2,0-0.3,0-0.3,0.2c0.2,0,0.3,0,0.3-0.2c1.4-0.8,3.2-1.5,4-2.3c1.9-0.9,4-2.6,6.2-3.9c0.6,0.1,0.5-0.5,1.1-0.4
		c0.1,0.4-0.3,0.3-0.2,0.6c-0.4,0-0.9,0-0.9,0.4c-0.1,0-0.1,0.1-0.1,0.1c-0.2,0.1-0.3,0.2-0.4,0.3c0,0.2,0.1,0.4,0.4,0.3
		c-0.1,0.4-0.3,0.2-0.5,0.2c0.1,0.4-0.1,0.6-0.4,0.9c-0.3,0-0.4-0.1-0.4-0.4c0-0.3,0.2-0.3,0.4-0.3c-0.8-0.4-1.2,1.3-2.2,1.4
		c0.1,0.3,0.4,0.3,0.2,0.6c-0.3,0-0.6,0.1-0.5-0.4c-0.2,0-0.1,0.4-0.4,0.3c-0.1,0.4,0.5,0,0.4,0.4c-0.4,0.3-0.4-0.3-0.9-0.2
		c-0.2,0.4,0.3,0.3,0.2,0.5c-0.4,0.1-0.3-0.3-0.6-0.2c-0.2,0.4,0.4,0.1,0.3,0.4c-0.8,0.7-2.3,2-3.9,2.8c-0.2,0-0.1,0.3-0.1,0.4
		c-0.6,0-0.9,0.4-1,0.9C74.4,76.8,66,78,64.2,71.2c-0.1-1.7,0.1-2.4,0.4-4.2c1.5-3.8,1.9-8.1,5.1-10.5c1.7,0.2,2.6,1.3,3,2.9
		c-0.3,0.1-0.5,0.2-0.9,0.2c-1.8,3.1-3.4,7-3.9,10.6c-0.6,0.8-0.4,1.8-0.3,3.1c3.1,0.4,7.4-1.6,10.1-3.1c0-0.2-0.2-0.3-0.1-0.4
		c0.5-0.1,0.4-0.3,1.1-0.1C78.8,69.5,78.8,69.5,78.8,69.6z M74.9,47.1c-1.3-0.4-2.4-0.9-2.7-2.3c1.3-0.9,2.2-2.8,4.3-2.5
		C77.6,44.2,76.9,46.5,74.9,47.1z M77.9,71.2c-0.3,0-0.4,0.2-0.4,0.4C77.8,71.5,78,71.4,77.9,71.2z M78.2,69.6 M78.8,69.4
		 M79.3,68.8c0.1,0.2-0.4,0.4,0,0.4C79.1,69.5,79,69,79,68.8C79,68.8,79.2,68.8,79.3,68.8z M92.4,61.8c0.1,0,0.2,0,0.3,0
		c0-0.2-0.1-0.3-0.3-0.3c0.3-0.4,0.7-0.5,0.9-1.1c-3.9,1.8-7.3,4.8-11,6.5c-0.3,0.1,0.3,0.2,0.3,0.4c-1.3,0.4-1.8,1.4-3.1,1.7
		c0-0.1,0-0.2-0.1-0.2c4.9-3.5,9.9-6.9,15.6-9.5c-0.1,0.3-0.6,0.3-0.7,0.5c0.2,0.4,0.4-0.3,0.7-0.1c-1,0.9-1.6,2.2-3.1,2.6
		c0-0.2,0.2-0.2,0.1-0.4C92.2,62,92.4,62,92.4,61.8z M79.5,69 M79.6,68.8 M82.6,67.4C82.5,67.4,82.5,67.4,82.6,67.4
		C82.6,67.3,82.6,67.3,82.6,67.4z M82.7,67.5C82.6,67.5,82.6,67.5,82.7,67.5C82.7,67.4,82.7,67.4,82.7,67.5z M83.1,69.6 M84.6,67.6
		 M85.8,67.9c0.1-0.3,0.4-0.3,0.5-0.6C86.9,67.5,86.1,68.2,85.8,67.9z M87.1,67.2c-0.2,0.3-0.3,0.1-0.5,0
		C86.7,66.9,87.1,67.1,87.1,67.2z M86.9,66.9 M87.8,65.8 M88.9,65.3c0,0.1,0,0.3,0,0.4c-0.2,0-0.4,0-0.4-0.3c0.1,0,0.1,0,0.1-0.1
		C88.7,65.3,88.8,65.3,88.9,65.3z M89.5,65.1 M90,64.2c-0.1,0.1-0.1,0.1-0.3,0.1C89.7,64.2,89.8,64.2,90,64.2z M91.2,63.5
		c-0.3,0.4-0.7,0.5-1.2,0.6C90.1,63.7,90.5,63.5,91.2,63.5z M91.3,63.4c0-0.3,0.2-0.3,0.4-0.3C91.6,63.3,91.4,63.3,91.3,63.4z
		 M92,62c-0.1,0-0.2,0-0.3,0c0.1-0.3,0.4-0.3,0.5-0.4c0,0.2,0.2,0.1,0.2,0.3C92.2,61.8,92.1,61.8,92,62z M93.1,61.4 M93.9,60.2
		c-0.2,0-0.4,0-0.4,0.3C93.6,60.5,93.9,60.5,93.9,60.2z"/>
	<path class="st0" d="M103.7,55.3c0.9-0.1,1.3,0.3,1.9,0.5c0,0.1-0.2,0.1-0.3,0.1c0.8,0.8,1.9,2,1.3,3.2c0.1,0.3,0.4-0.4,0.7,0
		c0,0.4-0.3,0.4-0.2,0.9c-0.2,0.1-0.3-0.1-0.6,0.1c0.4,0.2,0.2,1,0.4,0.6c0.4,0.4-0.4,0.7-0.4,1c0.3,0,0.3-0.2,0.5-0.1
		c-0.7,0.7-0.4,1.8-1.2,2.7c0,0.1,0.3,0.1,0.4,0.1c-1,2.4-0.4,4.8,0.4,6.5c-0.4,0.5-0.8,0.1-1.3,0.2c-4.1-3.1-1-8.9-1.7-13.9
		c-1.4,0.9-2,2.6-3.3,3.5c-1,2-2.2,3.9-3.6,5.6c-1.7,2.8-2.8,6.6-6.6,7c-2.7-1.2-2-5.3-0.8-7.6c0.5-2.8,1.6-5.1,2.5-7.5
		c1.2,0.1,2.8,0.1,3.6,1.3c-0.4,1.3-1.2,2.3-1.5,3.7c1.1-0.7,1.4-2.2,2.5-3c1.7-2.3,3-6,6.7-5.3C103.6,54.9,103.7,55,103.7,55.3z
		 M95.7,63.5 M96.1,62.7c-0.1,0.2,0.2,0.2,0.1,0.5C96.7,63.2,96.3,62.8,96.1,62.7z M100.6,57.7c0-0.1-0.1-0.1-0.1-0.2
		c0-0.3,0.4-0.3,0.6-0.4c0-0.3,0.4-0.7,0.1-0.9c-0.1,0.3-0.2-0.2-0.4,0c-0.4,0.8-1.2,1-2,1.2c-0.1,0.4,0.3,0.2,0.3,0.4
		c-0.2,0-0.4,0.2-0.4,0.4c-0.5-0.1-0.6,0.4-0.8,0.7c0.4-0.2,1.1-0.2,0.8,0.3c-0.3-0.3-0.5-0.1-1.1-0.1c0,0.3,0.1,0.7-0.3,0.5
		c-0.1,0.5,0.4,0.4,0.5,0.7c-0.3,0.1-0.3-0.2-0.5-0.1c-0.1,0.3-0.3,0.4-0.4,0.6c0.6,0.3,0.3-0.4,0.8-0.3c-0.2,0.3-0.2,0.6-0.4,0.7
		c0-0.2-0.4-0.1-0.4-0.2c-0.1,0.3,0.2,0.7,0,0.7c-0.2-0.1-0.4-0.4-0.5,0c0.6,0.2,0.3,0.4,0.1,0.9c1.2-0.1,0.6-1.7,2.1-1.5
		c0.1-0.3,0.3-0.5,0.6-0.5c-0.2-0.6,0.6-0.9,1.1-1.2c0.3-1.7,2.1-2.4,2.4-3.7c-0.4-0.1-0.3,0.2-0.4,0.2c0-0.1,0-0.2,0-0.3
		c-0.4,0.2-0.4-0.2-0.5,0.2c0.1,0.1,0.3,0.2,0.5,0.1C101.5,56.5,101.4,57.5,100.6,57.7z M96.7,60.6 M97.9,60c0-0.4,0.2-0.5,0.5-0.4
		C98.3,59.8,98.3,60,97.9,60z M98,61.1c-0.1-0.4,0.4-0.4,0.4-0.8C98.8,60.3,98.3,61.1,98,61.1z M99.6,57.9c-0.3,0-0.4,0.2-0.4,0.5
		c-0.3,0-0.2-0.3-0.5-0.2C98.4,59,99.8,58.6,99.6,57.9z M98.9,60.1c0,0.1,0,0.1,0,0.2c-0.1,0-0.2,0-0.3,0c0-0.1,0-0.1,0-0.2
		C98.7,60.1,98.8,60.1,98.9,60.1z M99.1,59.3c0.3-0.1,0.3-0.5,0.6-0.5C99.8,59.2,99.2,59.5,99.1,59.3z M99.9,58.6
		c0.1-0.4,0.3-0.7,0.7-0.7C100.2,58,100.1,58.4,99.9,58.6z M101,58.1 M101.3,56 M101.8,55.7c0-0.3-0.1-0.3-0.3-0.3
		c0,0.1,0,0.2,0,0.3C101.6,55.7,101.7,55.7,101.8,55.7z M102.7,55.7 M104.9,65.4c-0.3,0-0.6,0.1-0.5,0.5
		C104.7,65.9,104.8,65.7,104.9,65.4z M104.5,66.1c0,0.2-0.1,0.3-0.1,0.4C104.6,66.6,104.8,66.1,104.5,66.1z M104.8,63.9
		c0,0.2-0.2,0.2-0.1,0.4C105,64.5,105,63.8,104.8,63.9z M104.7,65.1c0.3,0.2,0.3-0.4,0.1-0.3c0,0,0,0.1-0.1,0.1
		C104.7,65,104.7,65,104.7,65.1z M107.1,60.4"/>
	<path class="st0" d="M156.9,16.8c-0.4,4.8-2.7,9.5-3.6,13.8c2.1,0.3,4.8,0.2,7.1,0.1c5.4,0.8,11.9-0.4,17.2,2.6
		c-0.4,0.2-0.8-0.1-1.2,0.2c-6.7-2.4-16.2-1.3-22.8-2.2c-0.4,0.1-0.8,0.4-0.9,1c0,0.4,0.9,0.1,1.1,0.5c0.1-0.4,0.2-0.8,0.4-0.7
		c0,0.4,1.1,0.8,1.4,0.2c1,0.4,1.7,0.1,2.5,0.1c0.3,0.1,0.2,0.4,0.4,0.6c0.3,0,0.4-0.1,0.4-0.2c0.2,0,0.1,0.2,0.2,0.2
		c0.3,0,0.1-0.4-0.1-0.4c0-0.3,0.4,0,0.4,0.2c0.3-0.1-0.1-0.4,0-0.5c1.1,1.3,3,0.3,4.2,0.9c0.1,0,0.1-0.1,0.1-0.3
		c0.5,0.4,0.6-0.2,1.3,0.2c0.3-0.3-0.5-0.3-0.5-0.6c0.4,0.2,0.9,0.1,1,0.1c0.3,0.4-0.2,0-0.2,0.3c1.2,0.8,2.8,0,4,0.5
		c0.3-0.1,0.4-0.3,0.5-0.5c0.3,0.1,0,0.7,0.4,0.6c0.3-0.1-0.2-0.3-0.1-0.5c0.3,0.4,0.8,0.6,0.6,1.1c0.5,0,0.4-0.2,0.4-0.5
		c0.4,0.4,0.8-0.3,0.9,0.1c0.3,0,0.1-0.4,0.2-0.5c0.7,0.5,2.2-0.2,3.6,0.5c-0.9,0.3-1.9,0.4-3,0c-0.4,0.2-0.3,0.8-0.8,0.7
		c-0.4,0.1-0.3-0.4-0.4-0.5c-0.3,0.6-1.5,0.1-1.4,0.8c-0.4,0.1-0.2-0.5-0.5-0.5c0,0.5-0.3,0.3-0.9,0.4c0-0.3,0.2-0.3,0.4-0.3
		c0-0.3-0.6-0.4-0.4,0.1c-0.3-0.1-0.2-0.4-0.6-0.4c-0.4,0-0.4,0.3-0.5,0.5c-5-0.6-11.4-0.4-15.1-0.3c-0.4,0.2-0.2,1.1-0.7,1.1
		c0,2.6-1.6,4.9-2,7.5c-1.3,3.6-3.1,8.3-4.4,12c-1.8,5.2-5.4,8.6-6,14c0,1.3,0,2.3-0.4,3.6c0.1,1.5,0.2,3.2-0.2,4.8
		c0.1,4.3,0.4,9.2,3.4,11.8c-4.4-0.5-5.4-4.8-6.1-8.5c-0.2-2-0.5-4.8-0.3-7.1c0.3,0,0.1,0.4,0.4,0.3c0-0.7-0.2-1.7,0.2-2.2
		c-0.5,0.3-0.3,0.8-0.4,1.2c0-1.6-0.2-3.1,0.5-4.4c-0.1-1.3,0.1-2.8-0.7-3.9c0.4-0.5,0.7-1.3,1.3-1.7c1.3-10.2,3.4-17.8,5.9-27.3
		c-3.1-0.5-6.8,2.2-9.5,0.4c-0.4-2,0-4.2,2.2-3.7c2.4-0.6,5.4-0.6,8.5-1.1c1.4-4.5,3.1-10.4,4.7-15.5c1.7-5.3,2.7-11.2,6.6-14.3
		c3.5,0.3,4,4.2,3.1,7.6c0.4,0.4,0.4,0.4,0.3,1.1c0.2,0,0.1-0.4,0.2-0.4c0.4,1.1-0.8,2-0.5,2.9c-0.1,0-0.1-0.1-0.3-0.1
		c-0.1,0.2,0,0.7,0.1,0.4h0.1C157.9,14,157.9,15.9,156.9,16.8z M136,80.6c-0.2,0-0.3-0.1-0.3-0.3c0.1,0,0.2,0,0.3,0
		C136,80.4,136,80.5,136,80.6z M136,73.6c-0.1,0.3-0.3,0.5,0.1,0.5C136,74,136.2,73.6,136,73.6z M136.2,75.9c-0.1-0.3,0.4-0.4,0-0.4
		c0,0.1-0.2,0.1-0.2,0.2C136.1,75.7,136,75.9,136.2,75.9C136.1,76.4,136.6,75.9,136.2,75.9z M136.2,76.3c-0.2,0.2-0.2,0.5,0.1,0.5
		C136.3,76.7,136.5,76.3,136.2,76.3z M136.1,67.9 M136.6,70.7c-0.3,0-0.4,0.2-0.4,0.4C136.4,71.2,136.6,71,136.6,70.7z M136.1,77.3
		 M136.2,69.7c0,0.2-0.2,0.3,0,0.4C136.2,69.9,136.4,69.8,136.2,69.7z M136.2,74.1c0.1,0.4-0.3,0.6,0.1,0.7
		C136.2,74.4,136.6,74.2,136.2,74.1z M136.2,68.4 M136.2,69.1c0.1,0.2-0.1,0.5,0.1,0.5C136.4,69.4,136.6,69.2,136.2,69.1z
		 M136.2,75.1 M136.8,76.1c0.1,0.7-0.3,1.2,0.1,1.6C136.8,77.2,137,76.4,136.8,76.1z M136.9,74.9c-0.1,0.1-0.2,0.8,0,1
		C136.9,75.6,137,75.2,136.9,74.9z M136.8,74c0.1,0.2,0,0.5,0.2,0.6C136.9,74.5,137.1,73.9,136.8,74z M136.8,77.9 M136.9,73.3
		 M137.1,70.3c0,0.3-0.2,0.3-0.2,0.4C137.3,71,137.3,70.3,137.1,70.3z M136.9,72.9 M137.1,69.6 M137.1,70.1 M139.4,51.9
		C139.2,51.4,139,52.3,139.4,51.9c0.2,0.7-0.4,0.3-0.4,0.4c0.1,0.1,0.3,0.1,0.4,0.2c-0.5,1.4-1.1,2.7-0.9,4
		c-0.4,0.2-0.3,0.5-0.4,1.3c-0.2,0.2-0.4,0.9-0.1,1.3c-0.2-0.2-0.4-0.1-0.3,0.2c0.1,0,0.3,0,0.3,0.1c0,0.4-0.4,0.4-0.5,0.8
		c0.1,0.1,0.4,0,0.4,0.2c-0.4,0-0.5,0.4-0.1,0.5c-0.3,0.2-0.7,0.7-0.3,1c-0.2-0.5,0.6-0.6,0.3-1c0-0.3,0.1-0.1,0.2-0.1
		c0.6-4,1.3-6.3,1.7-9.2c0.5-2.7,1.6-4.7,1.5-7.3c-0.4,0.6-0.4,2-0.7,2.6c0.4,0.4-0.6,0.9-0.2,1.5c-0.2,0.1-0.3-0.4-0.3,0.1
		c0.4,0.6-0.8,2.3-0.6,3.1c0.1,0,0.2,0,0.3,0C139.5,51.8,139.5,51.9,139.4,51.9z M138,57.9 M138.3,57.1 M138.4,56.1 M138.9,57.2
		c-0.1,0.7-0.4,1.2-0.2,1.8C138.8,58.4,139.4,57.8,138.9,57.2z M139.5,55c-0.1,0.5-0.5,1.3-0.4,1.9C139.1,56.4,139.7,55.6,139.5,55z
		 M139.5,54.4 M140.4,50.3c0,0.6-0.4,0.8-0.2,1.3c-0.4,0.4-0.3,1.3-0.5,1.9c0.6-0.4,0.3-1.3,0.5-1.9C140.5,51.5,140.4,51,140.4,50.3
		c0.4-0.2,0.4-1.2,0.4-1.6C140.6,49.2,140.4,50.1,140.4,50.3C140.4,50.3,140.4,50.3,140.4,50.3z M139.6,53.9 M140.9,48.3
		 M141.2,47.5c-0.3-0.1-0.3,0.2-0.3,0.5C141.2,48,141.2,47.6,141.2,47.5z M141.4,45.8c0.1,0.4-0.4,0.8-0.2,1.2
		C141.4,46.5,141.7,46.3,141.4,45.8z M141.4,44.2c0.9-2.9,1.5-6.6,2.3-9.2c-0.1,0-0.2,0-0.4,0c-0.4,2.4-1.2,3.5-1.3,5.8
		C141.5,41.9,141,43.3,141.4,44.2z M141.5,45.6 M141.8,44.3c0,0.3-0.2,0.5,0,0.9C141.8,44.9,142.2,44.4,141.8,44.3z M142.2,42.8
		c-0.1,0.4-0.4,1.3-0.1,1.4C142.1,43.7,142.6,43.2,142.2,42.8z M142.6,49.3c0.4,0.8-0.6,1.6-0.1,2.1c2.2-5.6,4.4-11.4,6-16.8
		c-1-0.2-1.4,0.2-2.1,0.1C144.9,39.7,144.3,44.6,142.6,49.3z M142.5,42.5C142.5,42.5,142.5,42.5,142.5,42.5c0.3-0.4,0.3-1.1,0.4-1.5
		C142.5,41.2,142.4,42.1,142.5,42.5C142.3,42.5,142.5,42.6,142.5,42.5z M142.5,43.6 M143,39.3 M143,39.5c0,0.1,0,0.2,0,0.4
		C143.3,39.9,143.3,39.3,143,39.5z M143,40.2 M143.1,52.8 M143.2,51.8c0,0.1-0.2,0.3,0,0.3C143.2,51.9,143.4,51.9,143.2,51.8z
		 M143.8,36.4c0.1,0.9-0.8,1.7-0.4,2.4C143.5,37.9,144.3,36.9,143.8,36.4z M148.7,41.3c-0.1,0.1-0.3,0.1-0.3-0.1
		c0.4-0.6,1-1.2,0.6-2.2c0.3-0.1,0.3,0,0.5-0.2c0.1-0.8,0.3-1.8,0.6-2.2c-0.3-0.1-0.4-1,0.1-1.1c0,0,0,0.1,0,0.2c-0.3,0,0.1,0.4,0,0
		c0.3-0.3,0.3-1.1,0-1.3c-0.2,0.1-0.4,0-0.8,0.1c-0.4,2.5-1.7,4.3-2,6.4c-0.6,1.2-1.3,2.7-1.5,4.3c-0.1-0.1-0.2-0.2-0.3-0.3
		c-0.2,0.4,0.2,1.1,0,1.2c-0.3,0.1,0-0.4-0.4-0.3c-0.4,2.2-1.3,3.6-2,5.7c0.4-0.3,0.3-0.3,0.7,0c0.7-2.2,2-4.4,2.7-6.5
		c0.3,0-0.1,0.5,0.2,0.4c0-0.2,0.1-0.3,0.2-0.3c0.1-0.4-0.4-0.3-0.3-0.7c0.3,0.1,0.4,0.3,0.5,0c-0.3-0.4-0.3-1.2,0.3-0.7
		c0.4-0.5-0.4-0.4-0.3-1c0.3,0,0.2,0.3,0.3,0.3c0.4-0.4-0.3-0.4,0-0.7c0.2,0.1,0.3,0.2,0.4,0.3c0-0.4,0.2-0.4,0.3-0.8
		C148.7,41.7,148.4,41.5,148.7,41.3z M143.8,51.9 M144.2,35.2c-0.2,0.4-0.3,0.9-0.4,1.2C144.2,36.2,144.6,35.2,144.2,35.2z
		 M143.9,50.9 M144.9,30.8c0.6-1.7,1.7-4.8,1.7-6.3c0.4-0.6,0.9-1.6,0.8-2.4c-0.4,0.4-0.6,1.7-0.8,2.4
		C146.1,26.4,145.2,29.1,144.9,30.8z M147.1,26.1c-0.1,0-0.2,0-0.3,0c-0.4,1.9-1.1,3.2-1.3,4.8C146.3,29.3,146.5,27.8,147.1,26.1z
		 M146,45.4 M146.4,46.9 M146.6,45.8c0,0.1-0.2,0.3,0,0.3C146.7,46,146.9,45.9,146.6,45.8z M147.6,23.3c-0.2,1.1-0.5,1.5-0.6,2.6
		C147.4,25.5,147.7,24.2,147.6,23.3C147.9,23.2,147.7,23.2,147.6,23.3C147.7,23.3,147.7,23.3,147.6,23.3z M148.3,31.7
		c-0.4,0.2-0.7,0-0.9,0.3c0.4-0.1,0.3,0.5,0.9,0.4c0.2-0.3-0.3-0.4,0-0.5c0.1,0.2,0.2,0.2,0.2,0.4c0.4,0.2,1.2-0.2,0.8-0.6
		c0,0.5-0.3,0.1-0.6-0.2c-0.2,0.3,0.4,0.4,0,0.5C148.6,31.9,148.4,31.8,148.3,31.7z M147.6,21.3c-0.1,0.2,0,0.5-0.2,0.7
		C147.7,22.1,147.9,21.5,147.6,21.3z M153.8,10.2c-0.1,0.2-0.1,0.4-0.3,0.4c0-0.3-0.1-0.2-0.1,0h-0.1c-0.2,0.2-0.2,0.4-0.1,0.7
		c-0.2,0-0.1,0.1-0.2,0.2c0,0,0,0-0.1,0c0.1,0.5-0.5,1-0.2,1.4c0.1-0.5,0.4-0.8,0.3-1.4c0.2,0,0.1-0.1,0.2-0.2c0,0,0,0,0.1,0
		c0-0.2,0-0.3,0.1-0.3c-1.7,6.1-4,13.3-5.8,19.7c1,0.2,1.3-0.1,2.2,0c2.4-9,5.8-17.1,6.4-25.9C155.2,6.3,154.4,8.2,153.8,10.2
		C153.6,9.6,153.4,10.6,153.8,10.2z M147.6,29.8 M147.9,28.8c0.1,0.3-0.4,0.4,0,0.5C147.9,29.3,148.1,28.9,147.9,28.8z M148,20
		c0.2,0.5-0.4,0.9-0.1,1.2C147.8,20.8,148.6,20.2,148,20z M148.1,21.9c0.1,0.4-0.4,0.9-0.1,1.1C148.1,22.7,148.3,22.1,148.1,21.9z
		 M148.4,18.9c-0.1,0.4-0.3,0.5-0.4,1C148.4,19.6,148.6,19.3,148.4,18.9z M148.1,39.8 M148.2,28.1c0.2-0.1,0.2-0.3,0.3-0.4
		C148.1,27.5,148.3,27.9,148.2,28.1C148.1,28.2,148.2,28.2,148.2,28.1z M148.2,23.3 M148.3,41.6c0.1,0,0.2,0.1,0.2,0.2
		C148.3,41.8,148.2,41.6,148.3,41.6z M148.5,21.2c0-0.1-0.1-0.3-0.3-0.2C148.3,21.2,148.3,21.3,148.5,21.2
		C148.4,21.3,148.4,21.2,148.5,21.2z M148.6,18.3L148.6,18.3c0.2-0.4,0.5-0.9,0.4-1.3C148.8,17.5,148.7,17.8,148.6,18.3
		C148.3,18.5,149,18.5,148.6,18.3z M148.5,20.6 M148.8,26.2c-0.3-0.1-0.1,0.4-0.3,0.4C148.9,26.7,148.7,26.3,148.8,26.2z
		 M148.6,20.2c0.3,0.2,0.4-0.4,0.1-0.3c0,0,0,0.1-0.1,0.1C148.6,20.1,148.6,20.1,148.6,20.2z M148.8,19.6 M149.2,18.6
		c-0.4-0.1-0.1,0.4-0.3,0.4C149.2,19.2,149.2,18.9,149.2,18.6z M149,25.4 M149.1,16.4c0,0.1-0.3,0.4,0,0.4
		C149.1,16.7,149.5,16.5,149.1,16.4z M149.1,24.9 M149.2,18.3C149.6,18.1,149.1,17.7,149.2,18.3C148.9,18.5,149.6,18.5,149.2,18.3z
		 M149.1,38.4 M149.2,16.2C149.3,16.2,149.3,16.2,149.2,16.2c0-0.4,0.3-0.3,0.3-0.5C149.1,15.6,149.3,16,149.2,16.2
		C149.1,16.3,149.2,16.3,149.2,16.2z M149.3,23.7c-0.1,0.1-0.1,0.4,0.2,0.4C149.4,23.9,149.5,23.7,149.3,23.7z M149.5,15.4
		c0.2-0.1,0.2-0.4,0.3-0.6C149.5,14.8,149.5,15.1,149.5,15.4C149.3,15.5,149.5,15.6,149.5,15.4z M149.6,16.8c0.1,0.3-0.4,0.5,0,0.7
		C149.6,17.3,150,16.7,149.6,16.8z M149.5,23.3 M149.7,14.6c0.3,0.2,0.4-0.4,0.1-0.4c0,0.1,0,0.2-0.1,0.1
		C149.7,14.4,149.7,14.5,149.7,14.6z M149.8,22.4 M149.9,15.6c0.1,0.2-0.1,0.7,0.2,0.7C149.9,15.9,150.4,15.6,149.9,15.6z M150,21.5
		 M150.3,15.2c0-0.1,0-0.3-0.2-0.2C150.1,15.1,150.1,15.3,150.3,15.2C150.2,15.3,150.2,15.2,150.3,15.2z M151.1,32.1
		c0-0.2,0.4-0.2,0.3-0.5c-0.3,0-0.8-0.2-1.1,0.2c0.5,0.2-0.4,0-0.1,0.8c0.3,0,0.3-0.4,0.7-0.2C150.9,32.2,151,32.2,151.1,32.1
		C151.1,32.3,151.2,32.1,151.1,32.1z M150.3,20.4 M150.4,14.6 M150.7,14C150.3,14.1,150.8,14.5,150.7,14c0.1,0,0.1-0.2,0.1-0.3
		c0.4,0-0.1-0.4,0,0C150.7,13.7,150.7,13.9,150.7,14z M150.8,33.2c0-0.1,0-0.4-0.2-0.3c0,0.1,0,0.1,0,0.2
		C150.7,33.1,150.7,33.2,150.8,33.2z M150.8,19.4C150.9,19.3,150.8,19.2,150.8,19.4C150.6,19.4,150.8,19.4,150.8,19.4z M151.9,30.5
		c0.4-0.4,0-0.5-0.1-0.9c0.2-0.5,0.6-0.9,0.5-1.6c0.3-0.2,0.4,0,0.6-0.3c0-0.2,0-0.4,0-0.6c-0.1,0-0.3,0-0.3-0.1
		c0.3-0.5,0.2-1.4,0.6-1.7c0,0.1,0,0.2,0.1,0.2c0.1-0.4,0.7-0.9,0.4-1.4c-0.3,0.3-0.1,0.8-0.4,0.9c-0.2-0.5,0.3-1.2,0.4-1.6
		c0.2,0,0,0.4,0.2,0.4c0.4-1.3,0.8-2.1,1.1-3.7c-0.6,0.7-0.6,2.7-1.3,3c1.3-4.8,3.1-9.9,3.8-15.1c0.1,0,0.1-0.2,0-0.2
		c-0.2-0.4,0.2-0.5,0.3-0.7c-0.2-0.1-0.4-0.3-0.2-0.4c-0.6,1.5-0.8,3.4-1,4.9c-0.2,0.1-0.3-0.1-0.4-0.1c0,0.3,0.2,0.4,0.2,0.6
		c-0.5,0.4-1.3,2.3-0.7,3.2c-0.3,0.2-0.4-0.1-0.6,0.1c-1,5.2-3.5,10.9-4.4,15.5c0.6,0.1,0.8-0.4,1.1-0.6
		C151.8,30.4,151.9,30.4,151.9,30.5C151.7,30.6,152,30.9,151.9,30.5z M150.9,18.9 M151.2,17.6c0,0.1-0.3,0.4,0,0.4
		C151.1,17.8,151.5,17.7,151.2,17.6z M151.2,17.3 M151.4,16.8 M151.5,11.1 M151.5,31.7 M151.8,15.9c0,0.1-0.3,0.4,0,0.4
		C151.8,16.2,152,15.9,151.8,15.9z M152,14.8c0,0.2-0.3,0.7-0.1,0.8C152,15.4,152.3,14.9,152,14.8z M152,9.5 M152.3,13.8
		c0.1,0.4-0.4,0.5,0,0.7C152.3,14.3,152.7,13.8,152.3,13.8z M152.2,9.3 M152.3,29.6 M152.5,13.1c0.1,0.3-0.1,0.3-0.1,0.5
		C152.7,13.8,152.7,13.1,152.5,13.1z M152.7,27.4c0,0,0,0.1,0,0.2c-0.1,0-0.1,0.1-0.2,0.1c0,0-0.1,0-0.2,0c0-0.1,0-0.1,0-0.2
		c0.1,0,0.1-0.1,0.1-0.1C152.6,27.4,152.7,27.4,152.7,27.4z M152.5,28.9 M152.8,24.8 M153,26.9 M153.4,25.8
		C153.3,25.6,153.2,25.8,153.4,25.8C153.5,25.9,153.5,25.8,153.4,25.8z M153.4,22.7 M153.5,10.6c0,0.2,0.1,0.4-0.1,0.4
		C153.5,10.9,153.5,10.7,153.5,10.6L153.5,10.6z M153.9,21.3c0,0.2,0,0.4,0,0.4c-0.1,0-0.2,0-0.3,0c0-0.1,0-0.3,0-0.4
		C153.7,21.3,153.8,21.3,153.9,21.3z M153.8,9.4 M154.2,8.6C154.6,8.4,153.9,8.2,154.2,8.6C154.1,8.6,154.3,8.7,154.2,8.6z
		 M154.2,20.2 M155.1,19.9 M155.2,16.8 M155.2,16.8 M155.4,15.9 M156.2,17.3c-0.3-0.3,0.3-0.6-0.2-0.6c-0.1,0.4-0.3,0.6-0.4,1.1
		C156.1,17.8,155.7,17.2,156.2,17.3z M155.6,18 M155.7,20.5 M156.1,14.2c-0.3,0.1-0.2-0.1-0.3-0.3C156,14,156.1,14.1,156.1,14.2z
		 M156.2,16.1c0,0-0.3,0.4,0,0.4C156.2,16.5,156.4,16.1,156.2,16.1z M156.1,13.3 M156.2,13 M156.2,15.9c0.3,0.2,0.4-0.4,0.1-0.3
		c0,0,0,0.1-0.1,0.1C156.2,15.8,156.2,15.8,156.2,15.9z M156.3,19.2c0,0,0-0.1,0-0.2c0,0-0.1,0-0.2,0c0,0.1,0,0.2,0,0.2
		C156.2,19.2,156.3,19.2,156.3,19.2z M156.7,17c0-0.1,0-0.2-0.2-0.2c0,0.1-0.1,0.3,0.1,0.4C156.6,17.1,156.6,17,156.7,17z
		 M156.5,14.9 M156.6,10.5 M156.7,9.8 M156.9,13.8c0,0,0-0.1,0-0.2c0,0-0.1,0-0.2,0c0,0.1,0,0.2,0,0.2
		C156.8,13.8,156.9,13.8,156.9,13.8z M156.8,31.9 M157.6,14.5c-0.1,0-0.3,0.4,0,0.5C157.6,15,157.8,14.5,157.6,14.5z M157.7,7.9
		c0,0,0-0.1,0-0.2C157.5,7.7,157.6,7.9,157.7,7.9z M157.7,5.7 M157.7,32.9 M157.9,11.4c0,0.4-0.4,0.5,0,0.7
		C158.1,12,158.2,11.5,157.9,11.4z M158.1,10.8 M158.2,10.7 M158.3,12.4 M158.4,32c0.3,0.2,0.4,0.4,0.4,0.8
		C158.6,32.6,158.5,32.4,158.4,32z M158.8,8.3 M158.8,8.3 M159,6 M159.2,5.2 M160.1,32.5 M160.9,32.5c0,0.2-0.6,0.2-0.4-0.1
		C160.6,32.4,160.7,32.5,160.9,32.5z M161.4,32.6 M161.7,32.1 M161.9,32.6 M163.2,32.6c-0.4,0-0.5-0.5-0.7,0
		c-0.4,0.2-0.2-0.4-0.1-0.5C162.9,32.2,163.2,32.3,163.2,32.6z M162.5,33.6c0,0.3,0.1,0.4,0.3,0.4C162.9,33.7,162.6,33.8,162.5,33.6
		z M163.6,32.6 M163.6,33.9 M165.8,32.6 M165.8,32.6 M166.3,32.6c-0.2,0.4-0.3-0.3-0.4-0.4C166.3,32.2,166,32.6,166.3,32.6z
		 M166.9,32.6c0,0.2-0.4,0.1-0.4,0.4c-0.3-0.1,0.2-0.3,0-0.4C166.7,32.6,166.7,32.6,166.9,32.6z M167.6,32.4c0,0.1,0,0.2,0,0.3
		c-0.1,0-0.2-0.2-0.3-0.2C167.3,32.4,167.5,32.4,167.6,32.4z M168,32.9c-0.3,0,0-0.4-0.1-0.5C168.2,32.4,168.2,32.7,168,32.9z
		 M169.2,33.7c0,0,0-0.1,0-0.2c-0.1,0-0.1,0-0.2,0c0,0.1,0,0.2,0,0.2C169.1,33.7,169.1,33.7,169.2,33.7z M169.1,32.8 M169.4,33.5
		c0,0.2-0.1,0.4,0.2,0.3C169.6,33.5,169.5,33.5,169.4,33.5z M170.9,33.2c-0.2,0-0.2-0.2-0.2-0.4C170.9,32.8,171,33,170.9,33.2z
		 M171.3,33.2c-0.2,0-0.2-0.2-0.2-0.4C171.2,32.8,171.3,33,171.3,33.2z M172.8,34.2 M173.3,34 M175.9,33.5"/>
	<path class="st0" d="M157.7,55.1c-0.2,0-0.2,0.3,0,0.3c0,0.2,0,0.3,0,0.4c-0.1,0-0.2,0-0.3,0c-0.3,1.4-1.5,3.4-2.5,4.1
		c0.3,1.2-1.5,2.1-1,3.2c-0.5,0.3-0.9,1.6-0.7,2.4c-0.8,0.2-0.5,1.4-1,2c3.1-2.6,5.6-7.1,10.6-7.6c0.1,0.3,0.3,0.6,0.8,0.5
		c0.4,0.4,0.4,0.4,0.5,0.8c0.4,0,0.6,0,0.8,0.1c1.6,3.5,0,9.9,3.1,12.4c0.2,0,0-0.4,0.4-0.4c-0.1,0.3,0.2,0.3,0.3,0.5
		c2-0.1,3.8-0.4,5-1.8c6.1-3.8,11.6-8.9,17.7-13c0.1,2.2-2.5,2.7-3.1,4.6c-0.2,0-0.3-0.2-0.2-0.4c-0.4,0.4-1.1,0.5-1.1,1.3
		c-0.4,0.1-1,0.2-1,0.8c-0.2,0-0.2-0.2-0.4-0.3c-0.2,0.9-1.1,0.4-1.2,1.5c0.5-0.2,0.4-0.4,1.1-0.5c-0.1,1.2-1.3,0.7-1.6,1.7
		c0.1,0.2,0.2,0,0.4,0c-0.1,0.7-0.9,1.1-1.3,1.1c0,0.4,0.4,0.5,0.2,0.9c-0.4,0.1-0.4-0.3-0.4-0.4c-0.4,1.5-2.2,1.7-2.6,3.3
		c-0.2,0-0.3,0-0.4-0.1c-1.4,2.1-4.3,4.1-7.1,4.9c-6.8,0.2-9.7-6.1-10.8-12.9c-5.1,3.8-8.1,9.6-12.3,14.3c0,0.2,0,0.4,0,0.6
		c-0.7,0.7-1.1,0-1.9-0.1c-0.8-1.3-1.7-3.1-2-4.6c1-3.4,2.2-7.4,3.1-11c-0.1-0.2-0.2,0-0.4,0c0-0.5-0.4-1.3,0.2-1.7
		c0.2,0,0.3,0.1,0.3,0.2c1.5-2.2,1.9-5.8,2.2-8.7c0.2,0,0.1,0.2,0.3,0.2c0.4-1.7,1.3-3.6,1-5.1c0.4,0.3,0.7-0.9,0.3-1.1
		c0-0.2,0.3-0.1,0.4,0c0-0.4,0-0.6,0.2-0.8c0-0.2-0.4-0.1-0.2-0.4c0.9-0.4,0.2-1.9,1-2.4c-0.1-0.2-0.2-0.1-0.4-0.1
		c0.4-0.1,0.3-0.5,0.5-0.7c0-0.4-0.3,0.1-0.4-0.2c0.4-0.3,0.5-0.6,0.7-1.2c0-0.3-0.4,0-0.3,0.2c0.2-0.8,0.4-1.8,0.9-2.6
		c-0.1-0.4-0.3,0.4-0.4,0c-0.1-0.4,0.2-0.5,0.5-0.6c0.2-2.2,1.1-3.4,1.1-5.5c0.2,0,0.2,0.2,0.4,0.1c0.1-1.3,0.7-2.5,0.7-3.9
		c0.2,0,0.1,0.3,0.3,0.4c0.1-0.3,0.2-0.6,0.3-0.9c-0.1-0.3-0.3,0.3-0.3,0.4c-0.2-0.6,0.6-1.3,0.8-2c0-0.4-0.4,0.3-0.3-0.1
		c-0.1-0.4,0.1-0.4,0.3-0.3c0-0.9,0.6-1.3,0.4-2.4c0.4,0,0.4-0.4,0.5-0.5c0-0.1-0.2-0.2-0.2,0c0.4-1.4,0.8-2.3,1.4-4.2
		c-0.1-0.4-0.2,0.4-0.3,0.4c-0.4-1,1.3-1.4,0.6-2.5c0.1,0,0.2,0,0.4,0c-0.1-0.6-0.2-1.4,0.5-1.7c-0.2-0.4-0.1-0.4,0-0.7
		c0.2,0.6,0.4-0.5,0.5-0.9c0.3-0.4,0.4-0.7,0.2-1.2c2.3-3.3,2.5-9.6,8-9.1c0.5,1,1.8,1.3,2.7,2c1.6,2.7,1.2,5.7,0.6,9
		c-0.4-0.1-0.3,0.2-0.4,0.3c0,0.2,0.1,0.4,0.4,0.3c-0.4,0.4-0.2,1.3-0.6,1.4c0.3,2-1.2,4.1-1.4,6.3c-0.2,0.2-0.3,0-0.5,0
		c0,0.2,0,0.4,0,0.5c0.1-0.1,0.1-0.2,0.1-0.4c0.4,1.1-0.8,2.2-0.8,3.6c-0.3,0.2-0.3-0.1-0.7,0c0.1,0.2,0.4,0.2,0.4,0.3
		c-0.6,2.4-1.9,4.4-2.2,6.6c-0.2-0.1-0.4-0.3-0.5-0.1c-0.3,0.2,0.4,0.4,0.4,0.8c-0.4,0.7-1.3,1.3-0.9,2.2c-0.2,0-0.3,0-0.4,0
		c0.3,0.3,0,0.5-0.3,0.5c0.1,0.4,0,0.4,0,0.8c-0.4,0.1-0.4-0.1-0.5-0.1c0,0.3,0.1,0.4,0.4,0.4c0,0.7-1,0.7-0.6,1.5
		c-0.9,0.1-0.4,1.6-1.3,1.7c0.5,1-1.3,2.1-0.8,3.1c-0.2,0.4-0.9,0.3-0.7,1.1c-0.4,0.1-0.3-0.3-0.4-0.3c0.3,0.7-0.3,1.1,0.1,1.6
		c-1.9,1.7-1.6,4.4-3.7,5.7c0,0.2,0.4,0.1,0.4,0.2c-0.1,0.4-0.3,0.7-0.5,0.4c0.4,0.9-0.5,1.3-0.7,1.9c-0.1,0-0.1,0-0.2,0
		C157.7,55.3,157.7,55.2,157.7,55.1z M148.8,72.2c0-0.1,0-0.2,0-0.3c-0.1,0-0.2,0-0.3,0c0,0.1,0,0.2,0,0.3
		C148.6,72.2,148.7,72.2,148.8,72.2z M148.8,71c0,0.2,0,0.3,0,0.4C149.1,71.5,149.1,70.9,148.8,71z M149.3,69.6
		c-0.1,0.3-0.7,0.9,0,1C149.1,70.2,149.6,69.8,149.3,69.6z M149.4,68.7c0,0.4-0.2,0.6,0.1,0.8c0.3-0.5,0.6-1.2,0.1-1.6
		c-0.3,0.3,0.3,0.4,0.2,0.9C149.6,68.8,149.5,68.8,149.4,68.7z M150.6,65.9c-0.2,0.4-1.1,1.5-0.3,1.9
		C150.2,67,150.9,66.5,150.6,65.9z M151.8,51.6 M152.8,68.2c-0.4,0.2-1.1,0.8-0.9,1.3C152.1,69,152.6,68.8,152.8,68.2z M152,67.9
		 M152.7,51.3 M153.3,50.8c0.2-0.2,0.2-0.5-0.1-0.5c0,0.3-0.4,0.1-0.4,0.3C153.1,50.5,153,50.9,153.3,50.8z M153.4,67.6
		c-0.2,0.1-0.4,0-0.4,0.4C153.3,67.9,153.5,67.8,153.4,67.6z M153.7,48.8c-0.2,0-0.2-0.3-0.4-0.2c0,0.4,0,0.9-0.1,1.2
		C153.5,49.7,153.6,49.2,153.7,48.8z M153.3,69 M153.9,47.6c0,0.1,0,0.3-0.2,0.2c-0.1-0.4,0.6-0.6,0.1-0.8c0,0.4-0.4,0.7-0.2,1.2
		C154,48.4,154.2,47.8,153.9,47.6z M153.6,68.5c0,0.1,0,0.2,0,0.3C153.9,68.9,153.9,68.3,153.6,68.5z M154.4,66.4
		c-0.4,0.1-0.4,0.4-0.6,0.7C154.2,67,154.4,66.8,154.4,66.4z M154.4,45.7c0.2,0.1,0.4,0,0.4-0.1c-0.1-0.4,0.4-1-0.2-1.1
		c-0.4,0.5-0.5,1.6-0.7,2.2C154.4,46.6,154.3,46,154.4,45.7z M154.1,48.4 M154.4,46.7c-0.3,0-0.3,0.3-0.3,0.4
		C154.4,47.3,154.4,47,154.4,46.7z M154.8,47.6c-0.3,0.1-0.5,0.1-0.5,0.4C154.5,48.1,154.6,47.8,154.8,47.6z M154.9,67.2
		c-0.4,0.1-0.7,0.6-0.5,0.8C154.6,67.8,155,67.7,154.9,67.2z M154.7,50.4c-0.2,0-0.3,0.1-0.4,0.3C154.5,50.7,154.6,50.6,154.7,50.4z
		 M154.6,47.1 M155.3,43.4c-0.1,0.4-0.3-0.1-0.4,0c-0.2,0.2-0.2,0.5,0,0.6C155.1,44,155.5,43.7,155.3,43.4z M154.7,66.3 M154.8,42.7
		c0,0.3,0.3,0.4,0.4,0.5c0.2-0.3-0.2-0.4-0.1-0.6c0.1,0,0.2,0,0.3,0.1c0.1-0.3-0.3-0.7,0-0.9c0,0.2,0,0.4,0.1,0.4
		c0.3-0.3,0.3-0.5-0.1-0.6c0,0.1-0.2,0.1-0.3,0.2C155.2,42.2,155,42.4,154.8,42.7z M155,65.9c0.3,0.2,0.4-0.4,0.2-0.4
		c-0.1,0.1-0.1,0.2-0.2,0.2C155,65.8,155,65.9,155,65.9z M155.7,66.5c-0.4,0.1-0.6,0.3-0.5,0.6C155.3,67,155.6,66.8,155.7,66.5z
		 M155.3,44.6c-0.1,0.2-0.1,0.4-0.2,0.5C155.4,45.3,155.6,44.7,155.3,44.6z M155.3,48.2 M155.3,37.4c0-0.2,0.1-0.2,0.1-0.4
		C155.6,37,155.6,37.6,155.3,37.4z M155.9,41.5c-0.2-0.7,0.4-1.3,0-1.6c-0.1,0.4-0.4,0.1-0.5,0.4C155.6,40.6,155.6,41.3,155.9,41.5z
		 M155.3,40.7c0,0.2,0,0.4,0.1,0.4C155.6,41,155.6,40.8,155.3,40.7z M155.7,65c-0.1,0.2-0.4,0.4-0.2,0.5
		C155.6,65.3,156.1,65.1,155.7,65z M155.5,36.5c0,0,0-0.1,0-0.2c0.1,0,0.1,0,0.2-0.1C155.9,36.1,155.8,36.7,155.5,36.5z M155.7,43.1
		 M155.9,44.5c0.1,0.4-0.2,0.3-0.1,0.5C156.1,45.1,156.3,44.4,155.9,44.5z M156.4,39.1c-0.3,0.1-0.7,0.1-0.6,0.4
		C156.1,39.5,156.5,39.6,156.4,39.1z M155.9,42.7 M155.9,66 M160.3,44.9c1.3-2.7,3.1-6.1,4.2-9.7c0.2,0,0.4,0.4,0.4,0
		c0.1-0.4-0.4-0.1-0.3-0.4c2.2-4.7,3.5-8.4,5.2-13.6c-0.4-0.1-0.2,0.4-0.4,0.5c0.8-4.6,3.3-9.9,2.5-15.5c-1.7,0.1-1.9,2.2-2.9,2.6
		c-1.7,3.8-3.3,7.8-4.8,11.5c0,0.4,0.2,0.5,0.2,0.9c-1.2,1.4-1.4,4.5-2.4,6c-1.4,7.9-4.8,16.1-5.9,24.1c1.7-3.1,3.1-6.6,4.9-9.5
		c2.2-5.3,4.8-11.8,7.4-17.3c-2.2,7.9-6.2,14.5-8.7,21.8c-1.3,1-1.9,3.5-2.8,5.1c1-0.4,1.4-1.9,1.6-2.9c0.7,0.1,0.9-1.3,0.9-2.1
		c0.3,0,0.3,0.2,0.4,0.1C160,46.1,159.9,45.4,160.3,44.9C160.4,45.1,160.5,44.9,160.3,44.9z M156,55.6 M156.3,37.3
		c0.1,0.4-0.7,1.1-0.1,1.3C156.2,38.3,156.9,37.5,156.3,37.3z M156.2,57c-0.2,0.2-0.1,0.4,0.1,0.5C156.4,57.4,156.5,57.1,156.2,57z
		 M156.2,43.5c0,0.3-0.2,0.6,0.1,0.7C156.1,43.9,156.7,43.5,156.2,43.5z M156.2,41.1 M156.8,65.4c-0.2,0-0.3,0-0.4,0
		c0,0.3-0.2,0.3-0.1,0.5C156.7,65.9,156.7,65.7,156.8,65.4z M156.3,33.8 M156.9,37c0-0.2-0.1-0.3-0.4-0.2c0,0.1,0,0.1,0,0.2
		C156.6,37,156.8,37,156.9,37z M156.5,40 M156.6,39.2 M157.4,34.9c-0.2,0-0.2-0.1-0.4-0.1c-0.3,0.4-0.2,1.1-0.3,1.5
		C157.1,36.1,157.4,35.6,157.4,34.9z M157.3,64.5c0,0.5-0.5,0.4-0.5,0.8C157,65.6,157.9,64.7,157.3,64.5z M156.9,38.1
		c0.4,0,0.6-0.9,0.4-1.3c-0.2,0.2-0.1,0.6-0.4,0.5C157,37.8,157,37.8,156.9,38.1z M157.1,54.7c0,0.2-0.3,0.1-0.2,0.4
		C157.1,55.2,157.4,54.8,157.1,54.7z M157.3,36.4c0-0.1,0-0.1,0-0.2c-0.1,0-0.2,0-0.3,0c0,0.1,0,0.1,0,0.2
		C157.1,36.4,157.2,36.4,157.3,36.4z M157.5,34.5c0-0.4,0-0.5-0.4-0.4c0,0.1,0,0.3,0,0.4C157.3,34.5,157.4,34.5,157.5,34.5z
		 M157.5,39.7c-0.1-0.4,0-0.5,0.1-0.8c-0.4,0-0.6,0.9-0.3,1C157.3,39.8,157.4,39.7,157.5,39.7z M157.4,34c0.3,0,0.5-0.5,0.2-0.5
		c0,0.1-0.2,0.1-0.3,0.1C157.2,33.7,157.3,33.9,157.4,34z M157.7,33c0.3,0,0.1,0.4,0.4,0.3c0.2-0.2,0-0.8-0.3-0.8
		C157.8,32.6,157.7,32.7,157.7,33C157.2,32.9,157.7,33.3,157.7,33z M157.5,34.7 M157.6,36 M157.7,35.3 M158,63.9
		c0,0.2-0.5,0.4-0.2,0.6C157.9,64.3,158.5,64.1,158,63.9z M157.9,34.7c0.3,0.2,0.3-0.4,0.1-0.4c0,0.1,0,0.2-0.1,0.2
		C157.9,34.5,157.9,34.6,157.9,34.7z M158.6,31.7c0-0.3,0-0.4-0.1-0.6c-0.1,0-0.3,0-0.4,0c0.3,0.4-0.2,0.4-0.2,0.8
		C158.3,31.7,158.2,31.5,158.6,31.7z M157.9,51c0.1,0,0.1,0,0.2,0c0.1-0.1,0.1-0.3-0.1-0.3c0,0,0,0.1-0.1,0.1
		C157.9,50.9,157.9,50.9,157.9,51z M158.1,36.5c0,0.1-0.3,0.4,0,0.4C158.2,36.9,158.4,36.6,158.1,36.5z M158.1,32.1
		c0,0.2-0.2,0.3,0,0.4C158.1,32.3,158.3,32.2,158.1,32.1z M158.2,36c0.4-0.1,0.4-0.4,0.5-0.7c-0.2-0.2-0.5,0.1-0.6,0.4
		C158.5,35.7,158.3,35.7,158.2,36z M158.8,30.8c0.1-0.6,0.1-0.8,0-1.4c-0.1,0-0.3,0-0.3,0.1c0.4,0.3-0.4,0.8,0,1.1
		C158.7,30.2,158.4,31,158.8,30.8z M158.9,33.7c-0.3,0.2-0.3,0.6-0.4,1C158.8,34.6,159,33.9,158.9,33.7z M159.2,29
		c-0.3-0.3,0.3-0.5-0.2-0.6c-0.1,0.3-0.2,0.4-0.3,0.6C158.9,29,159.1,29,159.2,29z M159,30.6c-0.2,0.2-0.1,0.5-0.1,0.8
		C159.4,31.4,159.2,30.8,159,30.6z M159.6,27.6c0.1-0.4-0.2-0.4-0.4-0.4c0.1,0.3-0.2,0.3-0.1,0.5C159.4,27.8,159.3,27.3,159.6,27.6z
		 M159.1,30.5 M159.3,32.5c0-0.1,0-0.2,0-0.3c0,0-0.1,0-0.2,0c0,0.1,0,0.2,0,0.3C159.2,32.5,159.3,32.5,159.3,32.5z M159.1,33
		c0,0.2,0.1,0.3,0.2,0.3C159.3,33.1,159.2,33,159.1,33z M159.1,35.1 M159.1,52.7 M159.7,28.2c0-0.2-0.1-0.3-0.4-0.2c0,0,0,0.1,0,0.2
		C159.5,28.2,159.6,28.2,159.7,28.2z M160.2,25.6c-0.4-0.4-1.1,0.9-0.6,1.1C159.7,26.2,159.9,25.8,160.2,25.6z M159.5,61.8
		 M159.7,27.6 M159.7,51.4 M159.7,29 M159.7,32.9 M160.2,27.2c0,0.4-0.7,1-0.2,1.2C159.8,27.8,160.8,27.5,160.2,27.2z M159.8,26.3
		c0.1,0.2-0.1,0.6,0.2,0.5C160,26.6,160.2,26.4,159.8,26.3z M160,46.7 M160,47.1 M160.4,23.3c-0.1,0.4-0.5,1.6-0.3,1.7
		C160.5,24.6,160.5,23.8,160.4,23.3z M160.6,29.3c-0.5,0,0.1-0.6-0.4-0.5c-0.1,0.4-0.1,0.8-0.2,1.1
		C160.4,29.9,160.5,29.5,160.6,29.3z M160.4,49.4c0.2,0.4-0.4,0.6-0.1,0.9C160.3,50.1,160.9,49.5,160.4,49.4z M160.3,30.6
		c0,0.3,0.2,0.4,0.4,0.4C160.6,30.8,160.5,30.7,160.3,30.6z M160.4,24.9 M160.6,28.2c0-0.1,0-0.2,0-0.3c-0.1,0-0.2,0-0.3,0
		c0,0.1,0,0.2,0,0.3C160.5,28.2,160.5,28.2,160.6,28.2z M160.4,62.1c0,0.1,0,0.2,0,0.3C160.7,62.5,160.7,61.9,160.4,62.1z
		 M160.5,22.9c-0.1,0.3,0,0.4,0.2,0.4C160.9,23.1,160.8,22.8,160.5,22.9z M160.7,23.8c0,0.2-0.4,0.6-0.1,0.7
		C160.6,24.4,161,24,160.7,23.8z M160.5,29.8 M160.8,25.5c0-0.1,0-0.2,0-0.3c-0.1,0-0.1,0-0.2,0c0,0.1,0,0.2,0,0.3
		C160.7,25.5,160.7,25.5,160.8,25.5z M161.4,22c-0.2,0-0.1-0.3-0.4-0.2c0.1,0.4-0.3,0.3-0.2,0.6C161,22.3,161.3,22.2,161.4,22z
		 M160.7,29.2 M160.8,18.9 M161.2,23.6c0,0.4-0.3,0.6-0.4,0.9C161.2,24.5,161.5,23.7,161.2,23.6z M160.8,24.9 M160.9,27 M161.1,21.6
		c0.3,0.1,0.3-0.4,0.1-0.4c0,0.1,0,0.1-0.1,0.1C161.1,21.4,161.1,21.5,161.1,21.6z M161.1,28.2c0,0.1,0,0.2,0,0.3
		C161.4,28.6,161.4,28,161.1,28.2z M161.4,23c0,0.2-0.2,0.3-0.1,0.4C161.5,23.7,161.5,23,161.4,23z M161.4,20.1
		c-0.1,0.1-0.2,0.8,0,1C161.4,20.8,161.8,20.2,161.4,20.1z M161.3,48.2 M161.4,22.9 M161.7,24c-0.1,0.4-0.4,1-0.1,1.3
		C161.4,24.7,162.3,24.3,161.7,24z M161.6,44.2c-0.1,0-0.3,0.4,0,0.4C161.6,44.6,161.9,44.2,161.6,44.2z M161.6,19.8
		c-0.1,0.3,0.3,0.5,0.3,0.3C161.7,20.1,161.7,19.9,161.6,19.8z M161.6,19.3 M161.6,22 M161.6,22.5 M161.6,27.3 M161.6,46
		c0,0,0.1,0,0.2,0c0-0.1,0-0.1,0.1-0.1c0-0.1,0-0.2,0-0.3c-0.1,0-0.1,0-0.2,0c0,0.1,0,0.2-0.1,0.2C161.6,45.8,161.6,45.9,161.6,46z
		 M161.8,19c0.4-0.2,0.4-0.6,0.5-1.1c0.2-0.1,0.3-0.2,0.4-0.4c-0.4,0.2-0.1-0.4-0.4-0.4c-0.2,0.3-0.1,0.5,0,0.8
		C162,18.1,161.6,18.6,161.8,19z M162.2,20.2c0,0.1,0,0.2,0,0.4C162.4,20.6,162.4,20,162.2,20.2z M162.3,22.7 M162.4,19.5
		 M162.5,21.1c0,0.1-0.1,0.2-0.1,0.4C162.7,21.6,162.7,21,162.5,21.1z M162.5,41.4 M162.8,16c-0.2,0.2-0.4,0.7-0.1,0.9
		C162.7,16.8,163.1,16.2,162.8,16z M163.2,18.1c0-0.1,0-0.1,0-0.2c-0.2,0-0.2-0.1-0.3-0.1c-0.1,0.1-0.5,0.4-0.1,0.6
		C162.9,18.2,163,18.1,163.2,18.1z M162.7,14.2 M162.7,17c0,0.3,0.1,0.4,0.3,0.5C163,17.3,163,17,162.7,17z M163.4,15.1
		c0,0.1,0,0.4,0.1,0.4c0.2-0.1,0.3-0.8-0.2-0.7c-0.3,0.3-0.4,0.7-0.5,1.1C163.3,15.9,163.2,15.3,163.4,15.1z M162.9,41.8 M163.5,17
		c0-0.2-0.1-0.3-0.3-0.2c0,0.1,0,0.1,0,0.2C163.3,17,163.4,17,163.5,17z M163.2,21.3 M163.2,40 M163.5,40.2 M163.6,16.8 M163.9,18.1
		c0-0.1,0-0.1,0-0.2c-0.1,0-0.2,0-0.3,0c0,0.1,0,0.1,0,0.2C163.7,18.1,163.8,18.1,163.9,18.1z M163.6,19.7 M163.9,13.9
		c0.3,0,0.3-0.2,0.5,0c0.1-0.4-0.5-0.4-0.6-0.3C163.8,13.7,163.8,13.8,163.9,13.9z M164.1,12.4c0,0.1-0.1,0.2-0.1,0.4
		C164.4,12.9,164.5,12.4,164.1,12.4z M164,37.8c0,0.1,0,0.4,0.1,0.4C164.1,37.9,164.5,37.7,164,37.8z M164.5,11.9
		c-0.4-0.1-0.4,0.4,0,0.4C164.5,12.2,164.5,12,164.5,11.9z M164.3,37.3 M164.7,39.7c0.1-0.4-0.4-0.4-0.4-0.1
		C164.5,39.6,164.5,39.8,164.7,39.7z M164.4,38.4 M164.9,37.9c-0.1-0.2,0.1-0.5-0.3-0.4c0,0.2-0.2,0.3-0.1,0.4
		C164.6,37.9,164.7,37.9,164.9,37.9z M164.5,15.8 M164.6,11.5c0.3,0.2,0.4-0.4,0.1-0.4c0,0.1,0,0.2-0.1,0.2
		C164.6,11.4,164.6,11.5,164.6,11.5z M164.7,36.4 M165,12.8c-0.4-0.1-0.4,0.4-0.2,0.5C164.9,13.2,165.1,13.2,165,12.8z M165,34.8
		c0-0.1,0-0.3-0.2-0.2C164.9,34.7,164.8,34.9,165,34.8C164.9,34.9,164.9,34.8,165,34.8z M164.9,10.4 M164.9,14.6 M165.6,36.3
		c-0.3,0-0.4,0-0.4,0.4C165.4,36.7,165.5,36.5,165.6,36.3z M165.2,37.4 M165.7,34.7 M165.7,36.5 M166.1,33.7
		c0.1,0.4-0.3,0.3-0.2,0.5C166.3,34.3,166.4,33.9,166.1,33.7z M165.9,9 M166.5,8.3c0-0.2-0.2-0.3-0.4-0.2c0,0,0,0.1,0,0.2
		C166.2,8.3,166.3,8.3,166.5,8.3z M166.3,12.4 M166.3,36.3 M166.6,36.9 M166.7,31.6 M167,34.3 M167.2,7.8 M167.6,6.7
		c-0.2,0.2-0.2,0.7,0.2,0.6C167.6,7.1,168,6.8,167.6,6.7z M167.5,8.5 M168.4,27.9c0.1,0.4-0.4,0.3-0.2,0.7
		C168.4,28.5,168.8,27.9,168.4,27.9z M168.4,24.1 M168.9,23.2c-0.2,0-0.2-0.2-0.2-0.4C168.8,22.9,168.9,23,168.9,23.2z M168.8,6.3
		 M168.8,25.7c0.3,0.2,0.3-0.4,0.1-0.3c0,0.1,0,0.1-0.1,0.1C168.8,25.6,168.8,25.7,168.8,25.7z M169,22.3 M169.3,28.2
		c0-0.1,0-0.2,0-0.2c-0.1,0-0.2,0-0.3,0c0,0,0,0.1,0,0.2C169.1,28.2,169.2,28.2,169.3,28.2z M169.7,20.7c0,0.1,0,0.2,0,0.4
		C170,21.2,170,20.5,169.7,20.7z M170.3,19.6c0-0.1,0-0.2,0-0.2c-0.1,0-0.2,0-0.3,0c0,0,0,0.1,0,0.2
		C170.2,19.6,170.2,19.6,170.3,19.6z M170.3,18.6 M171.7,17.4c0,0.2,0,0.4-0.1,0.4C172,17.8,171.9,17.5,171.7,17.4z M172.6,13.9
		c0-0.3-0.3-0.3-0.5-0.3c0,0.1,0,0.2,0,0.3C172.4,13.9,172.2,13.9,172.6,13.9z M172.4,13 M172.5,11.2c0,0.3,0,0.5,0.2,0.5
		C172.8,11.6,172.8,11.2,172.5,11.2z M172.5,12.5 M172.6,11 M177.9,70.3 M178.5,70.2c0-0.1,0-0.2,0-0.3c-0.1,0-0.2,0-0.2,0
		c0,0.1,0,0.2,0,0.3C178.3,70.2,178.4,70.2,178.5,70.2z M179.2,69.3c-0.3,0-0.6,0.4-0.2,0.4C179.1,69.5,179.2,69.4,179.2,69.3z
		 M181.1,67.9c-0.5,0.1-1.3,0.7-1.6,1.4C180,68.9,180.7,68.5,181.1,67.9z M185.7,64.2c-1.4,1.3-3.2,2.2-4.5,3.7
		C182.7,66.8,185,65.4,185.7,64.2z M183,67.7c0,0.4-0.6,0.1-0.5,0.5C182.8,68.2,183.5,67.8,183,67.7z M183.3,67.1c0,0.1,0,0.3,0,0.4
		C183.6,67.7,183.6,66.9,183.3,67.1z M184.3,66.5c-0.5-0.2-0.7,0.5-0.3,0.5C184.2,66.9,184.3,66.8,184.3,66.5z M184.8,67.4
		 M186.9,63.3c-0.2,0.4-1,0.4-0.9,1C186.2,64.3,187.5,63.5,186.9,63.3z M186,65.9c0.1-0.4,0.3-0.5,0.6-0.5
		C186.6,65.6,186.3,65.7,186,65.9z M186.9,65.3c-0.2-0.1-0.1-0.3-0.2-0.4C187.2,64.8,186.9,65.2,186.9,65.3z M187.7,62.8
		c-0.3,0-0.6,0.4-0.4,0.4C187.4,63.1,187.7,63.2,187.7,62.8z M187.8,62.7c0.1,0,0.2,0,0.3,0c0.1-0.2,0.1-0.3-0.1-0.4
		c-0.1,0.1-0.1,0.2-0.2,0.2C187.8,62.5,187.8,62.6,187.8,62.7z M189.9,61c-0.5,0.3-1,0.6-1.3,1.2C189.3,62,189.5,61.5,189.9,61z
		 M191,59.8"/>
	<path class="st0" d="M200.9,58.9c-1.1,2.7-3.7,3.9-5.7,5.7c-1.7,0.4-3.8,1.5-5.4,0.4c-1,1.3-1.1,3-1.5,4.9c3.7,2.6,9.1-0.8,12.8-2
		c2.1-1.2,4.3-2.3,6.6-3.3c0.3-0.4,0.8-0.4,1.1-0.7c0.3,0.8-1.6,1.3-2.2,1.9c0,0.2,0.2,0.1,0.4,0.1c-2.5,2.2-5.3,3.6-8.6,4.8
		c0.6,0,2,0,2.8-0.4c-0.1,0.4-0.4,0.5-0.8,0.7c0,0.2,0.5-0.1,0.4,0.3c-1.1,0.4-2.1,1.4-2.6,1.1c-0.4,0.2-0.1,0.4-0.3,0.6
		c-2.4,1.1-4,1.8-7.2,1.8c-4.3-0.9-4.8-5.1-4.3-9c1.6-4.9,5.1-10.4,10.1-12.8c0.9-0.4,2-0.3,2.9-0.3c0.7,0.1,0.9,0.6,1.5,0.7
		c0.2,1.1,0.9,1.6,1.5,2.2C202.1,57.1,202.4,58,200.9,58.9z M196.3,56.9c-1.5,1.2-2.9,2.4-4,3.9c3-1.5,5.7-3.3,7.4-6
		c-1.5,0.6-3.3,1.1-4.2,2.3C195.7,57.2,196,56.5,196.3,56.9z M194.7,72c0.4-0.3,0.7-0.4,1.2,0c0.2-0.2-0.2-0.5,0.2-0.5
		c0.6,0,1.7-0.4,2.2-0.8c-1.3,0.7-3.1,0.3-4.1,0.8C194.4,71.5,194.7,71.2,194.7,72z M194.8,57.5 M200.9,70.7 M209.3,63.7
		 M209.3,63.7"/>
	<path class="st0" d="M240.3,85c0.1,0,0.2-0.1,0.3-0.2c0,0,0.1,0,0.2,0c0-0.2-0.2-0.1-0.2,0c-0.2-0.1-0.3-0.2-0.3-0.4
		c1.5,0.5,2.8-0.6,4.8-0.8c-0.1,0.2-0.5,0.2-0.9,0.5c-0.9,0-1.8,0.7-2.4,1.1c0.3,0.3,0.6-0.3,1.1-0.1c0.2-0.1,0.1-0.3,0.1-0.4
		c0.4-0.1,0.8-0.3,1-0.4c0.3,0.4-0.6,0.6-0.9,0.4c0.1,0.5,1-0.2,0.9,0.4c0.1-0.2,0.2-0.4,0.2-0.6c0.3,0.5,0.4-0.1,0.8,0.3
		c0.1,0,0.1-0.3,0.1-0.4c0.2,0,0.4,0.1,0.3,0.4c0.4-0.3,0.6-0.5,0.9-0.7c0.4-0.1,0,0.1,0.2,0.3c0.3-0.1,0.7-0.1,0.7-0.5
		c0,0.4,1.2,0.5,1.1-0.1c0.4,0.3,0.5-0.1,0.6-0.4c0.2,0,0.2,0.2,0.2,0.4c0.5,0,0.7-0.3,1.4-0.4c0.1-0.1,0.1-0.3-0.1-0.3
		c1.2-0.4,2.5-0.6,3.5-1.2c0,0.1-0.1,0.1-0.1,0.2c1.7-0.6,4-0.7,6-1.2c0,0.1,0,0.2,0,0.3c1.6-0.7,3.6-0.9,4.8-0.5
		c1.7-0.7,5.1-0.5,7.4-0.2c0.1-0.1,0.2-0.2,0.2-0.4c1.1,0.3,1.3,0.8,2.7,0.9c0,0.2,0.1,0.2,0.2,0.2c0.1-0.2-0.1-0.2-0.2-0.2
		c-1.1-0.8-2.1-1.1-3.6-1.4c0.2,0,0.3-0.1,0.4-0.2c-0.2-0.4-0.8,0-1.2-0.4c-0.3,0-0.2,0.4-0.4,0.5c-0.4-0.4-0.3-0.1-1-0.1
		c0-0.2,0.2-0.2,0.2-0.4c-0.3-0.1-0.6,0.2-0.9-0.2c-0.2,0-0.3,0.2-0.2,0.4c-0.2,0-0.2-0.2-0.2-0.4c-1,0.3-1.2-0.3-1.7,0.3
		c-0.3-0.7-1.3,0.2-1.3-0.4c-0.4,0.1-0.3,0.4-0.8,0.2c0.2-0.7,1.3-0.5,1.7-0.3c0.3,0,0.4-0.1,0.4-0.4c4.2,0,11,0,11,6.2
		c-0.1,0-0.2,0-0.2,0.2c-0.6-0.3-0.7-1-1.4-1.2c-1.1-1.9-5-2.2-7.8-2.2c-7.8,0-16,2.3-23,4.6c-0.5,0.5-1,0.4-1.3,0.9
		c-1.3-0.1-1.8,0.9-3.1,1.2c-2.2,1.2-4.6,2.2-6.6,3.5c0,0.5,0,0.6-0.3,0.9c-0.4,0.1-0.8,0-1-0.2c-2.7,1.2-3.6,4-7.4,4.1
		c-0.7-0.9-1.3-1.7-1.6-2.9c0.3-2,2.1-2.5,3.8-3.1c1.2-0.7,2.1-1.7,3.5-2.1c0.4-3.1,1.8-5.7,2.2-8.5c3.1-8.1,5.7-16.8,9-24.3
		c0.9-3.9,2.8-7.6,3.9-11.6c1.1-1.8,1-3.7,2.2-5.4c1.3-4.5,3.3-9.5,4.9-13.7c0-0.3,0-0.5,0-0.8c1-1.5,1.3-4,1.6-5.9
		c0.6,0.3,0.7,0.9,1.5,0.9c0.4,0.9,1.4,1.3,2,2.1c0,1.7-0.4,2.9-1,3.8c0.2,0.4-0.3,0.7,0,0.8c-1.3,2.3-1.5,4.4-2.9,6.6
		c-0.1,0.9-0.4,2.2-1.3,2.9c0,2.5-1.7,3.8-1.8,5.9c-0.7,0.8-0.9,2.2-1.4,3.1c0,0.2,0.1,0.3,0.3,0.3c-0.2,0.2-0.3,0.4-0.6,0.4
		c0.1,1.2-0.7,2.3-1.1,3.1c-0.4,2.5-2,4.8-2.3,6.9c-0.4,0.5-1.2,1.9-0.9,2.7c-1.1,1.3-1.3,3.7-2.2,4.9c-0.1,0.3,0.2,0.2,0.1,0.5
		c-1,1.8-1.5,4.1-2.5,6c0.1,1.2-0.8,2.2-0.8,3.4c-0.3,0.1-0.3,0.4-0.4,0.4c-0.3,2-1.3,3.6-1.6,5.5c-0.8,1.2-0.9,3-1.7,4
		c0,0.2,0.2-0.1,0.2,0.1c-0.4,1.5-0.7,2.2-1,3.8c1.2-0.8,2-0.8,3.2-1.4c0.3,0.6-0.6,0.5-0.2,1c0.4,0,0.2-0.4,0.4-0.5
		c0.4,0,0.7,0.5,0.9,0c0-0.4-0.4,0.3-0.4-0.1c0-0.4,0.4,0,0.6-0.3c0,0.2-0.2,0.2-0.1,0.4c0.4,0.2,0.4-0.4,0.3-0.6
		C240,84.4,240.1,84.9,240.3,85z M244.5,50.1c-0.1-0.1-0.3-0.2-0.5-0.2c0,0.7-0.4,0.8-0.1,1.4c-0.3,0-0.7,0.4-0.4,0.5
		c0.1-0.2,0.4,0.1,0.4,0.1c-0.2,0.3,0.1,0.3-0.1,0.4c-0.3-0.1-0.3-0.4-0.4-0.1c-0.3,0.4-0.3,1.1-0.8,1.2c0.3,0.1,0.4,0.3,0.4,0.5
		c-0.6,0.2-0.2,0.9-0.9,1.1c-0.2,2.1-1.4,3.6-1.7,5.7c-0.1-0.1-0.1-0.2-0.2-0.2c-0.3,0.3,0,0.4,0.1,0.5c-0.3-0.1-0.2,0.3-0.4,0.3
		c-0.1,1.7-1.3,2.7-1,4.3c-0.2,0-0.1-0.4-0.4-0.3c-0.2,0.8-0.6,1.2-0.8,1.9c0.1,0.3,0.4,0.3,0.4,0.6c-0.2,0-0.2-0.2-0.4-0.2
		c-0.2,0.4-0.4,0.8-0.5,1.4c-0.6,0.1,0,0.9-0.6,0.9c-0.1,0.3,0.2,0.3,0.1,0.5c-1.3,2.7-1.8,5.9-3.2,8.5c-0.1,0.3,0.4,0.2,0.3,0.5
		c-0.9,0.7-0.4,1.7-1.1,2.6c0.3,1.6-1.4,3.6-0.6,4.9c-0.3,0-0.3-0.2-0.4-0.1c0,0.2-0.4,0.8,0,0.7c1-1,1.3-2.7,1.6-3.9
		c-0.1,0.2,0.1,0.2,0.2,0.2c0-0.6,0.4-1.3,0.1-1.8c0.3-0.1,0.1-0.4,0.4-0.4c-0.2-0.2-0.4-0.6,0.3-0.6c0.1-1.4,0.7-2.3,0.9-3.6
		c0,0.2,0.1,0.2,0.2,0.3c0-0.3,0.2-0.8,0-1c1-0.4,0.2-2.1,1.3-2.4c0-0.1-0.1-0.4-0.2-0.6c0.4,0,0.1-0.7,0.6-0.7
		c0.1-0.4-0.4-1.2,0.2-0.8c0-1.3,0.9-2.2,0.9-3.2c0.1,0,0.2,0,0.3,0c0.3-1.4,1-2.3,1.3-3.8c0.1,0.1,0.2,0,0.2-0.1
		c-0.1,0-0.2-0.1-0.2-0.2c0.4-0.4,0.8-1.3,0.6-2c0.4,0,0.7-0.8,0.3-1c0.6-0.4,1.3-2.1,1-2.8c0.3-0.1,0.3,0,0.5-0.2
		c-0.4-0.7,0.9-1.2,0.3-1.7c0.7-0.3,0.2-1.1,0.8-1.4c0.1-0.3-0.2-0.2-0.2-0.4c0.2,0.1,0.2-0.1,0.3-0.1c0.1-0.4-0.3-0.2-0.2-0.5
		c0.8,0,1.1-1.4,1-2.4c0.6,0,0.4-1,0.6-1.3c-0.2-0.4-0.4,0.3-0.4,0c0-0.2,0-0.3,0.1-0.3c0.3,0,0.4,0.1,0.7,0c-0.3-0.7,0-1.3,0.5-1.6
		c-0.4-0.1-0.5-0.2-0.8,0.1c-0.1-0.4,0.2-0.3,0.1-0.5c-0.1,0-0.3,0-0.4,0c-0.1,0.4,0.1,0.4,0.3,0.5
		C244.6,49.9,244.7,50.1,244.5,50.1z M232,86.3 M232.4,85.4c-0.1,0-0.2,0.1-0.2,0.1c-0.1,0-0.1-0.2-0.1-0.3
		C232.4,85.2,232.4,85.3,232.4,85.4z M232.6,83.5c0-0.1,0.1-0.2,0.1-0.3C233,83.4,232.8,83.8,232.6,83.5z M233.1,82.3 M233.3,81.7
		 M233.3,84.4 M233.6,84.8c-0.1,0.3,0,0.4,0.2,0.4C233.8,85.1,233.9,84.7,233.6,84.8z M233.6,85.4 M233.8,79.8 M233.9,82.6
		 M234.1,83.6c0,0.1-0.2,0.5,0.1,0.5C234,83.9,234.5,83.6,234.1,83.6z M234.1,83.4 M234.2,78.3 M234.2,81.4 M234.4,77.6 M235.4,87.1
		c0.1-0.4-0.4-0.2-0.6-0.4c0,0.2-0.4,0.4-0.1,0.7C234.9,87,234.9,86.9,235.4,87.1z M234.6,81.9 M234.9,76.8 M234.9,76.8 M235,76.5
		 M235.2,76c-0.2-0.1-0.1-0.3-0.1-0.4C235.5,75.5,235.3,75.9,235.2,76z M235.1,78.9 M235.3,75.1c0-0.2,0-0.4,0.4-0.4
		C235.6,74.8,235.6,75.1,235.3,75.1z M235.5,78.2c0-0.2,0-0.3-0.2-0.3C235.3,78.1,235.3,78.2,235.5,78.2
		C235.4,78.2,235.4,78.1,235.5,78.2z M235.3,79.5 M235.5,86.6 M235.9,86.9c0,0.2-0.4,0.1-0.4,0.3C235.9,87.3,236.3,87,235.9,86.9z
		 M235.7,78.5 M235.8,86.5c0.2,0,0.5,0.1,0.4-0.2c0.3-0.1,0.2,0.2,0.4,0.2c-0.1-0.4,0.3-0.4,0.4-0.5c0,0.2,0,0.4,0.1,0.4
		c0-0.4,0.4,0,0.5,0c0.1-0.4-0.1-0.5-0.2-0.7c-0.4,0.1-1.2,0.1-1.3,0.6C235.9,86.1,235.9,86.3,235.8,86.5z M236.4,75.1 M236.8,75.7
		C237,75.6,236.6,75.2,236.8,75.7C236.6,75.8,236.8,75.9,236.8,75.7z M237,74.7 M237.6,69.3c0,0.2,0,0.4-0.1,0.4
		c-0.2,0-0.3-0.1-0.4-0.3C237.4,69.5,237.5,69,237.6,69.3z M238,70.4c-0.1,0.1-0.3,0.5,0,0.5C238,70.8,238.2,70.6,238,70.4z
		 M237.9,75.5c0.1-0.1,0.2,0,0.2-0.2C238,75.4,237.9,75.3,237.9,75.5z M238.2,71.7c0.3-0.4,0.4-0.7,0.4-1.1
		C238.4,70.8,238.2,71.2,238.2,71.7C237.8,71.7,238.3,72.1,238.2,71.7z M238.2,85.8 M238.6,85.2c-0.2-0.1-0.4-0.1-0.3-0.4
		c0.2,0,0.4,0,0.5,0C238.9,85,238.6,84.9,238.6,85.2z M238.6,69.4c0,0,0-0.1,0-0.2c-0.1,0-0.1,0-0.2,0c0,0.1,0,0.2,0,0.2
		C238.5,69.4,238.5,69.4,238.6,69.4z M238.5,70.4c0.1,0,0.2,0,0.2-0.1C238.6,70.3,238.5,70.3,238.5,70.4z M239,69.2
		c-0.1,0.2-0.4,0.6-0.1,0.7C238.9,69.7,239.3,69.4,239,69.2z M239.4,84.4c0,0.4-0.4,0.4-0.5,0.3C238.7,84.3,239.2,84.5,239.4,84.4z
		 M238.9,65.5 M239.1,65.2c0-0.3,0-0.4,0-0.7C239.5,64.5,239.4,65.1,239.1,65.2z M239.4,68.8c0,0,0-0.1,0-0.2c-0.1,0-0.2,0-0.3,0
		c0,0.1,0,0.2,0,0.2C239.3,68.8,239.4,68.8,239.4,68.8z M239.3,66.9 M239.4,65.5C239.4,65.6,239.4,65.6,239.4,65.5
		C239.4,65.6,239.3,65.5,239.4,65.5z M239.5,84.4c0.1,0,0.1,0,0.2,0c0,0.1,0,0.2,0,0.3C239.6,84.7,239.4,84.6,239.5,84.4z
		 M239.5,63.8 M239.7,63.7c-0.3-0.1,0-0.5-0.1-0.8C240,62.8,239.8,63.6,239.7,63.7z M239.6,66.3 M240,62.7c-0.5-0.2,0.3-0.5,0.2-1
		C240.5,62.1,240,62.4,240,62.7z M239.8,65.5 M240,66.7 M240,67.7 M241.2,84.2c-0.4-0.2-0.9,0.2-1.3,0.3c0.3-0.4,1-0.5,1.4-0.8
		C241.6,84,241.2,83.8,241.2,84.2z M240.7,60.5c0.2,0.4,0,1.1-0.4,1.1c0.2-0.2-0.1-0.3,0-0.6C240.8,61.1,240.4,60.5,240.7,60.5z
		 M240.3,62.7 M240.3,65.6 M240.3,65.2c0.3,0.1,0.4-0.4,0.2-0.4c-0.1,0.1-0.1,0.1-0.2,0.1C240.3,65,240.3,65.1,240.3,65.2z
		 M240.5,66.3 M240.7,85.9c0-0.1,0-0.2,0-0.2c-0.1,0-0.2,0-0.2,0s0,0.1,0,0.2C240.5,85.9,240.6,85.9,240.7,85.9z M240.8,64.2
		c0,0.2-0.2,0.3-0.2,0.4C240.9,64.8,241.1,64.3,240.8,64.2z M240.8,62.9 M241.1,59.4 M242,57.9c-0.4-0.2-0.2,0.4-0.4,0.5
		c-0.4-0.2,0-1,0.4-1C242,57.6,242,57.7,242,57.9z M241.4,58.9 M241.4,62.4c0.2,0,0.2,0.2,0.3,0C241.7,62.3,241.5,62.3,241.4,62.4z
		 M241.4,85.4 M242.2,83.7c-0.3-0.2-0.3,0-0.5,0c0.1-0.4,0.3-0.2,0.7-0.4C242.3,83.5,242.1,83.5,242.2,83.7z M241.9,56.8
		c-0.1-0.3,0.3-0.2,0.3-0.4C242.3,56.4,242.1,56.9,241.9,56.8z M241.9,61.1c0.1,0,0.2,0.2,0.3,0C242.1,61,241.9,60.9,241.9,61.1z
		 M242.4,60.4c-0.3-0.1-0.4,0.1-0.3,0.4C242.4,60.8,242.4,60.7,242.4,60.4z M242.9,54.5c0.1,0.2-0.2,0.2-0.3,0.2
		c0-0.1,0.1-0.1,0.1-0.2C242.9,54.5,242.9,54.5,242.9,54.5z M242.8,83.3c0.1-0.4,0.6-0.6,1-0.4C243.6,83.2,243.1,83.5,242.8,83.3z
		 M243.5,58.6c0-0.1,0.1-0.4-0.1-0.4c-0.4,0.3,0.3-0.6-0.2-0.4c0,0.4-0.6,0.6-0.3,1C242.9,58.4,243.4,58.5,243.5,58.6z M242.9,59.1
		 M243,53.9 M243,57.2 M243.4,53.1c0,0.1-0.2,0.1-0.2,0.1C243.2,53.1,243.3,53.1,243.4,53.1z M243.3,54.3 M243.4,57.4 M243.6,57.2
		c0.3,0.2,0.4-0.4,0.2-0.4c-0.1,0.1-0.1,0.2-0.2,0.1C243.6,57.1,243.6,57.1,243.6,57.2z M243.8,57.3c0,0.2-0.4,0.5,0,0.6
		C243.8,57.9,243.9,57.3,243.8,57.3z M243.8,56.4c-0.2,0.4,0.5,0.4,0.5,0.2C244,56.4,244,56.6,243.8,56.4z M243.8,58.6 M244.1,83.1
		c-0.4-0.1,0.1-0.5,0.4-0.5C244.6,82.9,244.2,82.8,244.1,83.1z M244.8,84.4c-0.3-0.3-0.5,0.2-0.8-0.1c0-0.1,0.1-0.1,0.1-0.2
		C244.3,84.4,244.9,83.8,244.8,84.4z M244.1,55.2 M244.3,50.8 M244.5,54.5c0,0.2-0.1,0.2-0.1,0.4C244.7,55.1,244.7,54.5,244.5,54.5z
		 M244.5,52.7c0.1,0,0.2,0.2,0.2,0C244.7,52.6,244.5,52.6,244.5,52.7z M244.5,54.3c0.3,0.2,0.3-0.4,0.1-0.3c0,0,0,0.1-0.1,0.1
		C244.5,54.2,244.5,54.3,244.5,54.3z M244.9,49.3c0.8-0.1,0.4-1.9,1-1.3c-0.1-0.3,0.1-0.3,0.1-0.4c-1,0.1-1,0.5-1.4,1.2
		C244.8,48.8,244.9,49,244.9,49.3z M244.6,56.6 M244.7,82.6c0-0.5,0.6-0.2,0.7-0.4C245.6,82.7,244.9,82.6,244.7,82.6z M244.8,53.6
		 M244.8,53.7 M245,50.2 M245.2,82.1 M245.5,83.8c0,0.1,0,0.2,0,0.3c-0.1,0-0.2,0-0.3,0c0-0.1,0-0.2,0-0.3
		C245.3,83.8,245.4,83.8,245.5,83.8z M245.6,47.3c0.5-0.1,0.4-0.7,0.5-0.1c0.2-0.4,0-0.5,0.1-1.1c0.4,0.1,0.9-0.7,0.4-0.8
		c-0.1,0.4-0.5,0.4-0.9,0.6C246.4,46.3,245.5,46.6,245.6,47.3z M245.6,48.2 M245.7,49.4 M245.7,82 M246,82.5c0,0,0,0.1,0,0.2
		c-0.1,0-0.2,0-0.3,0c0-0.1,0-0.2,0-0.2C245.8,82.5,245.9,82.5,246,82.5z M245.7,83.8 M245.9,50.9c-0.1,0.1-0.3,0.3,0,0.4
		C245.9,51,246.1,51,245.9,50.9z M246.3,48.2c-0.3-0.1-0.3,0.3-0.3,0.5C246.3,48.7,246.3,48.4,246.3,48.2z M246,83.8
		c0-0.1,0.1-0.2,0.3-0.2C246.3,83.7,246.2,83.8,246,83.8z M246.6,82.1c-0.4,0.1,0.1,0.4,0,0.5c-0.2-0.2-0.5-0.3-0.5-0.5
		c0.1,0,0.2,0,0.4,0c-0.2-0.2-0.2-0.3,0-0.4c0.4,0,0.4,0.4,0.6-0.1c0.3,0,0.2,0.4,0.4,0.4C247.2,82.3,247,82,246.6,82.1z
		 M246.1,82.1 M246.3,50.4 M246.4,84.2c0-0.2,0.1-0.3,0.3-0.3C246.7,84.1,246.6,84.2,246.4,84.2z M247,44.8c-0.2,0-0.4,0-0.4,0
		c0,0.1,0,0.2,0,0.3C246.8,45,246.8,44.9,247,44.8z M246.6,47.2 M247,83.4c0,0.1,0,0.2,0,0.3c-0.1,0-0.2,0-0.3,0c0-0.1,0-0.2,0-0.3
		C246.8,83.4,246.9,83.4,247,83.4z M246.8,48.4 M246.8,49.2 M247.1,43.4c-0.3,0.2-0.3,0.4-0.1,0.8C247.3,44.2,247.4,43.5,247.1,43.4
		z M247.3,47.5c0-0.2,0-0.3-0.2-0.3C247.1,47.5,247.1,47.6,247.3,47.5C247.2,47.5,247.2,47.5,247.3,47.5z M247.5,42.3
		c-0.1,0.3-0.3,0.4-0.4,0.6c0,0.3,0.3,0.3,0.4,0.4c0-0.4,0.2-0.4,0.2-0.9c0.1,0,0.1,0,0.1,0c0-0.2,0.2-0.3,0.2-0.6
		c-0.2,0-0.4,0-0.4,0c-0.1,0.4,0.1,0.4,0.2,0.6C247.6,42.5,247.6,42.3,247.5,42.3z M247.5,81.7c0.1,0,0.3,0,0.3-0.1
		c0.3,0.2-0.1,0.8-0.3,0.4C247.5,81.9,247.5,81.7,247.5,81.7z M249.2,81.5c-0.5,0.1-1.1,0-1,0.7c-0.2,0.4,0-0.5-0.2-0.4
		c0.1-0.4,0.5-0.5,0.7-0.8C249.1,81,249.2,81.1,249.2,81.5z M248.1,83.4 M248.2,41.4 M248.4,40.5c0-0.1,0-0.2,0-0.3c0,0-0.1,0-0.2,0
		c0,0.1,0,0.2,0,0.3C248.3,40.5,248.4,40.5,248.4,40.5z M248.4,40.8 M248.4,82 M249.1,38.4 M249.4,37.8 M249.7,81.2 M249.8,83.2
		 M250.8,80.9c-0.1,0.3-0.4,0.3-0.5,0.1c0-0.2,0.4-0.1,0.3-0.4C250.6,80.8,250.6,80.9,250.8,80.9z M251,81c-0.1-0.4,0.3-0.4,0.6-0.4
		C251.7,81,251.3,80.9,251,81z M251.1,83c0.2-0.1,0.2,0.1,0.3,0C251.4,82.8,251.2,82.8,251.1,83z M252.1,80.7
		c-0.2,0.1-0.2-0.1-0.2-0.3C252,80.4,252.1,80.5,252.1,80.7z M252,82.2 M254.3,80.1c-0.7-0.1-1.1,0.6-2.1,0.4c0.2-0.6,1,0.1,0.9-0.7
		c0.3,0.7,0.4-0.4,1.1-0.1C254.2,80,254.3,80,254.3,80.1z M252.4,82.2 M252.9,82.5 M253.7,81.9 M253.8,81 M254.3,80.7
		c0,0.1,0,0.2,0,0.3c0,0-0.1,0-0.2,0c0-0.1,0-0.2,0-0.3C254.3,80.7,254.3,80.7,254.3,80.7z M255.9,79.8c0.4-0.4,0.7-0.3,1.4-0.4
		c-0.1,0.7-1,0.1-1.1,0.6c-0.3-0.3-1.4-0.1-1.6,0.4c-0.2-0.3-0.1-0.6,0-0.9c0.2,0.2,0.4,0.3,0.7,0.4c0.4-0.1,0-0.4,0.3-0.5
		C255.8,79.3,255.8,79.6,255.9,79.8z M254.9,82c-0.2-0.1-0.4,0-0.4,0.2C254.7,82.2,255.1,82.3,254.9,82z M255.3,82
		c-0.1,0-0.1,0-0.2,0c0,0.1-0.1,0.1-0.1,0.2C255.2,82.2,255.4,82.2,255.3,82z M255.7,80.4 M257.6,80c0.1,0.1-0.4,0.3-0.3,0.1
		C257.3,80.1,257.5,80,257.6,80z M257.9,81.5c-0.3,0-0.6,0-0.6,0.3C257.6,81.7,257.9,81.7,257.9,81.5z M257.9,79.8
		c-0.2-0.2-0.4-0.3-0.4-0.7c0.3,0,0.4,0.5,0.4-0.1C258.5,79.1,257.8,79.4,257.9,79.8z M259.4,78.9c-0.1,0.4,0,0.5,0.1,0.7
		c-0.4-0.2-0.8-0.1-1.1-0.3c-0.2-0.5,0.8,0.1,0.6-0.4C259.1,78.9,259.2,78.9,259.4,78.9z M258.4,80 M258.8,80c0-0.1,0-0.2,0-0.4
		C259.1,79.5,259.1,80.1,258.8,80z M260.1,79.6c-0.1,0.1-0.1,0.2-0.1,0.4c-0.1,0-0.2,0-0.3,0c0-0.1-0.1-0.2-0.1-0.4
		C259.8,79.6,259.9,79.6,260.1,79.6z M262.2,79.1c-0.1,0.1-0.2,0.1-0.3,0.3c-0.4,0-0.6-0.1-0.9-0.3c-0.2,0.1-0.3,0.1-0.3,0.3
		c0.1,0.4,0.4-0.3,0.4,0.2c-0.4,0.1-0.5-0.1-0.5-0.3c-0.3,0-0.3,0.3,0,0.3c-0.3,0.4-0.3-0.4-0.8-0.2c0.3-0.7,1.5-0.1,2.1-0.6
		C262,78.8,262.2,78.8,262.2,79.1z M261.7,79.6 M263.3,79.2c-0.3-0.2-0.5-0.4-0.9-0.2c0.1-0.1,0-0.2-0.1-0.2
		c0.3-0.2,0.7-0.2,1.1-0.2C263.5,78.9,263.2,78.9,263.3,79.2z M263.7,78.8c0-0.2,0.1-0.3,0.3-0.3C264,78.7,263.9,78.8,263.7,78.8z
		 M267.6,79.3c0,0.1-0.1,0.1-0.1,0.2c-0.1,0-0.1-0.1-0.3-0.1c0.1-0.1,0.2-0.1,0.2-0.2C267.5,79.2,267.5,79.3,267.6,79.3z
		 M268.4,79.4 M271,79.6 M273,79.9c0.1,0,0.2,0.1,0.2,0C273.2,79.8,273,79.7,273,79.9z"/>
	<path class="st0" d="M268.3,66.5C268.3,66.3,268.3,66.5,268.3,66.5c-0.4,0.4-1.2,0.5-1.1,0.9c-0.4,0.4-0.9,0.4-1.4,0.8
		c-3.7,2.3-8.3,10.1-13.6,8c-0.2-0.6-0.5-1.1-0.7-1.6c0-0.4-0.4,0.2-0.4-0.2c-0.3-0.4-0.4-0.9-0.7-1.3c1.3-6.3,4.7-10.4,8-14.8
		c1.3-1,2.8-2.2,4.8-2.2c2,0.4,4.3,1.1,4.7,3.5c0.2,1.3-0.4,2.2-0.9,3.1c0.7,0,1.5-0.7,2.7-0.5c1.6,0.6,1.9,3.9,0.7,5.1
		c0.8,1.3-0.8,3.3-0.2,4.8c9-1.4,14-7.8,19.5-13.1c-0.6,4.8-5.5,7.2-8.6,10.4c-2.1,1.2-3.6,2.2-5.8,3.2c0.2,0.3,0.5-0.3,0.9-0.2
		c-0.1,0.3-0.4,0.2-0.4,0.4c3.7-1.3,6-4.3,9.2-5.7c-0.1-0.3-0.4,0.1-0.5,0c0.2-0.3,0.4-0.8,0.6-0.2c0.3-0.6,1.3-1.7,2.5-2
		c-3.9,4.7-8.8,7.8-14.7,10.6c-0.8,0.1-1.4-0.2-2.2-0.2c-1.3-0.4-1.8-1.2-2.4-2.3C268.1,71.3,268,68.5,268.3,66.5
		C268.3,66.6,268.3,66.5,268.3,66.5z M252.3,73.3c0.2,0,0.3,0.2,0.4,0.2C252.9,73.1,252.3,73.1,252.3,73.3z M252.7,73 M252.8,72.7
		c0.2-0.3,0.4-0.4,0.4-1c0.2,0,0-0.1,0,0C253.1,72,252.6,72.5,252.8,72.7z M253.4,71.2 M265.1,63.6c-0.7-0.6-0.3-2.8-0.4-3.6
		c-5.9,1.9-8.1,7.5-10.7,12.7C258.6,70.5,261.4,66.8,265.1,63.6z M263.1,67.4 M263.4,67.1 M265.2,65.8c0-0.2,0.3-0.1,0.3-0.4
		c0.1,0,0.1,0.1,0.2,0.1c0.1-0.1,0.1-0.2,0.1-0.4c-0.2,0-0.3,0.1-0.3,0.3C265.2,65.3,265,65.8,265.2,65.8z M266.4,64.5
		c0,0.3-0.4,0-0.4,0.4C266.1,65,266.7,64.7,266.4,64.5z M266,65.7 M266.3,67.7 M266.7,64.2 M266.7,67.4 M275.3,72.8
		c-0.4,0-0.7,0-0.6,0.4C274.8,73,275.2,73,275.3,72.8z M275.7,72.9c-0.4,0.1-0.7,0.2-0.9,0.5C275.2,73.3,275.6,73.3,275.7,72.9z
		 M277.1,70.3c-0.3-0.1-0.4,0.1-0.4,0.3C276.9,70.5,277,70.3,277.1,70.3c0.1,0,0.2,0,0.3,0c-0.2,0.4-0.6,0.4-1,0.6
		c0-0.2,0.4-0.4,0-0.4c-0.2,0.4-0.4,0.9-0.9,0.4c-0.1,0.3-0.4,0.7,0,0.7c4.8-2.5,9.5-5.8,12.7-9.9c-3.5,3-6.7,6.1-10.8,8.4
		C277.2,70.1,277.1,70.1,277.1,70.3z M275.9,71 M276.6,72.5c-0.3-0.1,0.2-0.4,0.4-0.4C277,72.4,276.6,72.3,276.6,72.5z M287,64.6
		 M287.6,64.5c0.2,0.1,0.2-0.2,0.5-0.1C288.2,64.8,287.5,65,287.6,64.5z M287.9,64.1c0.1-0.2,0.4-0.2,0.4-0.4
		C288.5,63.8,288.2,64.2,287.9,64.1z M288.6,61.4c-0.3,0.1-0.5,0.1-0.4,0.4C288.4,61.9,288.5,61.6,288.6,61.4z M288.7,61.1"/>
	<path class="st0" d="M313.7,3.9c0,0.3,0.3,0,0.2-0.2c0.4,3.9-0.2,7.5-1.1,10.3c0.3,0.1,0.3,1.3-0.4,1.2c0.4,0.6,0.2,1.6-0.3,2
		c-0.1,2.1-1.2,3.5-1.4,5.5c-0.2,0.2-0.5-0.1-0.6,0.4c0,0.2,0.3,0.1,0.4,0.1c-0.3,0.6-0.3,1.1-0.4,1.8c-0.2,0.1-0.3-0.1-0.4-0.1
		c0.5,1-0.5,1.4-0.6,2.1c-0.1,0-0.1,0-0.1,0c0,0.1,0.1,0.1,0.1,0c0.1,0,0.2,0,0.3,0c0,0.4-0.2,0.4-0.6,0.4c0.8,0.5-0.4,0.9-0.4,1.6
		c0.1,0.3,0.3-0.1,0.4,0c-0.5,1.3-1.4,2-1.3,3.5c-0.3,0.2-0.2,0-0.4,0c0.3,0.6-0.4,1.1-0.8,1.3c0,0.2,0.4,0,0.5,0.1
		c-0.4,0.9-0.4,2.2-1.4,2.3c0,1.7-1,4.1-2.3,5.7c0.8,0.6-0.8,1.5-0.4,1.9c-0.1,0.2-0.3,0.2-0.4,0.2c0.2,0.7-0.2,1.5-1.1,1.9
		c0.2,1.3-0.7,2.1-1.3,2.8c0,0.4,0.4,0.3,0.3,0.5c-0.7,0.8-1.3,1.6-1.6,2.9c-0.3,0.1-0.8-0.3-0.8,0.4c0.1,0.3,0.4,0.1,0.4-0.1
		c0.1,0.7-0.4,1-0.6,1.6c-0.3,0.1-0.3-0.2-0.4-0.2c-0.2,0.1,0.4,0.5-0.4,0.4c0,0.2,0.2,0.2,0.3,0.3c0.1,0.4-0.3,0.3-0.3,0.5
		c-0.4-0.2-0.8,0-1.1,0.3c0.1,0.2,0.2,0.4,0.3,0.6c-1.1,0.4-0.7,2-2.2,2.2c-0.3,0.7-0.3,1.6-0.9,1.9c0,0.2,0.3,0.2,0.4,0.3
		c-0.4,0.3-0.1,1.2-0.7,1.2c0.3,0.4,0,1.1,0.2,1.4c0.9-0.9,1.9-1.7,2.7-2.7c1.6-1.1,3.1-2.6,5.1-3.5c4-1.1,8-0.4,8.4,3.7
		c0.2,3.2-0.7,6.2-2.4,8.8c-1,3.3-3.5,6.2-5.6,9c-1.3,0.6-2.3,1.6-3.8,2.3c-2.1,0.1-4.3-1.2-5.4-2.8c0.2-4.8,3.2-9,5.8-12.4
		c0,0.3,0.4,0.6,0,0.9c-0.1-0.1-0.1-0.2-0.3-0.3c-0.3,0.1-0.4,1.2-0.1,0.5c0.1,0,0.1,0,0.1,0c-1.9,3.2-3.3,7.5-3,10.8
		c5.3-3.7,10.6-12.1,9.8-19.4c-0.1,0-0.2,0-0.2-0.1c-0.9,0.2-1.1,0.7-2.1,0.9c-0.6,0.9-3.1,1.7-3.6,3.1c-1.3,1.2-2.9,2.2-3.8,3.9
		c-0.4,0.1-0.3,0-0.6,0c0.5,0.5-0.3,1.3-1,1.3c-0.1,0.4,0.4,0.2,0.4,0.5c-0.6,0.2-0.9,1.6-2,1.7c-0.4,0.9-0.2,2.3-0.8,2.6
		c0.1,1.8-0.5,2.8-0.7,4.9c0.4,0.1,0.2-0.4,0.5-0.3c-0.1,0.8-0.7,1.1-0.8,1.9c0,0.4,0.2-0.1,0.4,0c-1.5,3-1.4,5.4-1.6,8.6
		c-1.3,0.2-2.8-0.3-3.4-1.6c-0.9,0.4-1.2-0.8-1.9-1.1c0.1-7.1,2.9-13.4,3.5-19.9c0.3-0.2,0.4-1.1,0.3-1.3c0.4-0.3,0.1-0.6,0.4-1
		c-0.7-1-1.8,0-2.7-0.7c1.2-0.9,2.7-2,3.5-2.9c-0.4-0.4-0.1-0.9,0-1.4c0.2,0,0.3,0,0.3,0.2c0.4-0.5,0.4-1.8,0.6-2.6
		c0.3,0,0.2,0.2,0.4,0c0-1.3,1.1-3,0.5-4c2.1-6.3,3.1-12,4.5-18c0.5-0.5,1.3-2.6,1.1-3.5c0.4-0.2,0.6-1.1,0.4-1.6
		c0.4-0.2,0.6-0.9,0.4-1.4c0.4-0.4,1-1.3,0.6-1.7c0.4-0.5,1.1-1.5,0.7-2.4c0.3,0.1,0.4,0,0.5-0.1c-0.2-1.5,1.1-2.3,1.1-3.9
		c0.2,0,0.2,0.2,0.1,0.3c0.5-1.7,1.4-3.1,1.8-4.9c0.5-0.2,0.8-1.1,0.7-1.6c0.2,0,0.3,0.1,0.4,0.1c1.1-2.6,2.4-5.3,4.1-7.6
		c0.2-1.2,1.5-2.1,2.3-3c0-0.2-0.3-0.1-0.3-0.4c0.8-0.4,1.4-0.6,2.5-0.4c0.2,0.3,0,0.2,0,0.4c0.7,0.1,1,0.5,1.7,0.6
		c0,1,1.7,1.2,1.6,2.6C313.7,3.7,313.7,3.8,313.7,3.9z M288.2,67.7c-0.3-0.2-0.4,0.4-0.7,0.1c0.3-0.1,0.4-0.4,0.6-0.4
		c-0.4-0.4,0-1.5,0.4-1.9c-0.7-0.3,0.6-0.6-0.1-0.9c0.3,0,0.4-0.6,0.2-0.9c-0.3,0.9-0.9,1.3-1.1,2.2c0.3,0,0.4,0.1,0.4,0.3
		c-0.2,0.1,0,0.5-0.4,0.4c0.1-0.1,0.3-0.5-0.1-0.4c0.1,0.4-0.1,0.4-0.1,0.7c0.3-0.1,0.3,0.2,0.4,0.4c-0.7,0.6-0.4,2-0.9,2.7
		C287.4,69.1,287.7,68.1,288.2,67.7C288.6,67.7,288.3,67.3,288.2,67.7z M287,82.5c0-0.1,0-0.1,0-0.2c-0.1,0-0.1,0-0.2,0
		c0,0.1,0,0.1,0,0.2C286.9,82.5,286.9,82.5,287,82.5z M286.9,79.3 M286.9,81.5 M287,81.8 M287.3,76.5 M287.3,80.7 M287.4,80.2
		 M287.6,79.5c0-0.2,0-0.4,0-0.4c0.1,0,0.1,0,0.1,0c0.1-0.5,0.3-0.7,0.3-1.3c-0.4,0.2-0.5,1-0.4,1.3
		C287.4,79.1,287.3,79.4,287.6,79.5z M287.6,55.6 M287.6,76.1 M287.6,57.5C288,57.5,287.6,57.1,287.6,57.5
		C287.4,57.9,287.8,58.3,287.6,57.5z M287.9,56.3c-0.3,0-0.2-0.2-0.3-0.4C287.8,56.1,287.9,56.2,287.9,56.3z M287.9,55
		c-0.3-0.1-0.1-0.5,0.2-0.4C288.2,54.9,287.9,54.8,287.9,55z M287.9,55.4 M288.1,77.2c0-0.1,0-0.2-0.2-0.2c0,0.1,0,0.3,0.1,0.4
		C288,77.3,288,77.2,288.1,77.2z M288,76.4c0,0.1-0.2,0.3,0,0.4C288,76.6,288.2,76.5,288,76.4z M288.1,65 M288.2,66.3 M288.4,66
		 M288.4,75.2 M288.5,51c0-0.3,0.1-0.3,0.1-0.4C288.8,50.5,288.7,51,288.5,51z M288.5,52.1 M288.6,72.9c0,0.1-0.3,0.5,0,0.5
		C288.7,73.2,289,72.9,288.6,72.9z M288.5,53.9c0.2-0.1,0-0.6,0.2-0.7C288.9,53.3,288.8,54,288.5,53.9z M288.6,51.6 M288.7,49.6
		c0-0.1,0-0.1,0-0.2c0.1,0,0.2-0.1,0.2-0.1C289.1,49.2,289,49.8,288.7,49.6z M288.7,51.2 M288.7,65.8 M288.9,52.3 M288.9,66.4
		 M288.9,79.9c0-0.1,0-0.2,0-0.3C289.2,79.4,289.2,80,288.9,79.9z M289,72.2c-0.2,0.3,0.4,0.4,0.3,0.1
		C289.2,72.3,289.2,72.2,289,72.2z M289.1,63c-0.2,0.2-0.2,0.4,0.1,0.4C289.4,63.3,289.4,63,289.1,63z M289,49.2
		c0.5-1.5,0.1-3.7,1.5-4.8C289.7,45.7,289.7,48.3,289,49.2z M289.3,64.1c-0.3,0-0.3,0.3-0.3,0.4C289.3,64.5,289.3,64.2,289.3,64.1z
		 M289.1,65 M289.3,71.7 M289.4,72.1 M289.5,49.6 M289.7,65.7 M290,48.5c-0.4,0.4-0.3-0.4-0.2-0.5C290.2,48.1,289.7,48.6,290,48.5z
		 M290,67.1 M291.2,61.2c-0.1-0.1-0.1-0.2-0.2-0.2c-0.5,1.3-1.2,2.9-1,4.5C290.6,64.3,291,62.3,291.2,61.2
		C291.4,61.1,291.2,61,291.2,61.2z M290.2,45.9 M290.5,44c-0.3,0-0.1-0.4,0-0.4C290.8,43.6,290.5,44,290.5,44z M290.6,45.6
		c-0.4-0.1-0.1-0.6,0.2-0.7C290.8,45.1,290.5,45.2,290.6,45.6z M290.8,41.5c-0.6-0.3,0.4-0.4,0.3-0.8
		C291.6,40.9,290.9,41.4,290.8,41.5z M290.6,42.7 M290.8,44 M291.3,40.5c-0.1,0-0.1-0.3-0.1-0.4C291.6,39.9,291.4,40.4,291.3,40.5z
		 M291.2,66.6 M291.7,38.9c0,0.2,0,0.4,0,0.4c-0.3,0.1-0.4-0.1-0.4-0.4C291.4,38.9,291.6,38.9,291.7,38.9z M291.3,60.8 M291.4,60.4
		C291.8,60.4,291.3,59.9,291.4,60.4C291.3,60.5,291.5,60.6,291.4,60.4z M291.4,59.3 M292,62.1c0.1-0.3-0.4-0.2-0.4-0.4
		c0,0.1,0,0.3,0,0.4C291.7,62.1,291.9,62.1,292,62.1z M291.8,45.9c0.1,0.3-0.4,0.4,0,0.4C291.8,46.3,292,46,291.8,45.9z M291.7,37.2
		c0.1-0.6,0.1-0.6,0.4-1.1C292.4,36.4,292.2,37.1,291.7,37.2z M291.8,61.2c0,0.1-0.2,0.2,0,0.3C291.8,61.4,292,61.3,291.8,61.2z
		 M291.8,45.6 M291.8,65.8c0.9-0.5,1.3-1.7,2.1-2.3c0.2-0.1,0.3-0.2,0.3-0.4c-0.2,0-0.3,0.1-0.3,0.4C292.8,63.9,292.4,65,291.8,65.8
		z M291.9,45.1 M292.1,57.6c0-0.1,0-0.2,0-0.2c-0.1,0-0.2,0-0.3,0c0,0,0,0.1,0,0.2C292,57.6,292,57.6,292.1,57.6z M299.2,57.5
		c-3,1.7-6,4-7.4,7.1C294,61.9,296.5,59.7,299.2,57.5z M292,56.6 M292.1,35.7c-0.1-0.4,0.2-0.4,0.2-0.7
		C292.9,35,292.5,35.8,292.1,35.7z M292.1,56.4 M292.1,60.5 M307.9,2.8c-0.4,0.2-0.7,0.4-0.6,0.9c-0.1,0-0.2,0-0.3,0
		c-7.7,10.8-11.5,25.9-14.7,39.7c1.4-3.3,1.8-6.9,2.8-10c0.3,0.3,0.6,0.1,0.5-0.3c0-0.4-0.4,0.2-0.3-0.2c0.1-0.5,0.1-0.6,0.3-0.9
		c0.4,0.3,0.4-0.3,0.8-0.2c-0.4-0.5,0.2-1.1,0.2-1.7c-0.2-0.3-0.4,0.2-0.4-0.1c0.3-0.4,0.1-0.8,0.4-1.2c0.3,0.2-0.3,0.8,0,1
		c0.4-0.4,0.4-1.3,0-1.6c0.6-1.3,0.6-2.5,1.4-3.6c-0.1,0.9-0.6,1.3-0.5,2.3c0.6-0.3,0.4-2.7,1.3-3c0.1-0.3-0.2-0.2-0.2-0.4
		c0.8-1.3,1.4-3.1,1.4-4.8c-0.4,0.5-0.2,1.6-0.8,1.9c1-2.3,1.3-4,2.4-6.2c0.4,0.2,0.4-0.2,0.9,0.2c-0.1-0.4-0.4-0.8-0.1-1.3
		c0.2,0,0.2,0.2,0.4,0.1c0-0.4,0.4-0.7,0.1-0.9c0.4-0.9,0.5-2.1,1.5-2.5c0.4-2.6,2.9-5.2,3.9-7.5c-0.4,0.4-0.9,1.6-1.4,1.7
		c-0.1-0.4,0.3-0.3,0.3-0.6C307.6,3.5,307.8,3.3,307.9,2.8z M293.2,53.8c-0.4-0.1,0-0.5-0.3-0.6c0,0.5-0.8,0.9-0.4,1.5
		C292.6,54.3,292.9,54.1,293.2,53.8z M292.9,33.2 M293,55c0.1,0.2-0.3,0.4,0,0.5C293,55.3,293.5,55.2,293,55z M306.4,23
		c1.8-6.2,4.2-11.8,4.6-20c-0.2,0-0.1-0.2-0.3-0.3c-10.1,12.3-14.2,32.1-17.8,48.9C298.5,43.1,302.5,32.3,306.4,23z M292.9,73.1
		 M293.2,31.9c0.2-1.2,0.4-2.3,1.1-3.1c0-0.4-0.1-0.5-0.2-0.8c0.1-0.1,0.4,0,0.4-0.2C294.4,29.2,293.9,30.8,293.2,31.9z M293.2,72.8
		 M293.3,32.2 M293.4,72.2 M293.7,57.1c0-0.1,0.1-0.1,0.1-0.2c-0.1,0-0.2-0.1-0.3-0.1c0,0.1-0.1,0.1-0.1,0.2
		C293.6,57.1,293.7,57.1,293.7,57.1z M293.8,71.2c0,0.2-0.4,0.4-0.1,0.4C293.7,71.6,294.1,71.4,293.8,71.2z M293.7,52
		c0.2-0.2,0.4-0.4,0.8-0.4c-0.4-0.4,0.2-0.7,0-1.1C294.4,51,293.9,51.4,293.7,52C293.6,52,293.7,52.1,293.7,52z M293.8,55.4
		 M293.9,53.9 M294,70.9 M297.7,47c-0.3,1-1.3,1.8-1.4,2.6c-0.3,0.1-0.5,0.1-0.5,0.4c0.3,0.1,0.4-0.4,0.4,0
		c-0.3,0.2-0.7,0.2-0.7,0.6c0.2,0,0.3,0,0.3,0.1c-0.1,0.4-0.5,0.4-0.5,1c-0.4-0.3-0.6,0.4-0.4,0.8c-0.1,0.1-0.3,0.1-0.4,0.1
		c0.1,0.4-0.2,0.6-0.3,1c0.4-0.3,0.4-1,1-1c0.9-2.5,2.3-3.9,3.2-6.5c-0.3,0-0.4,0.4-0.6,0.4C297.6,46.8,298.1,47,297.7,47
		C297.7,46.6,297.3,47.1,297.7,47z M294.6,62.4c-0.1,0.2-0.4,0.1-0.4,0.4C294.6,62.9,294.6,62.7,294.6,62.4c0.4-0.1,0.4-0.4,0.5-0.6
		c0.2-0.2,0.9-0.4,0.4-0.5c0.1,0.4-0.4,0.1-0.4,0.5C294.8,61.8,294.8,62.2,294.6,62.4z M295,55.5c-0.3,0.1-0.7,0.1-0.6,0.4
		C294.6,55.9,295,55.9,295,55.5z M294.5,27.6c0-0.4,0.4-0.6,0.6-0.8C295,27.2,295,27.7,294.5,27.6z M294.6,69.5
		c0,0.2-0.2,0.2-0.2,0.4C294.6,70,294.9,69.6,294.6,69.5z M295.4,53.3c-0.2,0-0.3-0.2-0.4-0.1c0.1,0.4-0.4,0.1-0.4,0.4
		C294.7,53.8,295.2,53.6,295.4,53.3z M295.4,26.4c-0.3,0.4-0.4-0.1-0.7,0.4c0.1-0.4,0.1-0.7,0.3-1C295.1,25.9,295,26.4,295.4,26.4z
		 M294.6,50.2 M302.5,33.5c-2.1,5.7-5.2,11.2-7.6,17.1C297.8,45.4,301.2,39.2,302.5,33.5z M295,35.3 M295,35.6 M295.1,27.9
		 M295.5,34.3c-0.2,0-0.3,0.1-0.4,0.2C295.4,34.4,295.5,34.3,295.5,34.3z M295.5,68.5c0,0,0-0.1,0-0.2c-0.1,0-0.2,0-0.3,0
		c0,0.1,0,0.2,0,0.2C295.3,68.5,295.4,68.5,295.5,68.5z M295.6,24.3c0,0.4,0.1,0.5,0.1,0.8c-0.2,0-0.3-0.4-0.3,0.1
		C295,25.2,295.4,24.3,295.6,24.3z M295.4,25.7 M295.5,68C295.9,68,295.5,67.6,295.5,68C295.2,68.1,295.6,68.5,295.5,68z
		 M295.6,25.5c-0.2,0.1-0.3-0.1-0.2-0.3C295.5,25.2,295.6,25.3,295.6,25.5z M295.6,52.3c0,0.2-0.2,0.3,0,0.4
		C295.6,52.5,295.8,52.4,295.6,52.3z M295.7,62.9 M296.2,30.5c-0.1,0.5,0.3,0.8-0.3,0.9C296.1,31.2,295.7,30.5,296.2,30.5z
		 M295.9,31.4 M295.9,67.5 M296,23.7 M296.2,51.1c0.1,0.3-0.2,0.2-0.2,0.4C296.3,51.7,296.4,51.2,296.2,51.1z M296,77.3 M296.2,77.2
		 M298.1,74.7c-0.4,0.9-1.3,1.4-1.7,2.2C297.1,76.4,298.2,75.7,298.1,74.7z M296.5,50.2c0,0.2,0.1,0.3,0.2,0.4
		C296.7,50.4,296.6,50.3,296.5,50.2z M296.6,21.6 M297.1,66.4c-0.1,0-0.2,0-0.3,0c-0.1-0.1-0.1-0.3,0.3-0.3
		C297.1,66.2,297.1,66.3,297.1,66.4z M296.8,22.6 M297.6,27.9c-0.2-0.2,0-0.7-0.4-0.6c-0.1,0.4-0.3,0.8-0.4,1.3
		C297.3,28.5,297.1,27.8,297.6,27.9z M297.1,52.4c0,0,0-0.1,0-0.2c-0.1,0-0.2,0-0.3,0c0,0.1,0,0.2,0,0.2
		C296.9,52.4,297,52.4,297.1,52.4z M297.1,52.8c-0.2,0.2-0.2,0.4,0.2,0.4C297.3,53,297.2,52.9,297.1,52.8z M297,21 M297.1,60.1
		 M297.6,19.5c0,0.1,0,0.2,0,0.3c-0.2,0-0.3,0-0.4,0c0-0.2,0.2-0.2,0.2-0.4C297.4,19.4,297.5,19.5,297.6,19.5z M297.3,61.5
		c0,0,0-0.1,0-0.2c0,0-0.1,0-0.2,0c0,0.1,0,0.2,0,0.2C297.3,61.5,297.3,61.5,297.3,61.5z M298.8,58.7c-0.5,0.3-1,0.6-1.4,1.1
		C298,59.6,298.5,59.2,298.8,58.7z M297.5,65.3c0-0.3,0.3-0.4,0.3-0.6C298.1,64.9,297.8,65.4,297.5,65.3z M297.6,51.5 M297.6,61.2
		 M298.1,47.9c-0.1,0.3-0.4,0.4-0.4,0.6C298,48.4,298.4,48,298.1,47.9z M298.1,64.5c-0.1,0.3-0.5-0.1-0.3-0.3
		C298,64.3,297.9,64.5,298.1,64.5z M297.8,18.3 M297.8,18.7 M297.8,46.1c0.3,0.2,0.4-0.3,0.8,0c0.4-1.4,1.5-2.7,1.3-3.7
		c-0.5,0.8-1,1.5-1.1,2.4C298.1,44.9,298.2,45.7,297.8,46.1z M298.1,24.6 M298.1,17.9c-0.2,0,0-0.2,0-0.3
		C298.3,17.7,298.1,17.8,298.1,17.9z M298.2,24.2c-0.4-0.2,0.2-1,0.2-1.4C299,23,298.1,23.7,298.2,24.2z M298.4,76.6
		c-0.4-0.1-0.4,0.7-0.1,0.8C298.5,77.3,298.2,77,298.4,76.6z M298.1,47.5c0,0.1,0,0.2,0,0.3c0.2,0,0.2-0.1,0.2-0.3
		c0.3,0,0.4-0.1,0.4-0.3c-0.3-0.1-0.4,0.1-0.4,0.3C298.2,47.5,298.2,47.5,298.1,47.5z M298.1,64.1 M298.6,22.4
		c0.3-0.6,0.1-1.1,0.7-1.3C299,21.5,299.1,22.2,298.6,22.4z M301.3,70c-0.7,1.7-2.2,3.1-2.7,4.7C299.4,73.1,300.9,71.7,301.3,70z
		 M298.8,63.6c0-0.1,0-0.2,0-0.3C299.1,63.2,299.1,63.8,298.8,63.6z M303.7,67.9c-1.3,2.7-3.5,6-4.9,8.5c0.8-0.3,0.7-1.6,1.6-1.5
		c0.1-0.4-0.3,0.2-0.4-0.2c0.2-0.2,0.3-0.4,0.5-0.4c1.1-2.6,3.5-5.4,3.9-8.6c-0.1,0.2-0.2,0.3-0.4,0.3
		C304.3,66.7,303.6,67,303.7,67.9z M299.2,46.3c0-0.2,0-0.4-0.1-0.4c0,0.3-0.4,0.2-0.3,0.4C299,46.3,299.1,46.3,299.2,46.3z
		 M298.9,15.2c0-0.3,0.2-0.4,0.4-0.4C299.2,15,299.1,15.2,298.9,15.2z M298.9,16.8 M299.1,25.7 M299.1,47.8 M299.2,16.3 M299.2,16.3
		 M299.2,58.5 M299.4,45.2c0,0.1-0.2,0.3,0,0.4C299.4,45.4,299.6,45.3,299.4,45.2z M299.5,14.4 M299.8,22.7 M299.9,44.1
		c0,0.2,0,0.4,0.2,0.4C300,44.3,299.9,44.2,299.9,44.1z M299.9,12.7 M300.3,47c0-0.1,0-0.4-0.3-0.3c0,0.1,0,0.2-0.1,0.3
		C300,47,300.2,47,300.3,47z M304,33.3c-0.4,0.5-0.9,1.3-0.9,1.9c-1.1,1.9-2.1,4.3-3.1,7C301.6,39.5,302.8,36.6,304,33.3
		c0.5-0.6,1.1-1.8,1.1-2.6c0.3-0.3,0.4-0.7,0.5-1.1c-0.5,0-0.5,0.6-1,0.7c0.3,0,0.4,0.2,0.4,0.4C304.4,31.4,304.2,32.5,304,33.3z
		 M300.3,44c0-0.2-0.1-0.3-0.3-0.3C300.1,43.9,300,44,300.3,44C300.2,44,300.2,43.9,300.3,44z M300.2,20.3 M300.3,20 M300.4,13.6
		 M300.4,43.4 M300.9,19.9C300.8,19.9,300.8,19.9,300.9,19.9c-0.2-0.1-0.3-0.1-0.4-0.1c0,0.2-0.2,0.5,0,0.7
		C300.7,20.3,300.8,20.1,300.9,19.9z M300.9,41.6c-0.1,0.5-0.3,0.9-0.1,1.3C301,42.6,301.2,41.8,300.9,41.6z M301.8,15.7
		c-0.2,0-0.1-0.3-0.3-0.3c-0.2,0.5-0.8,1.3-0.6,1.9C301.2,16.8,301.4,16.1,301.8,15.7z M300.9,18.2 M300.9,45 M301.4,43.7
		c0,0.2-0.1,0.4,0.1,0.4C301.6,44,301.6,43.8,301.4,43.7z M301.4,17.1 M301.4,40.9 M301.6,40.3c0,0.1,0,0.2,0,0.3
		C301.9,40.7,301.9,40.1,301.6,40.3z M301.6,69.4 M301.6,15.1 M301.6,43.4 M302,42.6c-0.4-0.1-0.4,0.4-0.1,0.4
		C301.9,42.9,302.1,42.9,302,42.6z M302.1,39.5c-0.2,0-0.4,0.4-0.2,0.4C301.9,39.7,302.2,39.8,302.1,39.5z M301.8,69 M302,14.3
		c-0.4-0.2,0.3-1,0.4-1.3C302.5,13.3,302.2,14,302,14.3z M302.1,39.2 M302.2,8.9 M302.2,41.8c0,0.1,0,0.2,0,0.3
		C302.5,42.2,302.5,41.6,302.2,41.8z M302.2,68.2 M302.4,38.7 M302.4,41.4 M302.5,8.4c0-0.2,0.1-0.3,0.3-0.3
		C302.7,8.3,302.6,8.4,302.5,8.4z M302.5,12.7c0.2-0.2,0.1-0.4,0.4-0.4c-0.2,0.1-0.2,0.4,0.1,0.4C302.9,13.1,302.6,12.6,302.5,12.7z
		 M303,33.5c0.5-1.7,1.8-3.5,1.8-5.5c-0.8,1.8-1.2,4.1-2.3,5.3C302.8,33.3,302.8,33.5,303,33.5z M302.6,40.2c0-0.1,0-0.2,0-0.3
		c-0.1,0-0.1,0-0.2,0c0,0.1,0,0.2,0,0.3C302.5,40.2,302.5,40.2,302.6,40.2z M302.5,38.1 M302.6,37.2c0.3,0,0.2,0.4,0.4,0.4
		C303.3,37.4,302.8,36.9,302.6,37.2z M302.9,11.8c-0.1-0.4,0.3-0.4,0.3-0.7C303.6,11,303.2,11.8,302.9,11.8z M303.1,39.9
		 M303.4,36.2c0.3,0.2,0.3-0.4,0.1-0.3c0,0.1,0,0.1-0.1,0.1C303.4,36.1,303.4,36.2,303.4,36.2z M303.4,38.2 M303.6,10.7
		c-0.3-0.2,0.1-0.5,0.1-0.7c0.1,0,0.1,0,0.1,0C303.9,10.4,303.7,10.5,303.6,10.7z M303.8,6.1c-0.4,0.2-0.1-0.4-0.2-0.6
		C304,5.4,303.8,5.9,303.8,6.1z M304.1,35.6c-0.1-0.2,0.1-0.7-0.1-0.7c0,0.3-0.3,0.4-0.4,0.6C303.8,35.5,303.9,35.6,304.1,35.6z
		 M304.1,36.7c-0.2,0-0.3,0.1-0.4,0.3C303.9,37,304,36.9,304.1,36.7z M304.1,9.6c0.2,0,0,0.5-0.3,0.4C303.8,9.7,304.1,9.8,304.1,9.6
		z M304,37.8c-0.1,0.2-0.2,0.4-0.2,0.5C304.2,38.6,304.2,37.8,304,37.8z M304.2,5.5c-0.2,0,0-0.3-0.2-0.3
		C304.1,4.9,304.4,5.4,304.2,5.5z M304.2,36.5c0-0.1,0-0.2,0-0.3c-0.1,0-0.2,0-0.2,0c0,0.1,0,0.2,0,0.3
		C304,36.5,304.1,36.5,304.2,36.5z M304.2,9.2c0.3-0.4,0.4-0.9,0.7-1.2C304.9,8.7,304.5,8.9,304.2,9.2z M304.3,65.3 M304.5,4.6
		c-0.4-0.3,0-0.7,0.3-0.7C304.9,4.4,304.5,4.4,304.5,4.6z M304.5,36.4c0.1,0,0,0.2,0,0.3C305.1,36.9,304.7,36,304.5,36.4z M304.7,10
		c0.1,0,0.2,0,0.2,0c0-0.1,0.1-0.2,0.2-0.2c0,0,0-0.1,0-0.2c-0.1,0-0.2,0-0.3,0c0,0.1,0,0.1-0.1,0.1C304.7,9.8,304.7,9.9,304.7,10z
		 M304.9,33.4c0-0.2,0-0.3,0-0.4c0,0-0.1,0-0.2,0c0,0.2,0,0.3,0,0.4C304.8,33.4,304.9,33.4,304.9,33.4z M304.8,36 M304.9,3.8
		c0.1-1,1.2-1,1.5-1.6C306.2,3,305.5,3.4,304.9,3.8z M305.4,7.1c0,0.4-0.3,0.6-0.5,0.9C305,7.6,305,7.2,305.4,7.1z M304.9,27.9
		c0.4,0,0.4-0.4,0.4-0.9c0.4-0.5,0.6-1.4,1-2.3c-0.4,0.6-0.9,1.3-1,2.3C305.1,27.1,305.1,27.7,304.9,27.9z M305.1,4.2 M305.1,32.8
		 M305.2,35.7c0,0,0-0.1,0-0.2c-0.1,0-0.2,0-0.2,0c0,0.1,0,0.2,0,0.2S305.1,35.7,305.2,35.7z M305.2,32.3
		C305.4,32.2,305.2,32.2,305.2,32.3C304.9,32.4,305.3,32.8,305.2,32.3z M305.6,31c-0.1,0.2,0,0.4-0.4,0.6
		C305.4,32,306.1,31.1,305.6,31z M305.2,34.8 M305.4,29.2c0.5,0,0.4-0.6,0.7-0.9c-0.3-0.1-0.4-0.4-0.5-0.2
		C306,28.7,305.1,28.9,305.4,29.2z M305.4,7c0-0.2,0.1-0.3,0.2-0.4C305.8,6.5,305.8,7.1,305.4,7z M305.8,33.8
		c-0.4-0.1-0.4,0.3-0.4,0.6C305.8,34.4,305.6,34,305.8,33.8z M306,30.6c0-0.1,0-0.2,0-0.3c0,0-0.1,0-0.2,0c0,0.1,0,0.2,0,0.3
		C305.9,30.6,306,30.6,306,30.6z M305.9,6.1c0.1-0.3,0.3-0.4,0.5-0.5C306.2,5.7,306.3,6.3,305.9,6.1z M305.9,9.3 M306,33.2
		 M306.2,28.1c0.1-1.5,1.3-3.1,1.1-4.3c-0.3,1-0.9,1.7-0.8,2.7C306,26.7,305.8,27.7,306.2,28.1z M306.2,29.4
		c-0.2,0.1-0.1,0.3,0.1,0.4C306.5,29.7,306.5,29.4,306.2,29.4z M306.3,24c0.2-0.1,0.4-0.1,0.4-0.4c-0.4,0.1-0.4-0.2-0.5,0
		C306.2,23.8,306.2,23.9,306.3,24z M306.2,30.8 M306.3,5.3 M306.4,31.7c0.1,0.3,0,0.4-0.1,0.5C306.7,32.4,306.9,31.6,306.4,31.7z
		 M306.7,1.8c0.3,0.2-0.1,0.4-0.3,0.4C306.3,1.9,306.7,2,306.7,1.8z M306.5,28.6 M306.9,31.4c0,0,0-0.1,0-0.2c-0.1,0-0.2,0-0.2,0
		c0,0.1,0,0.2,0,0.2S306.8,31.4,306.9,31.4z M307.2,5.9c0-0.1,0-0.2,0-0.2c-0.1,0-0.2,0-0.3,0c0,0,0,0.1,0,0.2
		C307,5.9,307.1,5.9,307.2,5.9z M306.9,27.3c0,0.1,0,0.4,0.1,0.4C307.2,27.5,307.2,27.3,306.9,27.3z M306.9,30.7 M307,1.6
		c0.3-0.4,0.4-0.8,0.9-0.9C307.8,1.1,307.4,1.3,307,1.6z M307.4,30.1c0-0.1,0-0.3-0.2-0.2C307.2,30,307.1,30.2,307.4,30.1
		C307.3,30.1,307.3,30.1,307.4,30.1z M307.5,23.7c0.3-0.6,0.9-1.3,0.8-2.1c-0.3,0.4-0.4,0.9-0.8,1C307.8,22.7,307.1,23.4,307.5,23.7
		z M307.6,26c0-0.1,0-0.2-0.2-0.2c0,0.1,0,0.3,0.1,0.4C307.5,26.1,307.5,26,307.6,26z M307.6,25.4 M307.6,28.9 M307.6,30.2
		 M307.9,21.1c0,0.2,0,0.4,0.1,0.4C308,21.2,308.2,21.2,307.9,21.1z M308.7,20.3c-0.5-0.1,0.3-0.4-0.1-0.5c-0.4,0.2-0.4,0.7-0.5,1.2
		c0.2,0.2,0.2-0.1,0.5,0C308.5,20.6,308.7,20.6,308.7,20.3C308.8,20.3,308.7,20.2,308.7,20.3z M308,27.5c0,0.2,0,0.4,0.3,0.4
		C308.3,27.7,308.2,27.6,308,27.5z M308.1,23.8 M308.4,26.3c0,0.2,0.1,0.4,0.3,0.3C308.7,26.4,308.6,26.3,308.4,26.3z M308.4,27
		 M308.5,24.7c-0.1,0.2,0.3,0.4,0.4,0.2C308.7,24.9,308.7,24.7,308.5,24.7z M308.5,2 M308.5,19.7c0.9,0-0.1-0.6,0.4-0.9
		c0.2,0,0.1,0.3,0.3,0.2c0-0.7,0.4-1.2,0.1-1.8c0.2,0,0.4,0,0.4-0.1c0-0.8-0.2-1.4,0.4-1.3c-0.1-0.4-0.4-1.3,0.2-1.4
		c-0.4-1,0.7-2.1,0.4-2.9c0,0.2-0.2,0.3-0.4,0.3C310.1,14.8,308.8,17.1,308.5,19.7z M308.7,25.9 M308.8,1.9c-0.1,0.4,0.4,0.4,0.4,0
		C309.1,1.9,308.9,1.9,308.8,1.9z M309.2,1.8 M309.5,24.3c0-0.1,0-0.1,0-0.2c-0.1,0-0.2,0-0.3,0c0,0.1,0,0.1,0,0.2
		C309.3,24.3,309.4,24.3,309.5,24.3z M309.6,21.5c0.2-0.3-0.4-0.4-0.3-0.1c0,0,0.1,0,0.1,0.1C309.5,21.5,309.5,21.5,309.6,21.5z
		 M309.9,21.9c0,0.1-0.1,0.4,0.1,0.4C310.1,22.2,310.3,21.8,309.9,21.9z M310.1,20c0,0.2-0.2,0.3,0,0.4
		C310.1,20.2,310.3,20.1,310.1,20z M310.6,20.3c0-0.2,0-0.3-0.2-0.3C310.4,20.2,310.4,20.3,310.6,20.3
		C310.5,20.3,310.5,20.2,310.6,20.3z M311,19.4c0.1-0.3-0.4-0.3-0.4-0.1c0.1,0,0.1,0,0.1,0.1C310.8,19.4,310.9,19.4,311,19.4z
		 M311.2,18.5c-0.3,0-0.4,0.2-0.4,0.4C311.2,19,311.2,18.8,311.2,18.5z M311.1,18.2 M311.5,9.8c-0.1,0.2-0.2,0.3-0.2,0.4
		C311.7,10.5,311.7,9.8,311.5,9.8z M312.1,8.6c-0.4-0.1-0.4,0.3-0.4,0.5C312.1,9.2,311.8,8.7,312.1,8.6z M312.2,13.5 M312.6,8
		C312.9,7.8,312.4,7.3,312.6,8C312.4,8,312.6,8,312.6,8z M312.7,3.7c-0.2,0.3,0.2,0.6,0.3,0.4C312.8,4,313,3.7,312.7,3.7z
		 M313.4,9.1"/>
</g>
</svg>
