<?xml version="1.0" encoding="utf-8"?>
<!-- Generator: Adobe Illustrator 21.0.2, SVG Export Plug-In . SVG Version: 6.00 Build 0)  -->
<svg version="1.1" id="Layer_1" xmlns="http://www.w3.org/2000/svg" xmlns:xlink="http://www.w3.org/1999/xlink" x="0px" y="0px"
	 viewBox="0 0 477.2 67.9" style="enable-background:new 0 0 477.2 67.9;" xml:space="preserve">
<style type="text/css">
	.st0{fill:#4E4E4E;}
	.st1{fill-rule:evenodd;clip-rule:evenodd;fill:#4E4E4E;}
</style>
<g>
	<g>
		<path class="st0" d="M82.6,0H109c14.3,0,24.1,6.6,24.1,21.8c0,15.7-8.4,22.5-23.5,22.5h-9.8v22H82.6V0z M99.8,30.5h2.9
			c6.2,0,12.4,0,12.4-8.1c0-8.4-5.7-8.4-12.4-8.4h-2.9V30.5z"/>
		<path class="st0" d="M182.7,46.5H149c0,6.5,3.4,10,10,10c3.4,0,5.9-1.1,7.7-4.1h15.4c-2.6,10.6-12.7,15.5-23,15.5
			c-15,0-26.1-8.4-26.1-24c0-15,10.3-24.1,25-24.1c15.7,0,24.7,9.7,24.7,25.1V46.5z M167.9,37.2c-0.8-4.3-4.8-7.1-9.1-7.1
			c-4.7,0-8.5,2.5-9.5,7.1H167.9z"/>
		<path class="st0" d="M203.8,28.6h0.2c3.1-5.5,8.4-8,14.6-8h3.1V36c-2.2-1.2-4.3-1.5-6.8-1.5c-8.9,0-11.1,5.9-11.1,13.6v18.2h-16
			V21.2h16V28.6z"/>
		<path class="st0" d="M260.2,35.9c-2.4-1.8-5.2-3.2-8.3-3.2c-6.2,0-11,4.8-11,11c0,6.5,4.7,11.1,11.3,11.1c2.8,0,5.9-1.1,8-3.1
			v13.5c-3.5,1.8-7.4,2.6-11.3,2.6c-13.4,0-24.5-9.9-24.5-23.6c0-14.5,11.1-24.5,25.3-24.5c3.7,0,7.4,0.9,10.6,2.6V35.9z"/>
		<path class="st0" d="M317.7,43.8c0,15.3-12.7,24-27.2,24c-14.4,0-27.2-8.6-27.2-24s12.7-24.1,27.2-24.1
			C305,19.7,317.7,28.4,317.7,43.8z M280.2,43.8c0,5.7,3.8,10.1,10.3,10.1c6.5,0,10.3-4.4,10.3-10.1c0-5.5-3.8-10.2-10.3-10.2
			C284,33.6,280.2,38.3,280.2,43.8z"/>
		<path class="st0" d="M338,66.4h-16V0h16V66.4z"/>
		<path class="st0" d="M395.1,66.4h-16v-5H379c-2.8,4.5-8.4,6.5-13.6,6.5c-13.4,0-22.8-11.2-22.8-24.1c0-12.9,9.2-24,22.6-24
			c5.2,0,10.6,1.9,14,5.9v-4.4h16V66.4z M359.1,43.8c0,5.7,3.8,10.1,10.3,10.1c6.5,0,10.3-4.4,10.3-10.1c0-5.5-3.8-10.2-10.3-10.2
			C362.9,33.6,359.1,38.3,359.1,43.8z"/>
		<path class="st0" d="M416.6,66.4h-16V7.7h16v13.5h9.1v13.2h-9.1V66.4z"/>
		<path class="st0" d="M477.2,46.5h-33.7c0,6.5,3.4,10,10,10c3.4,0,5.9-1.1,7.7-4.1h15.4c-2.6,10.6-12.7,15.5-23,15.5
			c-15,0-26.1-8.4-26.1-24c0-15,10.3-24.1,25-24.1c15.7,0,24.7,9.7,24.7,25.1V46.5z M462.3,37.2c-0.8-4.3-4.8-7.1-9.1-7.1
			c-4.7,0-8.5,2.5-9.5,7.1H462.3z"/>
	</g>
	<path class="st1" d="M55.5,40.5c0,15.1-12.4,27.4-27.7,27.4S0,55.6,0,40.5C0,23.1,27.7,0,27.7,0S55.5,23.1,55.5,40.5"/>
</g>
</svg>
