<?xml version="1.0" encoding="utf-8"?>
<!-- Generator: Adobe Illustrator 21.0.2, SVG Export Plug-In . SVG Version: 6.00 Build 0)  -->
<svg version="1.1" id="Layer_1" xmlns="http://www.w3.org/2000/svg" xmlns:xlink="http://www.w3.org/1999/xlink" x="0px" y="0px"
	 viewBox="0 0 707 136.8" style="enable-background:new 0 0 707 136.8;" xml:space="preserve">
<style type="text/css">
	.st0{fill:#4E4E4E;}
	.st1{fill-rule:evenodd;clip-rule:evenodd;fill:#4E4E4E;}
</style>
<g>
	<g>
		<path class="st0" d="M173.7,18.4h37c24.3,0,34.8,14.2,34.8,33.3c0,21.9-14.6,32.4-36.6,32.4h-15.6v34.2h-19.5L173.7,18.4z
			 M206.3,66.7c12.4,0,18.6-6.1,18.6-15.3c0-9.3-6.3-15.3-17.8-15.3h-14v30.7H206.3z"/>
		<path class="st0" d="M255.3,14.8h18.4v103.7h-18.4V14.8z"/>
		<path class="st0" d="M357,49.7v68.7h-17.5v-8.3h-0.3c-4.7,6.1-11.7,9.5-20.6,9.5c-19,0-32.9-14.1-32.9-35.3
			c0-20.9,14-35.7,32.4-35.7c8.1,0,15.2,3,20.3,8.9h0.3v-7.8L357,49.7z M339.4,84.3c0-11-7.4-19.2-17.3-19.2
			c-9.9,0-17.7,7.5-17.7,19.2c0,11.1,7.3,18.8,17.6,18.8C331.5,103.1,339.4,95.6,339.4,84.3z"/>
		<path class="st0" d="M412.6,48.5c14.7,0,25,8,25,29.1v40.8h-18.4V82.3c0-13.1-4.7-17.2-13.2-17.2c-9.3,0-15.6,6.5-15.6,18.8v34.6
			h-18.4V49.7h18.4v8.9h0.2C396.2,51.9,404.1,48.5,412.6,48.5L412.6,48.5z"/>
		<path class="st0" d="M500.7,119.4c-28.8,0-51-18.8-51-50.8c0-29.2,19-51.4,50.2-51.4c14.2,0,29.4,5.5,39.7,17.1l-14,11.9
			c-6.2-6-14.7-10.4-25.7-10.4c-16.4,0-29.6,12.3-29.6,32.7c0,18.4,11.6,32.7,30.4,32.7c7.2,0,13.9-1.7,20.3-5.7V80.9h-22.5v-17
			h41.6V107C531,114.4,516.1,119.4,500.7,119.4L500.7,119.4z"/>
		<path class="st0" d="M595.6,48.5c0.5,0,1,0,1.4,0.1v20.2c-1.9-0.1-3.8-0.2-4.9-0.2c-11.3,0-17.5,7.7-17.5,17.9v31.9h-18.4V49.7
			h18.4v10.1h0.2C580.1,52.5,587.5,48.5,595.6,48.5L595.6,48.5z"/>
		<path class="st0" d="M602.9,28.7c0-6.1,5.1-11.2,11.4-11.2c6.3,0,11.4,5.1,11.4,11.2c0,6.3-5.2,11.3-11.4,11.3
			C608,40,602.9,35,602.9,28.7z M605.1,49.7h18.4v68.7h-18.4V49.7z"/>
		<path class="st0" d="M707,14.8v103.7h-17.5v-8.3h-0.4c-4.8,6.1-11.9,9.5-21,9.5c-19,0-32.9-14.1-32.9-35.3
			c0-20.9,14-35.7,32.4-35.7c8.4,0,15.6,3,20.8,8.9h0.3V14.8L707,14.8z M671.4,103.1c10.1,0,18.1-7.5,18.1-18.8
			c0-11-7.6-19.2-18.1-19.2c-9.9,0-17.7,7.5-17.7,19.2C653.8,95.5,661.1,103.1,671.4,103.1L671.4,103.1z"/>
	</g>
	<g>
		<path class="st1" d="M68.4,29.8c-21.3,0-38.6,17.3-38.6,38.6c0,21.3,17.3,38.6,38.6,38.6c21.3,0,38.6-17.3,38.6-38.6
			C107,47.1,89.7,29.8,68.4,29.8z"/>
		<circle class="st1" cx="105.7" cy="105.7" r="5.7"/>
		<path class="st1" d="M127.9,9c-8.9-8.9-18.4-9-33.2-9H42.2C27.3,0,17.9,0.1,9,9c-8.9,8.9-9,18.4-9,33.2v52.5
			c0,14.9,0.1,24.3,9,33.2c8.9,8.9,18.4,9,33.2,9h52.5c14.9,0,24.3-0.1,33.2-9c8.9-8.9,9-18.4,9-33.2V42.2
			C136.8,27.3,136.8,17.9,127.9,9z M118.4,105.2c0,7.3-5.9,13.2-13.2,13.2H65.6c-26.3-1.5-47.1-23.3-47.1-50c0-27.6,22.4-50,50-50
			c26,0,47.6,19.9,50,45.3V105.2z"/>
	</g>
</g>
</svg>
