<?xml version="1.0" encoding="utf-8"?>
<!-- Generator: Adobe Illustrator 21.0.2, SVG Export Plug-In . SVG Version: 6.00 Build 0)  -->
<svg version="1.1" id="Layer_1" xmlns="http://www.w3.org/2000/svg" xmlns:xlink="http://www.w3.org/1999/xlink" x="0px" y="0px"
	 viewBox="0 0 1440 267" style="enable-background:new 0 0 1440 267;" xml:space="preserve">
<style type="text/css">
	.st0{fill:none;stroke:#FFFFFF;stroke-linecap:square;}
	.st1{fill:#D8D8D8;stroke:#FFFFFF;stroke-linecap:square;}
	.st2{fill:#FFFFFF;stroke:#4E4E4E;stroke-width:2;}
	.st3{enable-background:new    ;}
	.st4{fill:#FFFFFF;}
	.st5{font-family:'Akkurat-Mono';}
	.st6{font-size:16px;}
</style>
<title>Group 4</title>
<desc>Created with Sketch.</desc>
<path id="Line" class="st0" d="M-2.5,260.5H1443"/>
<path id="Line_1_" class="st1" d="M179.5,84.8v173.1"/>
<circle id="Oval" class="st2" cx="179.5" cy="259.5" r="4.5"/>
<g class="st3">
	<path class="st4" d="M159.1,39.9c-2.7,0-4-1.8-4-4.3v-7.2h1.4v7.2c0,1.7,0.7,3,2.6,3s2.5-1.3,2.5-3v-7.2h1.4v7.2
		C163.1,38.1,161.8,39.9,159.1,39.9z"/>
	<path class="st4" d="M171.9,39c-0.6,0.6-1.7,0.9-2.8,0.9s-2-0.2-2.8-0.9c-0.5-0.5-0.8-1.2-0.8-1.9h1.4c0,0.6,0.3,1,0.7,1.2
		c0.4,0.3,0.9,0.4,1.6,0.4c0.6,0,1.2-0.1,1.6-0.5c0.2-0.2,0.4-0.5,0.4-0.8c0-0.5-0.3-1-1.2-1.1l-2.1-0.3c-0.6-0.1-1.1-0.4-1.5-0.8
		c-0.3-0.4-0.5-0.9-0.5-1.4c0-0.7,0.3-1.2,0.7-1.6c0.5-0.5,1.5-0.9,2.5-0.9c1.1,0,2.1,0.4,2.7,1.1c0.3,0.4,0.5,0.9,0.6,1.5H171
		c0-0.4-0.2-0.8-0.5-1c-0.3-0.3-0.8-0.5-1.4-0.5c-0.5,0-1,0.1-1.4,0.4c-0.3,0.2-0.4,0.5-0.4,0.8c0,0.6,0.4,0.9,1.1,1l2.2,0.3
		c1,0.1,2,0.8,2,2.2C172.5,38.1,172.3,38.6,171.9,39z"/>
	<path class="st4" d="M176.7,36.1c0,0.7,0.2,1.5,0.8,2c0.4,0.4,0.9,0.6,1.6,0.6s1.1-0.2,1.5-0.5c0.3-0.2,0.6-0.6,0.7-1h1.3
		c-0.4,1.7-1.8,2.6-3.5,2.6c-1,0-1.9-0.4-2.6-1.1c-0.9-0.8-1.2-2-1.2-3.2c0-1.3,0.4-2.4,1.2-3.2c0.6-0.6,1.5-1,2.6-1
		c1,0,1.9,0.4,2.5,1c0.8,0.8,1.2,2,1.2,3.2V36L176.7,36.1L176.7,36.1z M180.6,33.2c-0.4-0.4-0.9-0.7-1.6-0.7c-1.6,0-2.3,1.4-2.3,2.4
		h4.6C181.2,34.3,181,33.6,180.6,33.2z"/>
	<path class="st4" d="M191.6,34.3c0-0.4-0.1-0.9-0.4-1.2s-0.7-0.5-1.3-0.5c-0.8,0-1.5,0.6-1.9,1.4c-0.3,0.6-0.4,1.4-0.4,2.1v3.6
		h-1.4v-8.1h1.2l0.1,1.2c0.5-1,1.6-1.4,2.6-1.4c1.1,0,1.9,0.5,2.3,1.2c0.4,0.6,0.5,1.2,0.5,1.8L191.6,34.3L191.6,34.3L191.6,34.3z"
		/>
	<path class="st4" d="M147,53.5c0-0.4-0.1-0.9-0.4-1.2s-0.7-0.5-1.3-0.5c-0.8,0-1.5,0.6-1.9,1.4c-0.3,0.6-0.4,1.4-0.4,2.1v3.6h-1.4
		v-8.1h1.2l0.1,1.2c0.5-1,1.6-1.4,2.6-1.4c1.1,0,1.9,0.5,2.3,1.2c0.4,0.6,0.5,1.2,0.5,1.8L147,53.5L147,53.5L147,53.5z"/>
	<path class="st4" d="M151.9,55.3c0,0.7,0.2,1.5,0.8,2c0.4,0.4,0.9,0.6,1.6,0.6s1.1-0.2,1.5-0.5c0.3-0.2,0.6-0.6,0.7-1h1.3
		c-0.4,1.7-1.8,2.6-3.5,2.6c-1,0-1.9-0.4-2.6-1.1c-0.9-0.8-1.2-2-1.2-3.2c0-1.3,0.4-2.4,1.2-3.2c0.6-0.6,1.5-1,2.6-1
		c1,0,1.9,0.4,2.5,1c0.8,0.8,1.2,2,1.2,3.2v0.5L151.9,55.3L151.9,55.3z M155.8,52.4c-0.4-0.4-0.9-0.7-1.6-0.7
		c-1.6,0-2.3,1.4-2.3,2.4h4.6C156.5,53.5,156.2,52.8,155.8,52.4z"/>
	<path class="st4" d="M166.9,58.2c-0.6,0.6-1.7,0.9-2.8,0.9s-2-0.2-2.8-0.9c-0.5-0.5-0.8-1.2-0.8-1.9h1.4c0,0.6,0.3,1,0.7,1.2
		c0.4,0.3,0.9,0.4,1.6,0.4c0.6,0,1.2-0.1,1.6-0.5c0.2-0.2,0.4-0.5,0.4-0.8c0-0.5-0.3-1-1.2-1.1l-2.1-0.3c-0.6-0.1-1.1-0.4-1.5-0.8
		c-0.3-0.4-0.5-0.9-0.5-1.4c0-0.7,0.3-1.2,0.7-1.6c0.5-0.5,1.5-0.9,2.5-0.9c1.1,0,2.1,0.4,2.7,1.1c0.3,0.4,0.5,0.9,0.6,1.5H166
		c0-0.4-0.2-0.8-0.5-1c-0.3-0.3-0.8-0.5-1.4-0.5c-0.5,0-1,0.1-1.4,0.4c-0.3,0.2-0.4,0.5-0.4,0.8c0,0.6,0.4,0.9,1.1,1l2.2,0.3
		c1,0.1,2,0.8,2,2.2C167.6,57.3,167.3,57.8,166.9,58.2z"/>
	<path class="st4" d="M171.7,55.3c0,0.7,0.2,1.5,0.8,2c0.4,0.4,0.9,0.6,1.6,0.6s1.1-0.2,1.5-0.5c0.3-0.2,0.6-0.6,0.7-1h1.3
		c-0.4,1.7-1.8,2.6-3.5,2.6c-1,0-1.9-0.4-2.6-1.1c-0.9-0.8-1.2-2-1.2-3.2c0-1.3,0.4-2.4,1.2-3.2c0.6-0.6,1.5-1,2.6-1
		c1,0,1.9,0.4,2.5,1c0.8,0.8,1.2,2,1.2,3.2v0.5L171.7,55.3L171.7,55.3z M175.6,52.4c-0.4-0.4-0.9-0.7-1.6-0.7
		c-1.6,0-2.3,1.4-2.3,2.4h4.6C176.3,53.5,176,52.8,175.6,52.4z"/>
	<path class="st4" d="M187,59c-0.7,0-1.2-0.5-1.2-1.2l0,0c-0.5,0.8-1.5,1.3-2.7,1.3c-1.9,0-2.8-1.2-2.8-2.4s0.8-2.5,2.9-2.6l2.5-0.1
		v-0.6c0-0.4,0-0.8-0.4-1.2c-0.3-0.3-0.7-0.5-1.4-0.5s-1.2,0.2-1.5,0.5s-0.4,0.5-0.4,0.9h-1.3c0-0.7,0.3-1.2,0.8-1.7
		c0.6-0.6,1.5-0.9,2.5-0.9c1.6,0,2.5,0.7,2.9,1.6c0.2,0.4,0.2,0.7,0.2,1.2v3.9c0,0.4,0.2,0.5,0.5,0.5c0.1,0,0.4,0,0.4,0v1
		C187.6,59,187.3,59,187,59z M185.7,55l-2.2,0.1c-0.9,0-1.8,0.5-1.8,1.5c0,0.7,0.5,1.3,1.6,1.3c0.6,0,1.3-0.2,1.7-0.7
		c0.5-0.5,0.7-1.2,0.7-1.8V55L185.7,55z"/>
	<path class="st4" d="M196.6,53.5c0-0.4-0.1-0.9-0.4-1.2s-0.7-0.5-1.3-0.5c-0.8,0-1.5,0.6-1.9,1.4c-0.3,0.6-0.4,1.4-0.4,2.1v3.6
		h-1.4v-8.1h1.2l0.1,1.2c0.5-1,1.6-1.4,2.6-1.4c1.1,0,1.9,0.5,2.3,1.2c0.4,0.6,0.5,1.2,0.5,1.8L196.6,53.5L196.6,53.5L196.6,53.5z"
		/>
	<path class="st4" d="M203.9,50.6c1,0,1.8,0.3,2.4,0.9c0.5,0.5,0.9,1.2,1,2.1h-1.4c-0.1-0.6-0.3-0.9-0.6-1.2s-0.8-0.5-1.4-0.5
		s-1.2,0.3-1.5,0.6c-0.7,0.6-0.9,1.6-0.9,2.5s0.2,1.9,0.9,2.5c0.4,0.3,0.9,0.6,1.5,0.6c0.5,0,1.1-0.2,1.4-0.5s0.6-0.7,0.7-1.2h1.4
		c-0.1,0.9-0.5,1.6-1,2.1c-0.6,0.5-1.4,0.9-2.4,0.9s-1.9-0.4-2.5-1c-0.9-0.9-1.2-2-1.2-3.3s0.4-2.4,1.2-3.3
		C202,51,202.9,50.6,203.9,50.6z"/>
	<path class="st4" d="M215.8,58.9v-5.1c0-1.2-0.6-1.9-1.8-1.9c-0.8,0-1.5,0.5-1.8,1.3c-0.3,0.6-0.3,1.5-0.3,2.1V59h-1.4V47.4h1.4
		v4.5c0.5-0.8,1.6-1.3,2.5-1.3c1.8,0,2.9,1.1,2.9,3v5.3H215.8z"/>
</g>
<path id="Line_2_" class="st0" d="M309.9,260.3V197"/>
<circle id="Oval_1_" class="st2" cx="310.4" cy="259.5" r="4.5"/>
<g class="st3">
	<path class="st4" d="M273.6,165.9c-0.8,0.8-2,1.1-3.2,1.1c-1.4,0-2.4-0.4-3.2-1.1c-0.7-0.7-1.2-1.6-1.2-2.7h1.5
		c0,0.7,0.3,1.3,0.8,1.8s1.3,0.7,2.1,0.7c0.9,0,1.6-0.2,2.1-0.7c0.4-0.3,0.6-0.7,0.6-1.3c0-0.9-0.5-1.6-1.9-1.8
		c-0.6-0.1-1.1-0.2-1.7-0.3c-1.7-0.3-3-1.2-3-3c0-0.8,0.4-1.7,1-2.2c0.8-0.7,1.7-1.1,2.9-1.1c1.1,0,2.2,0.3,2.9,1.1
		c0.7,0.7,1,1.5,1.1,2.4h-1.6c0-0.6-0.2-1-0.5-1.4c-0.4-0.5-1.1-0.8-2-0.8c-0.8,0-1.5,0.2-2,0.8c-0.3,0.3-0.4,0.7-0.4,1.2
		c0,1,0.8,1.5,1.7,1.6c0.6,0.1,1.2,0.2,1.8,0.3c1.9,0.3,3.1,1.4,3.1,3.2C274.6,164.6,274.2,165.3,273.6,165.9z"/>
	<path class="st4" d="M281.4,167c-1.8,0-2.6-1.3-2.6-2.6v-4.5h-2.5v-1.2h2.5v-2.1l1.4-0.4v2.5h3.4v1.2h-3.4v4.4
		c0,0.9,0.5,1.5,1.4,1.5c0.8,0,1.4-0.2,2-0.5v1.2C283.1,166.7,282.4,167,281.4,167z"/>
	<path class="st4" d="M292.8,166c-0.6,0.6-1.5,1-2.5,1s-2-0.4-2.6-1c-0.9-0.9-1.3-2-1.3-3.3s0.4-2.4,1.3-3.3c0.6-0.6,1.5-1,2.6-1
		s1.9,0.4,2.5,1c0.9,0.9,1.3,2,1.3,3.3S293.6,165.2,292.8,166z M291.7,160.3c-0.4-0.3-0.9-0.6-1.5-0.6s-1.2,0.3-1.5,0.6
		c-0.7,0.6-0.9,1.6-0.9,2.5s0.2,1.9,0.9,2.5c0.4,0.3,0.9,0.6,1.5,0.6s1.2-0.3,1.5-0.6c0.7-0.6,0.9-1.6,0.9-2.5
		C292.6,161.9,292.4,160.9,291.7,160.3z"/>
	<path class="st4" d="M302.9,161.4c0-0.4-0.1-0.9-0.4-1.2s-0.7-0.5-1.3-0.5c-0.8,0-1.5,0.6-1.9,1.4c-0.3,0.6-0.4,1.4-0.4,2.1v3.6
		h-1.4v-8.1h1.2l0.1,1.2c0.5-1,1.6-1.4,2.6-1.4c1.1,0,1.9,0.5,2.3,1.2c0.4,0.6,0.5,1.2,0.5,1.8h-1.3L302.9,161.4L302.9,161.4z"/>
	<path class="st4" d="M310.3,168.5c-0.4,1-1,1.7-2.2,1.7c-0.7,0-1.2-0.2-1.5-0.3v-1.2c0,0,0.6,0.2,1.2,0.2s1-0.2,1.2-0.8l0.5-1.4
		l-3.5-8.1h1.7l2.6,6.4l2.4-6.4h1.6L310.3,168.5z"/>
	<path class="st4" d="M332.9,166.8v-5.7c0-0.7-0.2-1.4-1-1.4c-0.3,0-0.6,0.2-0.8,0.4c-0.4,0.4-0.5,1.1-0.5,2v4.7h-1.3v-5.7
		c0-0.8-0.3-1.5-1.1-1.5c-0.9,0-1.3,0.9-1.3,2.2v5h-1.3v-8.1h1.1l0.1,0.8c0.3-0.5,0.9-1,1.8-1c0.8,0,1.4,0.6,1.6,1.1
		c0.4-0.6,1-1.1,1.9-1.1c1.4,0,2,1.1,2,2.2v6.1H332.9z"/>
	<path class="st4" d="M342.9,166.9c-0.7,0-1.2-0.5-1.2-1.2l0,0c-0.5,0.8-1.5,1.3-2.7,1.3c-1.9,0-2.8-1.2-2.8-2.4s0.8-2.5,2.9-2.6
		l2.5-0.1v-0.6c0-0.4,0-0.8-0.4-1.2c-0.3-0.3-0.7-0.5-1.4-0.5c-0.7,0-1.2,0.2-1.5,0.5s-0.4,0.5-0.4,0.9h-1.3c0-0.7,0.3-1.2,0.8-1.7
		c0.6-0.6,1.5-0.9,2.5-0.9c1.6,0,2.5,0.7,2.9,1.6c0.2,0.4,0.2,0.7,0.2,1.2v3.9c0,0.4,0.2,0.5,0.5,0.5c0.1,0,0.4,0,0.4,0v1
		C343.5,166.9,343.2,166.9,342.9,166.9z M341.6,162.9l-2.2,0.1c-0.9,0-1.8,0.5-1.8,1.5c0,0.7,0.5,1.3,1.6,1.3c0.6,0,1.3-0.2,1.7-0.7
		c0.5-0.5,0.7-1.2,0.7-1.8L341.6,162.9L341.6,162.9z"/>
	<path class="st4" d="M352.5,166.1c-0.5,0.5-1.3,0.9-2.3,0.9s-2-0.5-2.4-1.2v4.2h-1.4v-11.3h1.2l0.2,1.1c0.5-0.8,1.6-1.3,2.5-1.3
		c1,0,1.8,0.4,2.3,1c0.8,0.8,1.2,1.9,1.2,3.3C353.8,164.1,353.3,165.4,352.5,166.1z M351.5,160.3c-0.4-0.4-0.8-0.6-1.5-0.6
		c-0.6,0-1,0.2-1.4,0.5c-0.7,0.6-0.9,1.6-0.9,2.6s0.2,2,0.9,2.5c0.3,0.3,0.8,0.5,1.4,0.5c0.7,0,1.2-0.2,1.5-0.6
		c0.6-0.6,0.8-1.5,0.8-2.5S352.1,160.9,351.5,160.3z"/>
</g>
<path id="Line-Copy-2" class="st1" d="M440.8,260.1V92"/>
<circle id="Oval_2_" class="st2" cx="441.2" cy="259.5" r="4.5"/>
<g class="st3">
	<path class="st4" d="M1183.8,55.9v-1.2h2.5v-9h-2.5v-1.2h6.5v1.2h-2.5v9h2.5v1.2H1183.8z"/>
	<path class="st4" d="M1198.1,56.1c-1.8,0-2.6-1.3-2.6-2.6V49h-2.5v-1.2h2.5v-2.1l1.4-0.4v2.5h3.4V49h-3.4v4.4
		c0,0.9,0.5,1.5,1.4,1.5c0.8,0,1.4-0.2,2-0.5v1.2C1199.8,55.8,1199.1,56.1,1198.1,56.1z"/>
	<path class="st4" d="M1204.6,52.3c0,0.7,0.2,1.5,0.8,2c0.4,0.4,0.9,0.6,1.6,0.6s1.1-0.2,1.5-0.5c0.3-0.2,0.6-0.6,0.7-1h1.3
		c-0.4,1.7-1.8,2.6-3.5,2.6c-1,0-1.9-0.4-2.6-1.1c-0.9-0.8-1.2-2-1.2-3.2c0-1.3,0.4-2.4,1.2-3.2c0.6-0.6,1.5-1,2.6-1
		c1,0,1.9,0.4,2.5,1c0.8,0.8,1.2,2,1.2,3.2v0.5L1204.6,52.3L1204.6,52.3z M1208.5,49.4c-0.4-0.4-0.9-0.7-1.6-0.7
		c-1.6,0-2.3,1.4-2.3,2.4h4.6C1209.2,50.5,1208.9,49.8,1208.5,49.4z"/>
	<path class="st4" d="M1219.5,50.5c0-0.4-0.1-0.9-0.4-1.2s-0.7-0.5-1.3-0.5c-0.8,0-1.5,0.6-1.9,1.4c-0.3,0.6-0.4,1.4-0.4,2.1v3.6
		h-1.4v-8.1h1.2l0.1,1.2c0.5-1,1.6-1.4,2.6-1.4c1.1,0,1.9,0.5,2.3,1.2c0.4,0.6,0.5,1.2,0.5,1.8h-1.3L1219.5,50.5L1219.5,50.5z"/>
	<path class="st4" d="M1229.8,56c-0.7,0-1.2-0.5-1.2-1.2l0,0c-0.5,0.8-1.5,1.3-2.7,1.3c-1.9,0-2.8-1.2-2.8-2.4s0.8-2.5,2.9-2.6
		l2.5-0.1v-0.6c0-0.4,0-0.8-0.4-1.2c-0.3-0.3-0.7-0.5-1.4-0.5c-0.7,0-1.2,0.2-1.5,0.5s-0.4,0.5-0.4,0.9h-1.3c0-0.7,0.3-1.2,0.8-1.7
		c0.6-0.6,1.5-0.9,2.5-0.9c1.6,0,2.5,0.7,2.9,1.6c0.2,0.4,0.2,0.7,0.2,1.2v3.9c0,0.4,0.2,0.5,0.5,0.5c0.1,0,0.4,0,0.4,0v1
		C1230.4,56,1230.1,56,1229.8,56z M1228.5,52l-2.2,0.1c-0.9,0-1.8,0.5-1.8,1.5c0,0.7,0.5,1.3,1.6,1.3c0.6,0,1.3-0.2,1.7-0.7
		c0.5-0.5,0.7-1.2,0.7-1.8V52L1228.5,52z"/>
	<path class="st4" d="M1237.8,56.1c-1.8,0-2.6-1.3-2.6-2.6V49h-2.5v-1.2h2.5v-2.1l1.4-0.4v2.5h3.4V49h-3.4v4.4
		c0,0.9,0.5,1.5,1.4,1.5c0.8,0,1.4-0.2,2-0.5v1.2C1239.4,55.8,1238.7,56.1,1237.8,56.1z"/>
	<path class="st4" d="M1243.4,55.9v-1.2h2.9v-5.8h-2.6v-1.2h4v6.9h2.9v1.2h-7.2V55.9L1243.4,55.9z M1246,46.3v-1.9h1.9v1.9H1246z"/>
	<path class="st4" d="M1259,55.1c-0.6,0.6-1.5,1-2.5,1s-2-0.4-2.6-1c-0.9-0.9-1.3-2-1.3-3.3s0.4-2.4,1.3-3.3c0.6-0.6,1.5-1,2.6-1
		c1.1,0,1.9,0.4,2.5,1c0.9,0.9,1.3,2,1.3,3.3S1259.9,54.3,1259,55.1z M1258,49.4c-0.4-0.3-0.9-0.6-1.5-0.6c-0.6,0-1.2,0.3-1.5,0.6
		c-0.7,0.6-0.9,1.6-0.9,2.5s0.2,1.9,0.9,2.5c0.4,0.3,0.9,0.6,1.5,0.6c0.6,0,1.2-0.3,1.5-0.6c0.7-0.6,0.9-1.6,0.9-2.5
		S1258.7,50,1258,49.4z"/>
	<path class="st4" d="M1268.5,55.9v-5.1c0-1.2-0.5-1.9-1.8-1.9c-0.8,0-1.5,0.6-1.8,1.3c-0.3,0.6-0.4,1.5-0.4,2.1V56h-1.4v-8.1h1.2
		l0.1,1.2c0.5-0.9,1.6-1.4,2.5-1.4c1.8,0,2.9,1.1,2.9,3V56h-1.3L1268.5,55.9L1268.5,55.9z"/>
</g>
<path id="Line_3_" class="st0" d="M833.4,258v-63.3"/>
<circle id="Oval_8_" class="st2" cx="833.9" cy="259.5" r="4.5"/>
<path id="Line-Copy-2_1_" class="st1" d="M964.2,256.8V88.7"/>
<circle id="Oval_7_" class="st2" cx="964.8" cy="259.5" r="4.5"/>
<g class="st3">
	<path class="st4" d="M531.1,170h-1.7l-1.9-6.3l-1.8,6.3H524l-0.8-11.3h1.3l0.6,9.3l1.8-6h1.3l1.8,6l0.6-9.2h1.3L531.1,170z"/>
	<path class="st4" d="M534.2,170v-1.2h2.9V163h-2.6v-1.2h4v6.9h2.9v1.2h-7.2L534.2,170L534.2,170z M536.8,160.4v-1.9h1.9v1.9H536.8z
		"/>
	<path class="st4" d="M550.1,164.6c0-0.4-0.1-0.9-0.4-1.2c-0.3-0.3-0.7-0.5-1.3-0.5c-0.8,0-1.5,0.6-1.9,1.4
		c-0.3,0.6-0.4,1.4-0.4,2.1v3.6h-1.4v-8.1h1.2l0.1,1.2c0.5-1,1.6-1.4,2.6-1.4c1.1,0,1.9,0.5,2.3,1.2c0.4,0.6,0.5,1.2,0.5,1.8h-1.3
		L550.1,164.6L550.1,164.6z"/>
	<path class="st4" d="M554.9,166.4c0,0.7,0.2,1.5,0.8,2c0.4,0.4,0.9,0.6,1.6,0.6c0.7,0,1.1-0.2,1.5-0.5c0.3-0.2,0.6-0.6,0.7-1h1.3
		c-0.4,1.7-1.8,2.6-3.5,2.6c-1,0-1.9-0.4-2.6-1.1c-0.9-0.8-1.2-2-1.2-3.2c0-1.3,0.4-2.4,1.2-3.2c0.6-0.6,1.5-1,2.6-1
		c1,0,1.9,0.4,2.5,1c0.8,0.8,1.2,2,1.2,3.2v0.5L554.9,166.4L554.9,166.4z M558.8,163.5c-0.4-0.4-0.9-0.7-1.6-0.7
		c-1.6,0-2.3,1.4-2.3,2.4h4.6C559.5,164.6,559.3,163.9,558.8,163.5z"/>
	<path class="st4" d="M568.9,159.5c-1,0-1.6,0.6-1.6,1.5v0.9h3.5v1.2h-3.5v6.9h-1.4v-6.9h-2.7v-1.2h2.7V161c0-1.6,1.1-2.7,2.8-2.7
		c0.9,0,1.6,0.2,2.1,0.4v1.3C570.3,159.7,569.5,159.5,568.9,159.5z"/>
	<path class="st4" d="M579.8,164.6c0-0.4-0.1-0.9-0.4-1.2c-0.3-0.3-0.7-0.5-1.3-0.5c-0.8,0-1.5,0.6-1.9,1.4
		c-0.3,0.6-0.4,1.4-0.4,2.1v3.6h-1.4v-8.1h1.2l0.1,1.2c0.5-1,1.6-1.4,2.6-1.4c1.1,0,1.9,0.5,2.3,1.2c0.4,0.6,0.5,1.2,0.5,1.8h-1.3
		L579.8,164.6L579.8,164.6z"/>
	<path class="st4" d="M590.1,170.1c-0.7,0-1.2-0.5-1.2-1.2l0,0c-0.5,0.8-1.5,1.3-2.7,1.3c-1.9,0-2.8-1.2-2.8-2.4s0.8-2.5,2.9-2.6
		l2.5-0.1v-0.6c0-0.4,0-0.8-0.4-1.2c-0.3-0.3-0.7-0.5-1.4-0.5s-1.2,0.2-1.5,0.5s-0.4,0.5-0.4,0.9h-1.3c0-0.7,0.3-1.2,0.8-1.7
		c0.6-0.6,1.5-0.9,2.5-0.9c1.6,0,2.5,0.7,2.9,1.6c0.2,0.4,0.2,0.7,0.2,1.2v3.9c0,0.4,0.2,0.5,0.5,0.5c0.1,0,0.4,0,0.4,0v1
		C590.7,170.1,590.4,170.1,590.1,170.1z M588.8,166.1l-2.2,0.1c-0.9,0-1.8,0.5-1.8,1.5c0,0.7,0.5,1.3,1.6,1.3c0.6,0,1.3-0.2,1.7-0.7
		c0.5-0.5,0.7-1.2,0.7-1.8V166.1z"/>
	<path class="st4" d="M599.9,170v-5.7c0-0.7-0.2-1.4-1-1.4c-0.3,0-0.6,0.2-0.8,0.4c-0.4,0.4-0.5,1.1-0.5,2v4.8h-1.3v-5.7
		c0-0.8-0.3-1.5-1.1-1.5c-0.9,0-1.3,0.9-1.3,2.2v4.9h-1.3v-8.1h1.1l0.1,0.8c0.3-0.5,0.9-1,1.8-1c0.8,0,1.4,0.6,1.6,1.1
		c0.4-0.6,1-1.1,1.9-1.1c1.4,0,2,1.1,2,2.2v6.1H599.9z"/>
	<path class="st4" d="M604.5,166.4c0,0.7,0.2,1.5,0.8,2c0.4,0.4,0.9,0.6,1.6,0.6c0.7,0,1.1-0.2,1.5-0.5c0.3-0.2,0.6-0.6,0.7-1h1.3
		c-0.4,1.7-1.8,2.6-3.5,2.6c-1,0-1.9-0.4-2.6-1.1c-0.9-0.8-1.2-2-1.2-3.2c0-1.3,0.4-2.4,1.2-3.2c0.6-0.6,1.5-1,2.6-1
		c1,0,1.9,0.4,2.5,1c0.8,0.8,1.2,2,1.2,3.2v0.5L604.5,166.4L604.5,166.4z M608.4,163.5c-0.4-0.4-0.9-0.7-1.6-0.7
		c-1.6,0-2.3,1.4-2.3,2.4h4.6C609.1,164.6,608.9,163.9,608.4,163.5z"/>
	<path class="st4" d="M619.6,169.3c-0.6,0.6-1.7,0.9-2.8,0.9s-2-0.2-2.8-0.9c-0.5-0.5-0.8-1.2-0.8-1.9h1.4c0,0.6,0.3,1,0.7,1.2
		c0.4,0.3,0.9,0.4,1.6,0.4c0.6,0,1.2-0.1,1.6-0.5c0.2-0.2,0.4-0.5,0.4-0.8c0-0.5-0.3-1-1.2-1.1l-2.1-0.3c-0.6-0.1-1.1-0.4-1.5-0.8
		c-0.3-0.4-0.5-0.9-0.5-1.4c0-0.7,0.3-1.2,0.7-1.6c0.5-0.5,1.5-0.9,2.5-0.9c1.1,0,2.1,0.4,2.7,1.1c0.3,0.4,0.5,0.9,0.6,1.5h-1.4
		c0-0.4-0.2-0.8-0.5-1c-0.3-0.3-0.8-0.5-1.4-0.5c-0.5,0-1,0.1-1.4,0.4c-0.3,0.2-0.4,0.5-0.4,0.8c0,0.6,0.4,0.9,1.1,1l2.2,0.3
		c1,0.1,2,0.8,2,2.2C620.3,168.4,620,168.9,619.6,169.3z"/>
</g>
<path id="Line-Copy-6" class="st0" d="M571.6,260.3V197"/>
<circle id="Oval_3_" class="st2" cx="572.1" cy="259.5" r="4.5"/>
<g class="st3">
	<path class="st4" d="M661.9,50.6c-0.6,0.6-1.7,1-2.9,1h-2.7V56h-1.4V44.7h4.1c1.3,0,2.4,0.4,3,1.1c0.5,0.6,0.9,1.4,0.9,2.4
		C662.9,49.2,662.6,50,661.9,50.6z M659,45.9h-2.6v4.4h2.6c1.5,0,2.4-0.7,2.4-2.2C661.4,46.6,660.4,45.9,659,45.9z"/>
	<path class="st4" d="M671,50.6c0-0.4-0.1-0.9-0.4-1.2c-0.3-0.3-0.7-0.5-1.3-0.5c-0.8,0-1.5,0.6-1.9,1.4c-0.3,0.6-0.4,1.4-0.4,2.1
		V56h-1.4v-8.1h1.2l0.1,1.2c0.5-1,1.6-1.4,2.6-1.4c1.1,0,1.9,0.5,2.3,1.2c0.4,0.6,0.5,1.2,0.5,1.8H671V50.6z"/>
	<path class="st4" d="M680.7,55.2c-0.6,0.6-1.5,1-2.5,1s-2-0.4-2.6-1c-0.9-0.9-1.3-2-1.3-3.3s0.4-2.4,1.3-3.3c0.6-0.6,1.5-1,2.6-1
		s1.9,0.4,2.5,1c0.9,0.9,1.3,2,1.3,3.3S681.6,54.4,680.7,55.2z M679.7,49.5c-0.4-0.3-0.9-0.6-1.5-0.6s-1.2,0.3-1.5,0.6
		c-0.7,0.6-0.9,1.6-0.9,2.5s0.2,1.9,0.9,2.5c0.4,0.3,0.9,0.6,1.5,0.6s1.2-0.3,1.5-0.6c0.7-0.6,0.9-1.6,0.9-2.5
		C680.6,51.1,680.4,50.1,679.7,49.5z"/>
	<path class="st4" d="M689.3,56.2c-1.8,0-2.6-1.3-2.6-2.6v-4.5h-2.5v-1.2h2.5v-2.1l1.4-0.4v2.5h3.4v1.2H688v4.4
		c0,0.9,0.5,1.5,1.4,1.5c0.8,0,1.4-0.2,2-0.5v1.2C690.9,55.9,690.2,56.2,689.3,56.2z"/>
	<path class="st4" d="M700.6,55.2c-0.6,0.6-1.5,1-2.5,1s-2-0.4-2.6-1c-0.9-0.9-1.3-2-1.3-3.3s0.4-2.4,1.3-3.3c0.6-0.6,1.5-1,2.6-1
		s1.9,0.4,2.5,1c0.9,0.9,1.3,2,1.3,3.3S701.5,54.4,700.6,55.2z M699.5,49.5c-0.4-0.3-0.9-0.6-1.5-0.6s-1.2,0.3-1.5,0.6
		c-0.7,0.6-0.9,1.6-0.9,2.5s0.2,1.9,0.9,2.5c0.4,0.3,0.9,0.6,1.5,0.6s1.2-0.3,1.5-0.6c0.7-0.6,0.9-1.6,0.9-2.5
		C700.5,51.1,700.2,50.1,699.5,49.5z"/>
	<path class="st4" d="M709.1,56.2c-1.8,0-2.6-1.3-2.6-2.6v-4.5H704v-1.2h2.5v-2.1l1.4-0.4v2.5h3.4v1.2h-3.4v4.4
		c0,0.9,0.5,1.5,1.4,1.5c0.8,0,1.4-0.2,2-0.5v1.2C710.8,55.9,710.1,56.2,709.1,56.2z"/>
	<path class="st4" d="M718.1,57.7c-0.4,1-1,1.7-2.2,1.7c-0.7,0-1.2-0.2-1.5-0.3v-1.2c0,0,0.6,0.2,1.2,0.2c0.6,0,1-0.2,1.2-0.8
		l0.5-1.4l-3.5-8.1h1.7l2.6,6.4l2.4-6.4h1.6L718.1,57.7z"/>
	<path class="st4" d="M730.6,55.3c-0.5,0.5-1.3,0.9-2.3,0.9s-2-0.5-2.4-1.2v4.2h-1.4V47.9h1.2l0.1,1.1c0.5-0.8,1.6-1.3,2.5-1.3
		c1,0,1.8,0.4,2.3,1c0.8,0.8,1.2,1.9,1.2,3.3C731.8,53.3,731.4,54.6,730.6,55.3z M729.6,49.5c-0.4-0.4-0.8-0.6-1.5-0.6
		c-0.6,0-1,0.2-1.4,0.5c-0.7,0.6-0.9,1.6-0.9,2.6s0.2,2,0.9,2.5c0.3,0.3,0.8,0.5,1.4,0.5c0.7,0,1.2-0.2,1.5-0.6
		c0.6-0.6,0.8-1.5,0.8-2.5S730.2,50.1,729.6,49.5z"/>
	<path class="st4" d="M735.4,52.4c0,0.7,0.2,1.5,0.8,2c0.4,0.4,0.9,0.6,1.6,0.6c0.7,0,1.1-0.2,1.5-0.5c0.3-0.2,0.6-0.6,0.7-1h1.3
		c-0.4,1.7-1.8,2.6-3.5,2.6c-1,0-1.9-0.4-2.6-1.1c-0.9-0.8-1.2-2-1.2-3.2c0-1.3,0.4-2.4,1.2-3.2c0.6-0.6,1.5-1,2.6-1
		c1,0,1.9,0.4,2.5,1c0.8,0.8,1.2,2,1.2,3.2v0.5h-6.1V52.4z M739.3,49.5c-0.4-0.4-0.9-0.7-1.6-0.7c-1.6,0-2.3,1.4-2.3,2.4h4.6
		C740,50.6,739.7,49.9,739.3,49.5z"/>
	<path class="st4" d="M750.5,55.3c-0.6,0.6-1.7,0.9-2.8,0.9s-2-0.2-2.8-0.9c-0.5-0.5-0.8-1.2-0.8-1.9h1.4c0,0.6,0.3,1,0.7,1.2
		s0.9,0.4,1.6,0.4c0.6,0,1.2-0.1,1.6-0.5c0.2-0.2,0.4-0.5,0.4-0.8c0-0.5-0.3-1-1.2-1.1l-2.1-0.3c-0.6-0.1-1.1-0.4-1.5-0.8
		c-0.3-0.4-0.5-0.9-0.5-1.4c0-0.7,0.3-1.2,0.7-1.6c0.5-0.5,1.5-0.9,2.5-0.9c1.1,0,2.1,0.4,2.7,1.1c0.3,0.4,0.5,0.9,0.6,1.5h-1.4
		c0-0.4-0.2-0.8-0.5-1c-0.3-0.3-0.8-0.5-1.4-0.5c-0.5,0-1,0.1-1.4,0.4c-0.3,0.2-0.4,0.5-0.4,0.8c0,0.6,0.4,0.9,1.1,1l2.2,0.3
		c1,0.1,2,0.8,2,2.2C751.1,54.4,750.9,54.9,750.5,55.3z"/>
</g>
<path id="Line-Copy-4" class="st1" d="M702.5,260.4V90"/>
<circle id="Oval_4_" class="st2" cx="703" cy="259.5" r="4.5"/>
<g class="st3">
	<path class="st4" d="M794.2,151c-2.7,0-4-1.8-4-4.3v-7.2h1.4v7.2c0,1.7,0.7,3,2.6,3c1.9,0,2.5-1.3,2.5-3v-7.2h1.4v7.2
		C798.2,149.2,796.9,151,794.2,151z"/>
	<path class="st4" d="M807,150.1c-0.6,0.6-1.7,0.9-2.8,0.9s-2-0.2-2.8-0.9c-0.5-0.5-0.8-1.2-0.8-1.9h1.4c0,0.6,0.3,1,0.7,1.2
		s0.9,0.4,1.6,0.4c0.6,0,1.2-0.1,1.6-0.5c0.2-0.2,0.4-0.5,0.4-0.8c0-0.5-0.3-1-1.2-1.1l-2.1-0.3c-0.6-0.1-1.1-0.4-1.5-0.8
		c-0.3-0.4-0.5-0.9-0.5-1.4c0-0.7,0.3-1.2,0.7-1.6c0.5-0.5,1.5-0.9,2.5-0.9c1.1,0,2.1,0.4,2.7,1.1c0.3,0.4,0.5,0.9,0.6,1.5H806
		c0-0.4-0.2-0.8-0.5-1c-0.3-0.3-0.8-0.5-1.4-0.5c-0.5,0-1,0.1-1.4,0.4c-0.3,0.2-0.4,0.5-0.4,0.8c0,0.6,0.4,0.9,1.1,1l2.2,0.3
		c1,0.1,2,0.8,2,2.2C807.6,149.2,807.4,149.7,807,150.1z"/>
	<path class="st4" d="M817.1,150.9c-0.7,0-1.2-0.5-1.2-1.2l0,0c-0.5,0.8-1.5,1.3-2.7,1.3c-1.9,0-2.8-1.2-2.8-2.4s0.8-2.5,2.9-2.6
		l2.5-0.1v-0.6c0-0.4,0-0.8-0.4-1.2c-0.3-0.3-0.7-0.5-1.4-0.5s-1.2,0.2-1.5,0.5s-0.4,0.5-0.4,0.9h-1.3c0-0.7,0.3-1.2,0.8-1.7
		c0.6-0.6,1.5-0.9,2.5-0.9c1.6,0,2.5,0.7,2.9,1.6c0.2,0.4,0.2,0.7,0.2,1.2v3.9c0,0.4,0.2,0.5,0.5,0.5c0.1,0,0.4,0,0.4,0v1
		C817.7,150.9,817.4,150.9,817.1,150.9z M815.8,146.9l-2.2,0.1c-0.9,0-1.8,0.5-1.8,1.5c0,0.7,0.5,1.3,1.6,1.3c0.6,0,1.3-0.2,1.7-0.7
		c0.5-0.5,0.7-1.2,0.7-1.8V146.9z"/>
	<path class="st4" d="M826.8,150.1c-0.5,0.5-1.3,0.9-2.3,0.9c-0.9,0-2-0.4-2.5-1.3l-0.1,1.1h-1.2v-11.6h1.4v4.4
		c0.4-0.7,1.4-1.2,2.4-1.2s1.8,0.4,2.3,0.9c0.8,0.8,1.2,2,1.2,3.4C828,148.1,827.6,149.3,826.8,150.1z M825.7,144.3
		c-0.4-0.4-0.8-0.6-1.5-0.6c-0.6,0-1,0.2-1.4,0.5c-0.7,0.6-0.9,1.5-0.9,2.5s0.2,2,0.9,2.5c0.3,0.3,0.8,0.5,1.4,0.5
		c0.7,0,1.2-0.2,1.5-0.6c0.6-0.6,0.8-1.6,0.8-2.5S826.3,144.9,825.7,144.3z"/>
	<path class="st4" d="M830.7,150.8v-1.2h2.9v-5.8H831v-1.2h4v6.9h2.9v1.2h-7.2V150.8z M833.3,141.2v-1.9h1.9v1.9H833.3z"/>
	<path class="st4" d="M840.5,150.8v-1.2h2.8v-9.3h-2.6v-1.1h4v10.4h2.8v1.2L840.5,150.8L840.5,150.8z"/>
	<path class="st4" d="M850.5,150.8v-1.2h2.9v-5.8h-2.6v-1.2h4v6.9h2.9v1.2h-7.2L850.5,150.8L850.5,150.8z M853.1,141.2v-1.9h1.9v1.9
		H853.1z"/>
	<path class="st4" d="M864.8,151c-1.8,0-2.6-1.3-2.6-2.6v-4.5h-2.5v-1.2h2.5v-2.1l1.4-0.4v2.5h3.4v1.2h-3.4v4.4
		c0,0.9,0.5,1.5,1.4,1.5c0.8,0,1.4-0.2,2-0.5v1.2C866.4,150.7,865.7,151,864.8,151z"/>
	<path class="st4" d="M873.8,152.5c-0.4,1-1,1.7-2.2,1.7c-0.7,0-1.2-0.2-1.5-0.3v-1.2c0,0,0.6,0.2,1.2,0.2c0.6,0,1-0.2,1.2-0.8
		l0.5-1.4l-3.5-8.1h1.7l2.6,6.4l2.4-6.4h1.6L873.8,152.5z"/>
	<path class="st4" d="M815.2,170.2c-1.8,0-2.6-1.3-2.6-2.6v-4.5h-2.5v-1.2h2.5v-2.1l1.4-0.4v2.5h3.4v1.2H814v4.4
		c0,0.9,0.5,1.5,1.4,1.5c0.8,0,1.4-0.2,2-0.5v1.2C816.8,169.9,816.1,170.2,815.2,170.2z"/>
	<path class="st4" d="M821.6,166.4c0,0.7,0.2,1.5,0.8,2c0.4,0.4,0.9,0.6,1.6,0.6c0.7,0,1.1-0.2,1.5-0.5c0.3-0.2,0.6-0.6,0.7-1h1.3
		c-0.4,1.7-1.8,2.6-3.5,2.6c-1,0-1.9-0.4-2.6-1.1c-0.9-0.8-1.2-2-1.2-3.2c0-1.3,0.4-2.4,1.2-3.2c0.6-0.6,1.5-1,2.6-1
		c1,0,1.9,0.4,2.5,1c0.8,0.8,1.2,2,1.2,3.2v0.5L821.6,166.4L821.6,166.4z M825.6,163.5c-0.4-0.4-0.9-0.7-1.6-0.7
		c-1.6,0-2.3,1.4-2.3,2.4h4.6C826.2,164.6,826,163.9,825.6,163.5z"/>
	<path class="st4" d="M836.7,169.3c-0.6,0.6-1.7,0.9-2.8,0.9s-2-0.2-2.8-0.9c-0.5-0.5-0.8-1.2-0.8-1.9h1.4c0,0.6,0.3,1,0.7,1.2
		s0.9,0.4,1.6,0.4c0.6,0,1.2-0.1,1.6-0.5c0.2-0.2,0.4-0.5,0.4-0.8c0-0.5-0.3-1-1.2-1.1l-2.1-0.3c-0.6-0.1-1.1-0.4-1.5-0.8
		c-0.3-0.4-0.5-0.9-0.5-1.4c0-0.7,0.3-1.2,0.7-1.6c0.5-0.5,1.5-0.9,2.5-0.9c1.1,0,2.1,0.4,2.7,1.1c0.3,0.4,0.5,0.9,0.6,1.5h-1.4
		c0-0.4-0.2-0.8-0.5-1c-0.3-0.3-0.8-0.5-1.4-0.5c-0.5,0-1,0.1-1.4,0.4c-0.3,0.2-0.4,0.5-0.4,0.8c0,0.6,0.4,0.9,1.1,1l2.2,0.3
		c1,0.1,2,0.8,2,2.2C837.4,168.4,837.1,168.9,836.7,169.3z"/>
	<path class="st4" d="M844.9,170.2c-1.8,0-2.6-1.3-2.6-2.6v-4.5h-2.5v-1.2h2.5v-2.1l1.4-0.4v2.5h3.4v1.2h-3.4v4.4
		c0,0.9,0.5,1.5,1.4,1.5c0.8,0,1.4-0.2,2-0.5v1.2C846.6,169.9,845.9,170.2,844.9,170.2z"/>
	<path class="st4" d="M856.6,169.3c-0.6,0.6-1.7,0.9-2.8,0.9s-2-0.2-2.8-0.9c-0.5-0.5-0.8-1.2-0.8-1.9h1.4c0,0.6,0.3,1,0.7,1.2
		s0.9,0.4,1.6,0.4c0.6,0,1.2-0.1,1.6-0.5c0.2-0.2,0.4-0.5,0.4-0.8c0-0.5-0.3-1-1.2-1.1l-2.1-0.3c-0.6-0.1-1.1-0.4-1.5-0.8
		c-0.3-0.4-0.5-0.9-0.5-1.4c0-0.7,0.3-1.2,0.7-1.6c0.5-0.5,1.5-0.9,2.5-0.9c1.1,0,2.1,0.4,2.7,1.1c0.3,0.4,0.5,0.9,0.6,1.5h-1.4
		c0-0.4-0.2-0.8-0.5-1c-0.3-0.3-0.8-0.5-1.4-0.5c-0.5,0-1,0.1-1.4,0.4c-0.3,0.2-0.4,0.5-0.4,0.8c0,0.6,0.4,0.9,1.1,1l2.2,0.3
		c1,0.1,2,0.8,2,2.2C857.2,168.4,857,168.9,856.6,169.3z"/>
</g>
<text transform="matrix(1 0 0 1 1110.6393 141)" class="st4 st5 st6"> </text>
<path id="Line-Copy-5" class="st0" d="M1095.1,261.4V199"/>
<circle id="Oval_5_" class="st2" cx="1095.6" cy="259.5" r="4.5"/>
<g class="st3">
	<path class="st4" d="M928.3,26.8v3.7h4.9v1.3h-4.9v5h-1.4V25.5h7.6v1.3H928.3z"/>
	<path class="st4" d="M937.6,33.2c0,0.7,0.2,1.5,0.8,2c0.4,0.4,0.9,0.6,1.6,0.6c0.7,0,1.1-0.2,1.5-0.5c0.3-0.2,0.6-0.6,0.7-1h1.3
		c-0.4,1.7-1.8,2.6-3.5,2.6c-1,0-1.9-0.4-2.6-1.1c-0.9-0.8-1.2-2-1.2-3.2c0-1.3,0.4-2.4,1.2-3.2c0.6-0.6,1.5-1,2.6-1
		c1,0,1.9,0.4,2.5,1c0.8,0.8,1.2,2,1.2,3.2v0.5h-6.1V33.2z M941.6,30.3c-0.4-0.4-0.9-0.7-1.6-0.7c-1.6,0-2.3,1.4-2.3,2.4h4.6
		C942.2,31.4,942,30.7,941.6,30.3z"/>
	<path class="st4" d="M947.6,33.2c0,0.7,0.2,1.5,0.8,2c0.4,0.4,0.9,0.6,1.6,0.6c0.7,0,1.1-0.2,1.5-0.5c0.3-0.2,0.6-0.6,0.7-1h1.3
		c-0.4,1.7-1.8,2.6-3.5,2.6c-1,0-1.9-0.4-2.6-1.1c-0.9-0.8-1.2-2-1.2-3.2c0-1.3,0.4-2.4,1.2-3.2c0.6-0.6,1.5-1,2.6-1
		c1,0,1.9,0.4,2.5,1c0.8,0.8,1.2,2,1.2,3.2v0.5h-6.1V33.2z M951.5,30.3c-0.4-0.4-0.9-0.7-1.6-0.7c-1.6,0-2.3,1.4-2.3,2.4h4.6
		C952.1,31.4,951.9,30.7,951.5,30.3z"/>
	<path class="st4" d="M961.9,36.8l-0.1-1.1c-0.5,0.8-1.6,1.3-2.5,1.3c-1,0-1.8-0.4-2.4-0.9c-0.8-0.8-1.2-2-1.2-3.3
		c0-1.4,0.4-2.6,1.2-3.4c0.5-0.5,1.3-0.9,2.3-0.9s1.9,0.5,2.4,1.2v-4.4h1.4v11.6h-1.1L961.9,36.8L961.9,36.8z M960.9,30.2
		c-0.3-0.3-0.8-0.5-1.4-0.5c-0.7,0-1.1,0.3-1.5,0.6c-0.6,0.6-0.9,1.5-0.9,2.4c0,0.9,0.2,1.9,0.8,2.5c0.4,0.4,0.8,0.6,1.5,0.6
		c0.6,0,1-0.2,1.4-0.5c0.7-0.6,0.9-1.6,0.9-2.6C961.8,31.7,961.6,30.8,960.9,30.2z"/>
	<path class="st4" d="M972.6,36.1c-0.5,0.5-1.3,0.9-2.3,0.9c-0.9,0-2-0.4-2.5-1.3l-0.1,1.1h-1.2V25.2h1.4v4.4
		c0.4-0.7,1.4-1.2,2.4-1.2s1.8,0.4,2.3,0.9c0.8,0.8,1.2,2,1.2,3.4C973.7,34.1,973.3,35.3,972.6,36.1z M971.5,30.3
		c-0.4-0.4-0.8-0.6-1.5-0.6c-0.6,0-1,0.2-1.4,0.5c-0.7,0.6-0.9,1.5-0.9,2.5c0,1,0.2,2,0.9,2.5c0.3,0.3,0.8,0.5,1.4,0.5
		c0.7,0,1.2-0.2,1.5-0.6c0.6-0.6,0.8-1.6,0.8-2.5S972.1,30.9,971.5,30.3z"/>
	<path class="st4" d="M982.7,36.9c-0.7,0-1.2-0.5-1.2-1.2l0,0c-0.5,0.8-1.5,1.3-2.7,1.3c-1.9,0-2.8-1.2-2.8-2.4s0.8-2.5,2.9-2.6
		l2.5-0.1v-0.6c0-0.4,0-0.8-0.4-1.2c-0.3-0.3-0.7-0.5-1.4-0.5s-1.2,0.2-1.5,0.5s-0.4,0.5-0.4,0.9h-1.3c0-0.7,0.3-1.2,0.8-1.7
		c0.6-0.6,1.5-0.9,2.5-0.9c1.6,0,2.5,0.7,2.9,1.6c0.2,0.4,0.2,0.7,0.2,1.2v3.9c0,0.4,0.2,0.5,0.5,0.5c0.1,0,0.4,0,0.4,0v1
		C983.3,36.9,983,36.9,982.7,36.9z M981.4,32.9l-2.2,0.1c-0.9,0-1.8,0.5-1.8,1.5c0,0.7,0.5,1.3,1.6,1.3c0.6,0,1.3-0.2,1.7-0.7
		c0.5-0.5,0.7-1.2,0.7-1.8V32.9z"/>
	<path class="st4" d="M989.7,28.5c1,0,1.8,0.3,2.4,0.9c0.5,0.5,0.9,1.2,1,2.1h-1.4c-0.1-0.6-0.3-0.9-0.6-1.2
		c-0.3-0.3-0.8-0.5-1.4-0.5c-0.6,0-1.2,0.3-1.5,0.6c-0.7,0.6-0.9,1.6-0.9,2.5s0.2,1.9,0.9,2.5c0.4,0.3,0.9,0.6,1.5,0.6
		c0.5,0,1.1-0.2,1.4-0.5c0.3-0.3,0.6-0.7,0.7-1.2h1.4c-0.1,0.9-0.5,1.6-1,2.1c-0.6,0.5-1.4,0.9-2.4,0.9s-1.9-0.4-2.5-1
		c-0.9-0.9-1.2-2-1.2-3.3s0.4-2.4,1.2-3.3C987.8,28.9,988.7,28.5,989.7,28.5z"/>
	<path class="st4" d="M1003.7,36.8h-1.6l-2.5-3.9l-1.6,1.7v2.2h-1.4V25.2h1.4v7.5l3.9-4.1h1.8l-3.1,3.2L1003.7,36.8z"/>
	<path class="st4" d="M927.9,55.3c-0.6,0.6-1.7,0.9-2.8,0.9s-2-0.2-2.8-0.9c-0.5-0.5-0.8-1.2-0.8-1.9h1.4c0,0.6,0.3,1,0.7,1.2
		s0.9,0.4,1.6,0.4c0.6,0,1.2-0.1,1.6-0.5c0.2-0.2,0.4-0.5,0.4-0.8c0-0.5-0.3-1-1.2-1.1l-2.1-0.3c-0.6-0.1-1.1-0.4-1.5-0.8
		c-0.3-0.4-0.5-0.9-0.5-1.4c0-0.7,0.3-1.2,0.7-1.6c0.5-0.5,1.5-0.9,2.5-0.9c1.1,0,2.1,0.4,2.7,1.1c0.3,0.4,0.5,0.9,0.6,1.5H927
		c0-0.4-0.2-0.8-0.5-1c-0.3-0.3-0.8-0.5-1.4-0.5c-0.5,0-1,0.1-1.4,0.4c-0.3,0.2-0.4,0.5-0.4,0.8c0,0.6,0.4,0.9,1.1,1l2.2,0.3
		c1,0.1,2,0.8,2,2.2C928.6,54.4,928.3,54.9,927.9,55.3z"/>
	<path class="st4" d="M935.2,57.7c-0.4,1-1,1.7-2.2,1.7c-0.7,0-1.2-0.2-1.5-0.3v-1.2c0,0,0.6,0.2,1.2,0.2c0.6,0,1-0.2,1.2-0.8
		l0.5-1.4l-3.5-8.1h1.7l2.6,6.4l2.4-6.4h1.6L935.2,57.7z"/>
	<path class="st4" d="M947,56v-5.1c0-1.2-0.5-1.9-1.8-1.9c-0.8,0-1.5,0.6-1.8,1.3c-0.3,0.6-0.4,1.5-0.4,2.1V56h-1.4v-8.1h1.2
		l0.1,1.2c0.5-0.9,1.6-1.4,2.5-1.4c1.8,0,2.9,1.1,2.9,3V56H947z"/>
	<path class="st4" d="M956,56.2c-1.8,0-2.6-1.3-2.6-2.6v-4.5h-2.5v-1.2h2.5v-2.1l1.4-0.4v2.5h3.4v1.2h-3.4v4.4
		c0,0.9,0.5,1.5,1.4,1.5c0.8,0,1.4-0.2,2-0.5v1.2C957.6,55.9,956.9,56.2,956,56.2z"/>
	<path class="st4" d="M966.8,56v-5.1c0-1.2-0.6-1.9-1.8-1.9c-0.8,0-1.5,0.5-1.8,1.3c-0.3,0.6-0.3,1.5-0.3,2.1V56h-1.4V44.4h1.4V49
		c0.5-0.8,1.6-1.3,2.5-1.3c1.8,0,2.9,1.1,2.9,3V56H966.8z"/>
	<path class="st4" d="M972.4,52.4c0,0.7,0.2,1.5,0.8,2c0.4,0.4,0.9,0.6,1.6,0.6c0.7,0,1.1-0.2,1.5-0.5c0.3-0.2,0.6-0.6,0.7-1h1.3
		c-0.4,1.7-1.8,2.6-3.5,2.6c-1,0-1.9-0.4-2.6-1.1c-0.9-0.8-1.2-2-1.2-3.2c0-1.3,0.4-2.4,1.2-3.2c0.6-0.6,1.5-1,2.6-1
		c1,0,1.9,0.4,2.5,1c0.8,0.8,1.2,2,1.2,3.2v0.5h-6.1V52.4z M976.3,49.5c-0.4-0.4-0.9-0.7-1.6-0.7c-1.6,0-2.3,1.4-2.3,2.4h4.6
		C976.9,50.6,976.7,49.9,976.3,49.5z"/>
	<path class="st4" d="M987.4,55.3c-0.6,0.6-1.7,0.9-2.8,0.9s-2-0.2-2.8-0.9c-0.5-0.5-0.8-1.2-0.8-1.9h1.4c0,0.6,0.3,1,0.7,1.2
		s0.9,0.4,1.6,0.4c0.6,0,1.2-0.1,1.6-0.5c0.2-0.2,0.4-0.5,0.4-0.8c0-0.5-0.3-1-1.2-1.1l-2.1-0.3c-0.6-0.1-1.1-0.4-1.5-0.8
		c-0.3-0.4-0.5-0.9-0.5-1.4c0-0.7,0.3-1.2,0.7-1.6c0.5-0.5,1.5-0.9,2.5-0.9c1.1,0,2.1,0.4,2.7,1.1c0.3,0.4,0.5,0.9,0.6,1.5h-1.4
		c0-0.4-0.2-0.8-0.5-1c-0.3-0.3-0.8-0.5-1.4-0.5c-0.5,0-1,0.1-1.4,0.4c-0.3,0.2-0.4,0.5-0.4,0.8c0,0.6,0.4,0.9,1.1,1l2.2,0.3
		c1,0.1,2,0.8,2,2.2C988.1,54.4,987.8,54.9,987.4,55.3z"/>
	<path class="st4" d="M991.3,56v-1.2h2.9V49h-2.6v-1.2h4v6.9h2.9V56H991.3z M993.9,46.4v-1.9h1.9v1.9H993.9z"/>
	<path class="st4" d="M1007.3,55.3c-0.6,0.6-1.7,0.9-2.8,0.9s-2-0.2-2.8-0.9c-0.5-0.5-0.8-1.2-0.8-1.9h1.4c0,0.6,0.3,1,0.7,1.2
		s0.9,0.4,1.6,0.4c0.6,0,1.2-0.1,1.6-0.5c0.2-0.2,0.4-0.5,0.4-0.8c0-0.5-0.3-1-1.2-1.1l-2.1-0.3c-0.6-0.1-1.1-0.4-1.5-0.8
		c-0.3-0.4-0.5-0.9-0.5-1.4c0-0.7,0.3-1.2,0.7-1.6c0.5-0.5,1.5-0.9,2.5-0.9c1.1,0,2.1,0.4,2.7,1.1c0.3,0.4,0.5,0.9,0.6,1.5h-1.4
		c0-0.4-0.2-0.8-0.5-1c-0.3-0.3-0.8-0.5-1.4-0.5c-0.5,0-1,0.1-1.4,0.4c-0.3,0.2-0.4,0.5-0.4,0.8c0,0.6,0.4,0.9,1.1,1l2.2,0.3
		c1,0.1,2,0.8,2,2.2C1007.9,54.4,1007.7,54.9,1007.3,55.3z"/>
</g>
<path id="Line-Copy-7" class="st1" d="M1225,261.4V91"/>
<circle id="Oval_6_" class="st2" cx="1226.5" cy="259.5" r="4.5"/>
<g>
	<path class="st4" d="M407.7,28.4c-0.6,0.6-1.8,1.1-3.1,1.1h-2.8v4.7h-1.5V22h4.3c1.4,0,2.6,0.4,3.2,1.1c0.6,0.6,0.9,1.4,0.9,2.5
		C408.7,26.8,408.4,27.7,407.7,28.4z M404.6,23.4h-2.8V28h2.8c1.6,0,2.6-0.7,2.6-2.4C407.2,24.1,406.1,23.4,404.6,23.4z"/>
	<path class="st4" d="M417.4,28.4c0-0.5-0.2-0.9-0.5-1.3c-0.3-0.3-0.7-0.6-1.4-0.6c-0.9,0-1.6,0.7-2,1.5c-0.3,0.6-0.4,1.5-0.4,2.2
		V34h-1.5v-8.6h1.3l0.1,1.3c0.5-1,1.6-1.5,2.7-1.5c1.2,0,2,0.6,2.4,1.3c0.4,0.6,0.5,1.3,0.5,1.9C418.6,28.4,417.4,28.4,417.4,28.4z"
		/>
	<path class="st4" d="M427.7,33.3c-0.6,0.6-1.6,1-2.7,1s-2.1-0.4-2.7-1c-0.9-0.9-1.3-2.1-1.3-3.5s0.4-2.6,1.3-3.5
		c0.6-0.6,1.6-1,2.7-1s2.1,0.4,2.7,1c0.9,0.9,1.3,2.1,1.3,3.5S428.6,32.4,427.7,33.3z M426.6,27.1c-0.4-0.3-0.9-0.6-1.6-0.6
		s-1.2,0.3-1.6,0.6c-0.7,0.7-1,1.7-1,2.6s0.2,2,1,2.7c0.4,0.3,0.9,0.6,1.6,0.6s1.2-0.3,1.6-0.6c0.7-0.7,1-1.7,1-2.7
		C427.6,28.9,427.3,27.8,426.6,27.1z"/>
	<path class="st4" d="M437.8,34.1l-0.1-1.1c-0.5,0.9-1.7,1.3-2.6,1.3c-1.1,0-1.9-0.4-2.5-1c-0.8-0.8-1.2-2.1-1.2-3.5
		c0-1.5,0.5-2.7,1.3-3.6c0.6-0.5,1.4-1,2.4-1c1.1,0,2.1,0.5,2.5,1.2v-4.7h1.4V34L437.8,34.1L437.8,34.1z M436.7,27.1
		c-0.3-0.3-0.8-0.5-1.4-0.5c-0.7,0-1.2,0.3-1.6,0.7c-0.6,0.6-0.9,1.6-0.9,2.6s0.3,2,0.9,2.7c0.4,0.4,0.9,0.6,1.6,0.6
		c0.6,0,1.1-0.2,1.4-0.5c0.7-0.6,1-1.6,1-2.7C437.7,28.7,437.5,27.7,436.7,27.1z"/>
	<path class="st4" d="M448.3,34.1l-0.1-1.3c-0.4,1-1.7,1.5-2.6,1.5c-1.8,0-3-1.2-3-3.2v-5.7h1.5v5.5c0,1.3,0.5,2.1,1.9,2.1
		c1.2,0,2.2-1.1,2.2-2.5v-5h1.5v8.6H448.3z"/>
	<path class="st4" d="M456.8,25.3c1,0,1.9,0.4,2.5,0.9c0.6,0.6,1,1.3,1.1,2.2h-1.5c-0.1-0.6-0.4-1-0.7-1.3c-0.3-0.3-0.9-0.5-1.5-0.5
		c-0.7,0-1.2,0.3-1.6,0.6c-0.7,0.7-0.9,1.7-0.9,2.7c0,0.9,0.2,2,0.9,2.6c0.4,0.3,0.9,0.6,1.6,0.6c0.6,0,1.1-0.2,1.5-0.5
		c0.3-0.3,0.6-0.7,0.7-1.3h1.4c-0.1,0.9-0.5,1.6-1.1,2.2c-0.6,0.6-1.5,0.9-2.5,0.9c-1.1,0-2.1-0.4-2.7-1.1c-0.9-0.9-1.3-2.1-1.3-3.5
		s0.4-2.5,1.3-3.5C454.7,25.7,455.7,25.3,456.8,25.3z"/>
	<path class="st4" d="M468.4,34.3c-1.9,0-2.8-1.3-2.8-2.7v-4.8h-2.7v-1.2h2.7v-2.2l1.4-0.5v2.7h3.6v1.2H467v4.7
		c0,0.9,0.5,1.5,1.5,1.5c0.9,0,1.5-0.3,2.2-0.6v1.3C470.1,34,469.4,34.3,468.4,34.3z"/>
	<path class="st4" d="M354,50.6c0,0.7,0.3,1.6,0.9,2.2c0.4,0.4,1,0.6,1.6,0.6c0.8,0,1.2-0.2,1.6-0.5c0.3-0.2,0.6-0.6,0.7-1h1.4
		c-0.4,1.8-1.9,2.8-3.7,2.8c-1.1,0-2-0.5-2.7-1.1c-0.9-0.9-1.3-2.1-1.3-3.4c0-1.3,0.4-2.6,1.3-3.5c0.7-0.7,1.6-1.1,2.7-1.1
		s2,0.4,2.7,1c0.8,0.8,1.2,2.1,1.2,3.4v0.5L354,50.6L354,50.6z M358.2,47.6c-0.4-0.4-1-0.7-1.6-0.7c-1.6,0-2.4,1.5-2.5,2.5h4.8
		C358.9,48.7,358.6,48.1,358.2,47.6z"/>
	<path class="st4" d="M369.4,54.5l-2.4-3.4l-2.4,3.4h-1.7l3.2-4.4l-3.2-4.2h1.8l2.4,3.2l2.3-3.2h1.7l-3.1,4.2l3.2,4.4H369.4z"/>
	<path class="st4" d="M380.5,53.8c-0.6,0.5-1.4,0.9-2.4,0.9c-1.1,0-2.1-0.5-2.6-1.2V58h-1.4V45.9h1.3l0.1,1.1
		c0.5-0.9,1.7-1.3,2.6-1.3c1.1,0,1.9,0.4,2.5,1c0.8,0.8,1.3,2.1,1.3,3.5C381.8,51.7,381.4,53,380.5,53.8z M379.5,47.6
		c-0.4-0.4-0.9-0.6-1.6-0.6c-0.6,0-1.1,0.3-1.4,0.6c-0.7,0.6-1,1.6-1,2.7s0.3,2.1,1,2.7c0.3,0.3,0.8,0.5,1.4,0.5
		c0.7,0,1.2-0.3,1.6-0.6c0.6-0.6,0.9-1.6,0.9-2.6S380.1,48.2,379.5,47.6z"/>
	<path class="st4" d="M385.6,50.6c0,0.7,0.3,1.6,0.9,2.2c0.4,0.4,1,0.6,1.6,0.6c0.8,0,1.2-0.2,1.6-0.5c0.3-0.2,0.6-0.6,0.7-1h1.4
		c-0.4,1.8-1.9,2.8-3.7,2.8c-1.1,0-2-0.5-2.7-1.1c-0.9-0.9-1.3-2.1-1.3-3.4c0-1.3,0.4-2.6,1.3-3.5c0.7-0.7,1.6-1.1,2.7-1.1
		s2,0.4,2.7,1c0.8,0.8,1.2,2.1,1.2,3.4v0.5L385.6,50.6L385.6,50.6z M389.8,47.6c-0.4-0.4-1-0.7-1.6-0.7c-1.6,0-2.4,1.5-2.5,2.5h4.8
		C390.5,48.7,390.2,48.1,389.8,47.6z"/>
	<path class="st4" d="M401.5,48.8c0-0.5-0.2-0.9-0.5-1.3c-0.3-0.3-0.7-0.6-1.4-0.6c-0.9,0-1.6,0.7-2,1.5c-0.3,0.6-0.4,1.5-0.4,2.2
		v3.8h-1.5v-8.6h1.3l0.1,1.3c0.5-1,1.6-1.5,2.7-1.5c1.2,0,2,0.6,2.4,1.3c0.4,0.6,0.5,1.3,0.5,1.9C402.7,48.8,401.5,48.8,401.5,48.8z
		"/>
	<path class="st4" d="M405.8,54.5v-1.2h3.1v-6.1h-2.8V46h4.2v7.4h3.1v1.2h-7.6V54.5z M408.5,44.3v-2h2.1v2H408.5z"/>
	<path class="st4" d="M417.3,50.6c0,0.7,0.3,1.6,0.9,2.2c0.4,0.4,1,0.6,1.6,0.6c0.8,0,1.2-0.2,1.6-0.5c0.3-0.2,0.6-0.6,0.7-1h1.4
		c-0.4,1.8-1.9,2.8-3.7,2.8c-1.1,0-2-0.5-2.7-1.1c-0.9-0.9-1.3-2.1-1.3-3.4c0-1.3,0.4-2.6,1.3-3.5c0.7-0.7,1.6-1.1,2.7-1.1
		s2,0.4,2.7,1c0.8,0.8,1.2,2.1,1.2,3.4v0.5L417.3,50.6L417.3,50.6z M421.4,47.6c-0.4-0.4-1-0.7-1.6-0.7c-1.6,0-2.4,1.5-2.5,2.5h4.8
		C422.1,48.7,421.9,48.1,421.4,47.6z"/>
	<path class="st4" d="M432.5,54.5V49c0-1.3-0.6-2.1-1.9-2.1c-0.8,0-1.6,0.6-1.9,1.4c-0.3,0.6-0.4,1.5-0.4,2.2v3.9h-1.5v-8.6h1.3
		l0.1,1.3c0.5-1,1.7-1.5,2.7-1.5c2,0,3.1,1.2,3.1,3.2v5.7C434,54.5,432.5,54.5,432.5,54.5z"/>
	<path class="st4" d="M441,45.7c1,0,1.9,0.4,2.5,0.9c0.6,0.6,1,1.3,1.1,2.2h-1.5c-0.1-0.6-0.4-1-0.7-1.3c-0.3-0.3-0.9-0.5-1.5-0.5
		c-0.7,0-1.2,0.3-1.6,0.6c-0.7,0.7-0.9,1.7-0.9,2.7c0,0.9,0.2,2,0.9,2.6c0.4,0.3,0.9,0.6,1.6,0.6c0.6,0,1.1-0.2,1.5-0.5
		c0.3-0.3,0.6-0.7,0.7-1.3h1.4c-0.1,0.9-0.5,1.6-1.1,2.2c-0.6,0.6-1.5,0.9-2.5,0.9c-1.1,0-2.1-0.4-2.7-1.1c-0.9-0.9-1.3-2.1-1.3-3.5
		s0.4-2.5,1.3-3.5C438.9,46.1,439.9,45.7,441,45.7z"/>
	<path class="st4" d="M448.9,50.6c0,0.7,0.3,1.6,0.9,2.2c0.4,0.4,1,0.6,1.6,0.6c0.8,0,1.2-0.2,1.6-0.5c0.3-0.2,0.6-0.6,0.7-1h1.4
		c-0.4,1.8-1.9,2.8-3.7,2.8c-1.1,0-2-0.5-2.7-1.1c-0.9-0.9-1.3-2.1-1.3-3.4c0-1.3,0.4-2.6,1.3-3.5c0.7-0.7,1.6-1.1,2.7-1.1
		s2,0.4,2.7,1c0.8,0.8,1.2,2.1,1.2,3.4v0.5L448.9,50.6L448.9,50.6z M453,47.6c-0.4-0.4-1-0.7-1.6-0.7c-1.6,0-2.4,1.5-2.5,2.5h4.8
		C453.8,48.7,453.5,48.1,453,47.6z"/>
	<path class="st4" d="M475.6,54.5v-6.1c0-0.8-0.2-1.4-1-1.4c-0.4,0-0.6,0.2-0.8,0.4c-0.4,0.4-0.5,1.2-0.5,2.1v5.1h-1.4v-6
		c0-0.9-0.3-1.5-1.1-1.5c-1,0-1.3,1-1.3,2.3v5.3H468v-8.6h1.2l0.1,0.8c0.3-0.6,0.9-1.1,1.9-1.1c0.9,0,1.5,0.7,1.7,1.1
		c0.4-0.7,1.1-1.1,2-1.1c1.5,0,2.1,1.2,2.1,2.3v6.5L475.6,54.5L475.6,54.5z"/>
	<path class="st4" d="M486.2,54.6c-0.8,0-1.3-0.6-1.3-1.3l0,0c-0.5,0.9-1.6,1.4-2.8,1.4c-2.1,0-3-1.3-3-2.5c0-1.3,0.9-2.7,3.1-2.8
		l2.7-0.2v-0.6c0-0.4-0.1-0.9-0.4-1.2s-0.7-0.5-1.4-0.5c-0.8,0-1.3,0.2-1.6,0.5c-0.3,0.3-0.4,0.6-0.5,1h-1.4c0-0.7,0.3-1.3,0.8-1.8
		c0.6-0.6,1.6-1,2.7-1c1.7,0,2.7,0.8,3.1,1.7c0.2,0.4,0.3,0.8,0.3,1.3v4.2c0,0.5,0.2,0.6,0.5,0.6c0.2,0,0.4-0.1,0.4-0.1v1.1
		C486.9,54.6,486.6,54.6,486.2,54.6z M484.9,50.3l-2.4,0.1c-0.9,0.1-1.9,0.5-1.9,1.6c0,0.8,0.5,1.4,1.7,1.4c0.7,0,1.3-0.2,1.8-0.7
		s0.8-1.2,0.8-1.9V50.3z"/>
	<path class="st4" d="M494.7,54.7c-1.9,0-2.8-1.3-2.8-2.7v-4.8h-2.7V46h2.7v-2.2l1.4-0.5V46h3.6v1.2h-3.6v4.7c0,0.9,0.5,1.5,1.5,1.5
		c0.9,0,1.5-0.3,2.2-0.6v1.3C496.5,54.4,495.7,54.7,494.7,54.7z"/>
	<path class="st4" d="M506.9,48.8c0-0.5-0.2-0.9-0.5-1.3c-0.3-0.3-0.7-0.6-1.4-0.6c-0.9,0-1.6,0.7-2,1.5c-0.3,0.6-0.4,1.5-0.4,2.2
		v3.8h-1.5v-8.6h1.3l0.1,1.3c0.5-1,1.6-1.5,2.7-1.5c1.2,0,2,0.6,2.4,1.3c0.4,0.6,0.5,1.3,0.5,1.9C508.1,48.8,506.9,48.8,506.9,48.8z
		"/>
	<path class="st4" d="M511.2,54.5v-1.2h3.1v-6.1h-2.8V46h4.2v7.4h3.1v1.2h-7.6V54.5z M513.9,44.3v-2h2.1v2H513.9z"/>
	<path class="st4" d="M527.5,54.5l-2.4-3.4l-2.4,3.4H521l3.2-4.4l-3.2-4.2h1.8l2.4,3.2l2.3-3.2h1.7l-3.1,4.2l3.2,4.4H527.5z"/>
</g>
<g class="st3">
	<path class="st4" d="M1064.1,168.1c-0.6,1-1.8,1.7-3.6,1.7h-3.4v-11.3h3.4c1.8,0,3,0.7,3.6,1.8c0.6,1,0.8,2.4,0.8,3.9
		C1064.9,165.6,1064.7,167.1,1064.1,168.1z M1062.6,160.5c-0.4-0.4-1.1-0.8-2.1-0.8h-2v8.7h2c1,0,1.7-0.3,2.1-0.8
		c0.8-0.8,0.8-2.2,0.8-3.6C1063.4,162.6,1063.4,161.3,1062.6,160.5z"/>
	<path class="st4" d="M1068.3,166.2c0,0.7,0.2,1.5,0.8,2c0.4,0.4,0.9,0.6,1.6,0.6s1.1-0.2,1.5-0.5c0.3-0.2,0.6-0.6,0.7-1h1.3
		c-0.4,1.7-1.8,2.6-3.5,2.6c-1,0-1.9-0.4-2.6-1.1c-0.9-0.8-1.2-2-1.2-3.2c0-1.3,0.4-2.4,1.2-3.2c0.6-0.6,1.5-1,2.6-1
		c1,0,1.9,0.4,2.5,1c0.8,0.8,1.2,2,1.2,3.2v0.5h-6.1V166.2z M1072.2,163.3c-0.4-0.4-0.9-0.7-1.6-0.7c-1.6,0-2.3,1.4-2.3,2.4h4.6
		C1072.9,164.4,1072.6,163.7,1072.2,163.3z"/>
	<path class="st4" d="M1077.2,169.8v-1.2h2.8v-9.3h-2.6v-1.1h4v10.4h2.8v1.2H1077.2z"/>
	<path class="st4" d="M1087.3,169.8v-1.2h2.9v-5.8h-2.6v-1.2h4v6.9h2.9v1.3H1087.3z M1089.8,160.2v-1.9h1.9v1.9H1089.8z"/>
	<path class="st4" d="M1101.2,169.8h-1.6l-3.2-8.1h1.5l2.6,6.7l2.5-6.7h1.4L1101.2,169.8z"/>
	<path class="st4" d="M1108,166.2c0,0.7,0.2,1.5,0.8,2c0.4,0.4,0.9,0.6,1.6,0.6s1.1-0.2,1.5-0.5c0.3-0.2,0.6-0.6,0.7-1h1.3
		c-0.4,1.7-1.8,2.6-3.5,2.6c-1,0-1.9-0.4-2.6-1.1c-0.9-0.8-1.2-2-1.2-3.2c0-1.3,0.4-2.4,1.2-3.2c0.6-0.6,1.5-1,2.6-1
		c1,0,1.9,0.4,2.5,1c0.8,0.8,1.2,2,1.2,3.2v0.5h-6.1V166.2z M1111.9,163.3c-0.4-0.4-0.9-0.7-1.6-0.7c-1.6,0-2.3,1.4-2.3,2.4h4.6
		C1112.6,164.4,1112.3,163.7,1111.9,163.3z"/>
	<path class="st4" d="M1122.9,164.4c0-0.4-0.1-0.9-0.4-1.2c-0.3-0.3-0.7-0.5-1.3-0.5c-0.8,0-1.5,0.6-1.9,1.4
		c-0.3,0.6-0.4,1.4-0.4,2.1v3.6h-1.4v-8.1h1.2l0.1,1.2c0.5-1,1.6-1.4,2.6-1.4c1.1,0,1.9,0.5,2.3,1.2c0.4,0.6,0.5,1.2,0.5,1.8h-1.3
		L1122.9,164.4L1122.9,164.4z"/>
	<path class="st4" d="M1130.3,171.5c-0.4,1-1,1.7-2.2,1.7c-0.7,0-1.2-0.2-1.5-0.3v-1.2c0,0,0.6,0.2,1.2,0.2c0.6,0,1-0.2,1.2-0.8
		l0.5-1.4l-3.5-8.1h1.7l2.6,6.4l2.4-6.4h1.6L1130.3,171.5z"/>
</g>
</svg>
