<?xml version="1.0" encoding="utf-8"?>
<!-- Generator: Adobe Illustrator 21.0.2, SVG Export Plug-In . SVG Version: 6.00 Build 0)  -->
<svg version="1.1" id="Layer_1" xmlns="http://www.w3.org/2000/svg" xmlns:xlink="http://www.w3.org/1999/xlink" x="0px" y="0px"
	 viewBox="0 0 200 43" style="enable-background:new 0 0 200 43;" xml:space="preserve">
<style type="text/css">
	.st0{fill:#4E4E4E;}
</style>
<g>
	<g>
		<path class="st0" d="M64.7,17.4v-5.5h-5.5V3h-7.9v8.9h-4.3v5.5h4.3v12.3c0,7.5,4.8,11.7,13.4,11.8v-6.5c-3.6-0.1-5.5-2.3-5.5-6.4
			V17.4H64.7z"/>
		<g>
			<path class="st0" d="M170.5,11.9v28.6h-4.7V11.9H170.5z"/>
			<path class="st0" d="M180.8,11.9v4.5h0.1c2-3.5,5-5.2,9.3-5.2c1.9,0,3.4,0.3,4.7,0.8c1.3,0.5,2.3,1.2,3,2.2
				c0.8,0.9,1.3,2,1.6,3.3c0.3,1.3,0.5,2.7,0.5,4.2v18.8h-4.7V21.1c0-1.8-0.5-3.2-1.5-4.2c-1-1-2.5-1.5-4.3-1.5
				c-1.4,0-2.7,0.2-3.7,0.7c-1,0.4-1.9,1.1-2.6,1.9c-0.7,0.8-1.2,1.8-1.6,2.8c-0.4,1.1-0.5,2.3-0.5,3.6v16.1h-4.7V11.9H180.8z"/>
		</g>
		<g>
			<path class="st0" d="M88.5,40.5v-4h-0.2c-1,1.7-2.3,2.9-3.9,3.6c-1.6,0.7-3.2,1.1-4.9,1.1c-2.1,0-3.8-0.3-5.2-0.8
				c-1.3-0.6-2.4-1.3-3.2-2.3c-0.8-1-1.3-2.2-1.6-3.7c-0.3-1.5-0.5-3.1-0.5-4.8V11.9H77V28c0,2.4,0.4,4.1,1.1,5.3
				c0.7,1.2,2,1.7,3.9,1.7c2.1,0,3.7-0.6,4.6-1.9c1-1.3,1.4-3.4,1.4-6.3v-15H96v28.6H88.5z"/>
			<path class="st0" d="M108.7,11.9v4h0.2c1-1.7,2.3-2.9,3.9-3.6c1.6-0.8,3.2-1.1,4.9-1.1c2.1,0,3.8,0.3,5.2,0.9
				c1.3,0.6,2.4,1.4,3.2,2.4c0.8,1,1.3,2.2,1.6,3.7c0.3,1.5,0.5,3.1,0.5,4.8v17.6h-7.8V24.3c0-2.4-0.4-4.1-1.1-5.3
				c-0.7-1.2-2-1.7-3.9-1.7c-2.1,0-3.7,0.6-4.6,1.9c-1,1.3-1.4,3.4-1.4,6.3v15h-7.9V11.9H108.7z"/>
			<path class="st0" d="M141.7,33.6c1.2,1.1,2.9,1.7,5.1,1.7c1.6,0,2.9-0.4,4.1-1.2c1.1-0.8,1.8-1.6,2.1-2.5h6.9
				c-1.1,3.4-2.8,5.9-5.1,7.4c-2.3,1.5-5.1,2.2-8.3,2.2c-2.3,0-4.3-0.4-6.1-1.1c-1.8-0.7-3.3-1.7-4.6-3.1c-1.3-1.3-2.2-2.9-2.9-4.8
				c-0.7-1.8-1-3.9-1-6.1c0-2.1,0.4-4.1,1.1-6c0.7-1.8,1.7-3.4,3-4.8c1.3-1.3,2.8-2.4,4.6-3.2c1.8-0.8,3.8-1.2,5.9-1.2
				c2.4,0,4.6,0.5,6.4,1.4c1.8,0.9,3.3,2.2,4.4,3.8c1.2,1.6,2,3.4,2.5,5.4c0.5,2,0.7,4.1,0.6,6.4h-20.6
				C139.8,30.6,140.5,32.5,141.7,33.6z M150.5,18.6c-0.9-1-2.4-1.5-4.3-1.5c-1.3,0-2.3,0.2-3.1,0.6c-0.8,0.4-1.5,0.9-2,1.6
				c-0.5,0.6-0.9,1.3-1.1,2c-0.2,0.7-0.3,1.3-0.4,1.9h12.8C152.1,21.1,151.5,19.6,150.5,18.6z"/>
		</g>
		<path class="st0" d="M171.1,3c0,1.7-1.4,3-3,3c-1.7,0-3-1.4-3-3c0-1.7,1.4-3,3-3C169.8,0,171.1,1.4,171.1,3"/>
	</g>
	<g>
		<path class="st0" d="M19.2,15c-3.8,0-6.9-3.1-6.9-6.9c0-1.8,0.7-3.6,2-4.9c1.3-1.3,3-2,4.9-2c3.8,0,6.9,3.1,6.9,6.9
			C26.1,11.9,23,15,19.2,15"/>
		<path class="st0" d="M0,17.8c0-0.4,0.3-0.7,0.7-0.7h18.5c3.3,0,6.1,2.7,6.1,6v5.4c0,0.4-0.3,0.7-0.7,0.7c0,0,0,0,0,0L6,29.2
			c-3.3,0-6-2.7-6-6V17.8z"/>
		<path class="st0" d="M33,17h5.3c0.4,0,0.7,0.3,0.7,0.7v5.4c0,3.3-2.7,6-6,6l-5.3,0c-0.4,0-0.7-0.3-0.7-0.7v-5.4
			C27,19.7,29.7,17,33,17"/>
		<path class="st0" d="M24.6,30.9H13.9c-0.4,0-0.7,0.3-0.7,0.7v10.8c0,0.4,0.3,0.7,0.7,0.7l5.3,0c3.3,0,6-2.7,6-6v-5.4
			C25.3,31.2,25,30.9,24.6,30.9"/>
	</g>
</g>
</svg>
