<?xml version="1.0" encoding="utf-8"?>
<!-- Generator: Adobe Illustrator 21.0.2, SVG Export Plug-In . SVG Version: 6.00 Build 0)  -->
<svg version="1.1" id="NEW_logo" xmlns="http://www.w3.org/2000/svg" xmlns:xlink="http://www.w3.org/1999/xlink" x="0px" y="0px"
	 viewBox="0 0 283.5 103.4" style="enable-background:new 0 0 283.5 103.4;" xml:space="preserve">
<style type="text/css">
	.st0{fill:#4E4E4E;}
</style>
<g>
	<path class="st0" d="M94.2,51.7L94.2,51.7l6.3-10.9v0L89.5,0L48.8,10.9h0l0,0v0l-0.1,0l-6.3,10.9h0l-12.6,0l0,0v0L0,51.7l29.8,29.8
		l0,0l0,0h12.6l0,0l6.3,10.9l0,0h0v0l40.8,10.9l10.9-40.8v0l0,0v0l0-0.1L94.2,51.7z M43.5,23.6L75,15.1L56.8,46.6H20.4L43.5,23.6z
		 M43.5,79.8L20.4,56.8h36.4L75,88.3L43.5,79.8z M83.7,83.2L65.5,51.7l18.2-31.5l8.4,31.5L83.7,83.2z"/>
	<g>
		<path class="st0" d="M158.6,31.8h-10v22.5c0,5.9-2.4,10.6-9.5,10.6c-7,0.1-9.1-4.8-9.1-10.9V31.8h-10v24.7
			c0,7.3,2.3,17.6,15.9,17.7c7.5,0.1,11.3-3.6,12.7-6.8v6h10V31.8z"/>
		<path class="st0" d="M162.2,73.3h10V49.9c0-5.8,2.5-10.5,9.5-10.6c7,0,9.1,4.8,9.1,11v23h10V47.8c0-7.3-2.5-17.7-16-17.8
			c-7.4-0.1-11.1,3.8-12.9,7c0.1-2,0.1-3.9,0.1-5.3h-9.8V73.3z"/>
		<path class="st0" d="M204.5,26h10v-8.6h-10V26z M204.5,73.3h10V31.8h-10V73.3z"/>
		<path class="st0" d="M224.5,73.3h10V38.9h6.9l-2.9-7.2h-4V17.4h-10v14.3h-7.2v7.2h7.2V73.3z"/>
		<path class="st0" d="M251,87.6h10.6l21.9-55.8h-10.6l-10,27.6l-10.1-27.6h-10.6l15.7,39.8L251,87.6z"/>
	</g>
</g>
</svg>
